<svg width="605" height="220" xmlns="http://www.w3.org/2000/svg" xmlns:xlink="http://www.w3.org/1999/xlink" xml:space="preserve" overflow="hidden"><g transform="translate(-1388 -375)"><g><text fill="#4F81BD" fill-opacity="1" font-family="Arial,Arial_MSFontService,sans-serif" font-style="normal" font-variant="normal" font-weight="700" font-stretch="normal" font-size="83" text-anchor="start" direction="ltr" writing-mode="lr-tb" unicode-bidi="normal" text-decoration="underline" transform="matrix(1 0 0 1 1558.8 483)">penPDS</text><path d="M1431 466C1431 446.118 1447.34 430 1467.5 430 1487.66 430 1504 446.118 1504 466 1504 485.882 1487.66 502 1467.5 502 1447.34 502 1431 485.882 1431 466Z" fill="#4F81BD" fill-rule="evenodd" fill-opacity="1"/><g><g><g><path d="M19.6875 29.3125 22.3125 29.3125 22.3125 32.8125 19.6875 32.8125Z" fill="#000000" fill-rule="nonzero" fill-opacity="1" transform="matrix(1.00001 0 0 1 1447 443)"/><path d="M19.6875 34.5624 22.3125 34.5624 22.3125 37.1874 19.6875 37.1874Z" fill="#000000" fill-rule="nonzero" fill-opacity="1" transform="matrix(1.00001 0 0 1 1447 443)"/><path d="M24.0625 34.5624 36.7499 34.5624 36.7499 37.1874 24.0625 37.1874Z" fill="#000000" fill-rule="nonzero" fill-opacity="1" transform="matrix(1.00001 0 0 1 1447 443)"/><path d="M5.24999 34.5624 17.9375 34.5624 17.9375 37.1874 5.24999 37.1874Z" fill="#000000" fill-rule="nonzero" fill-opacity="1" transform="matrix(1.00001 0 0 1 1447 443)"/><path d="M33.4337 22.3125 8.56624 22.3125C7.70121 22.3125 6.99999 23.0137 6.99999 23.8787L6.99999 27.7462C6.99999 28.6112 7.70121 29.3125 8.56624 29.3125L33.4337 29.3125C34.2987 29.3125 34.9999 28.6112 34.9999 27.7462L34.9999 23.8787C34.9999 23.0137 34.2987 22.3125 33.4337 22.3125ZM11.375 26.6875C10.8917 26.6875 10.5 26.2957 10.5 25.8125 10.5 25.3292 10.8917 24.9375 11.375 24.9375 11.8582 24.9375 12.25 25.3292 12.25 25.8125 12.25 26.2957 11.8582 26.6875 11.375 26.6875ZM15.75 26.6875C15.2667 26.6875 14.875 26.2957 14.875 25.8125 14.875 25.3292 15.2667 24.9375 15.75 24.9375 16.2332 24.9375 16.625 25.3292 16.625 25.8125 16.625 26.2957 16.2332 26.6875 15.75 26.6875ZM20.125 26.6875C19.6417 26.6875 19.25 26.2957 19.25 25.8125 19.25 25.3292 19.6417 24.9375 20.125 24.9375 20.6082 24.9375 21 25.3292 21 25.8125 21 26.2957 20.6082 26.6875 20.125 26.6875Z" fill="#000000" fill-rule="nonzero" fill-opacity="1" transform="matrix(1.00001 0 0 1 1447 443)"/><path d="M33.4337 13.5625 8.56624 13.5625C7.70121 13.5625 6.99999 14.2637 6.99999 15.1287L6.99999 18.9962C6.99999 19.8612 7.70121 20.5625 8.56624 20.5625L33.4337 20.5625C34.2987 20.5625 34.9999 19.8612 34.9999 18.9962L34.9999 15.1287C34.9999 14.2637 34.2987 13.5625 33.4337 13.5625ZM11.375 17.9375C10.8917 17.9375 10.5 17.5457 10.5 17.0625 10.5 16.5792 10.8917 16.1875 11.375 16.1875 11.8582 16.1875 12.25 16.5792 12.25 17.0625 12.25 17.5457 11.8582 17.9375 11.375 17.9375ZM15.75 17.9375C15.2667 17.9375 14.875 17.5457 14.875 17.0625 14.875 16.5792 15.2667 16.1875 15.75 16.1875 16.2332 16.1875 16.625 16.5792 16.625 17.0625 16.625 17.5457 16.2332 17.9375 15.75 17.9375ZM20.125 17.9375C19.6417 17.9375 19.25 17.5457 19.25 17.0625 19.25 16.5792 19.6417 16.1875 20.125 16.1875 20.6082 16.1875 21 16.5792 21 17.0625 21 17.5457 20.6082 17.9375 20.125 17.9375Z" fill="#000000" fill-rule="nonzero" fill-opacity="1" transform="matrix(1.00001 0 0 1 1447 443)"/><path d="M33.4337 4.81249 8.56624 4.81249C7.70121 4.81249 6.99999 5.51372 6.99999 6.37874L6.99999 10.2462C6.99999 11.1113 7.70121 11.8125 8.56624 11.8125L33.4337 11.8125C34.2987 11.8125 34.9999 11.1113 34.9999 10.2462L34.9999 6.37874C34.9999 5.51372 34.2987 4.81249 33.4337 4.81249ZM11.375 9.18749C10.8917 9.18749 10.5 8.79575 10.5 8.31249 10.5 7.82923 10.8917 7.43749 11.375 7.43749 11.8582 7.43749 12.25 7.82923 12.25 8.31249 12.25 8.79575 11.8582 9.18749 11.375 9.18749ZM15.75 9.18749C15.2667 9.18749 14.875 8.79575 14.875 8.31249 14.875 7.82923 15.2667 7.43749 15.75 7.43749 16.2332 7.43749 16.625 7.82923 16.625 8.31249 16.625 8.79575 16.2332 9.18749 15.75 9.18749ZM20.125 9.18749C19.6417 9.18749 19.25 8.79575 19.25 8.31249 19.25 7.82923 19.6417 7.43749 20.125 7.43749 20.6082 7.43749 21 7.82923 21 8.31249 21 8.79575 20.6082 9.18749 20.125 9.18749Z" fill="#000000" fill-rule="nonzero" fill-opacity="1" transform="matrix(1.00001 0 0 1 1447 443)"/></g></g></g><path d="M1403 466C1403 430.102 1431.88 401 1467.5 401 1503.12 401 1532 430.102 1532 466 1532 501.899 1503.12 531 1467.5 531 1431.88 531 1403 501.899 1403 466Z" stroke="#4F81BD" stroke-width="24.0625" stroke-linecap="butt" stroke-linejoin="round" stroke-miterlimit="10" stroke-opacity="1" fill="none" fill-rule="evenodd"/><path d="M1459 401.5C1459 396.806 1462.81 393 1467.5 393 1472.19 393 1476 396.806 1476 401.5 1476 406.194 1472.19 410 1467.5 410 1462.81 410 1459 406.194 1459 401.5Z" fill="#00B050" fill-rule="evenodd" fill-opacity="1"/><path d="M1492 523C1492 518.582 1495.81 515 1500.5 515 1505.19 515 1509 518.582 1509 523 1509 527.418 1505.19 531 1500.5 531 1495.81 531 1492 527.418 1492 523Z" fill="#FF0000" fill-rule="evenodd" fill-opacity="1"/><path d="M1524 466C1524 461.582 1527.58 458 1532 458 1536.42 458 1540 461.582 1540 466 1540 470.418 1536.42 474 1532 474 1527.58 474 1524 470.418 1524 466Z" fill="#00B050" fill-rule="evenodd" fill-opacity="1"/><path d="M1411 422.5C1411 417.806 1414.58 414 1419 414 1423.42 414 1427 417.806 1427 422.5 1427 427.194 1423.42 431 1419 431 1414.58 431 1411 427.194 1411 422.5Z" fill="#00B050" fill-rule="evenodd" fill-opacity="1"/><path d="M1427 523C1427 518.582 1430.81 515 1435.5 515 1440.19 515 1444 518.582 1444 523 1444 527.418 1440.19 531 1435.5 531 1430.81 531 1427 527.418 1427 523Z" fill="#FF0000" fill-rule="evenodd" fill-opacity="1"/><path d="M1395 465.5C1395 460.805 1398.58 457 1403 457 1407.42 457 1411 460.805 1411 465.5 1411 470.194 1407.42 474 1403 474 1398.58 474 1395 470.194 1395 465.5Z" fill="#00B050" fill-rule="evenodd" fill-opacity="1"/><path d="M1448 574.5C1448 563.731 1456.73 555 1467.5 555 1478.27 555 1487 563.731 1487 574.5 1487 585.27 1478.27 594 1467.5 594 1456.73 594 1448 585.27 1448 574.5Z" fill="#4F81BD" fill-rule="evenodd" fill-opacity="1"/><path d="M0 0 0.149049 57.7464" stroke="#4F81BD" stroke-width="13.75" stroke-linecap="butt" stroke-linejoin="round" stroke-miterlimit="10" stroke-opacity="1" fill="none" fill-rule="evenodd" transform="matrix(-1 0 0 1 1467.15 502)"/><path d="M1507 422.5C1507 417.806 1510.81 414 1515.5 414 1520.19 414 1524 417.806 1524 422.5 1524 427.194 1520.19 431 1515.5 431 1510.81 431 1507 427.194 1507 422.5Z" fill="#00B050" fill-rule="evenodd" fill-opacity="1"/><text fill="#000000" fill-opacity="1" font-family="Arial,Arial_MSFontService,sans-serif" font-style="normal" font-variant="normal" font-weight="700" font-stretch="normal" font-size="25" text-anchor="start" direction="ltr" writing-mode="lr-tb" unicode-bidi="normal" text-decoration="none" transform="matrix(1 0 0 1 1536.31 529)">A</text><text fill="#000000" fill-opacity="1" font-family="Arial,Arial_MSFontService,sans-serif" font-style="normal" font-variant="normal" font-weight="700" font-stretch="normal" font-size="25" text-anchor="start" direction="ltr" writing-mode="lr-tb" unicode-bidi="normal" text-decoration="none" transform="matrix(1 0 0 1 1554.64 529)">cquisition &amp; Dissemination</text><text fill="#000000" fill-opacity="1" font-family="Arial,Arial_MSFontService,sans-serif" font-style="normal" font-variant="normal" font-weight="700" font-stretch="normal" font-size="25" text-anchor="start" direction="ltr" writing-mode="lr-tb" unicode-bidi="normal" text-decoration="none" transform="matrix(1 0 0 1 1536.31 559)">System</text></g></g></svg>