<svg width="445" height="555" xmlns="http://www.w3.org/2000/svg" xmlns:xlink="http://www.w3.org/1999/xlink" xml:space="preserve" overflow="hidden"><g transform="translate(-1631 -407)"><g><path d="M1745 630C1745 569.801 1794.02 521 1854.5 521 1914.97 521 1964 569.801 1964 630 1964 690.199 1914.97 739 1854.5 739 1794.02 739 1745 690.199 1745 630Z" fill="#4F81BD" fill-rule="evenodd" fill-opacity="1"/><g><g><g><path d="M1850.06 648.938 1857.94 648.938 1857.94 659.438 1850.06 659.438Z" fill="#000000" fill-rule="nonzero" fill-opacity="1"/><path d="M1850.06 664.688 1857.94 664.688 1857.94 672.563 1850.06 672.563Z" fill="#000000" fill-rule="nonzero" fill-opacity="1"/><path d="M1863.19 664.688 1901.25 664.688 1901.25 672.563 1863.19 672.563Z" fill="#000000" fill-rule="nonzero" fill-opacity="1"/><path d="M1806.75 664.688 1844.81 664.688 1844.81 672.563 1806.75 672.563Z" fill="#000000" fill-rule="nonzero" fill-opacity="1"/><path d="M1891.3 627.938 1816.7 627.938C1814.1 627.938 1812 630.041 1812 632.636L1812 644.239C1812 646.834 1814.1 648.938 1816.7 648.938L1891.3 648.938C1893.9 648.938 1896 646.834 1896 644.239L1896 632.636C1896 630.041 1893.9 627.938 1891.3 627.938ZM1825.12 641.063C1823.68 641.063 1822.5 639.887 1822.5 638.438 1822.5 636.988 1823.68 635.813 1825.12 635.813 1826.57 635.813 1827.75 636.988 1827.75 638.438 1827.75 639.887 1826.57 641.063 1825.12 641.063ZM1838.25 641.063C1836.8 641.063 1835.62 639.887 1835.62 638.438 1835.62 636.988 1836.8 635.813 1838.25 635.813 1839.7 635.813 1840.88 636.988 1840.88 638.438 1840.88 639.887 1839.7 641.063 1838.25 641.063ZM1851.38 641.063C1849.93 641.063 1848.75 639.887 1848.75 638.438 1848.75 636.988 1849.93 635.813 1851.38 635.813 1852.82 635.813 1854 636.988 1854 638.438 1854 639.887 1852.82 641.063 1851.38 641.063Z" fill="#000000" fill-rule="nonzero" fill-opacity="1"/><path d="M1891.3 601.688 1816.7 601.688C1814.1 601.688 1812 603.791 1812 606.386L1812 617.989C1812 620.584 1814.1 622.688 1816.7 622.688L1891.3 622.688C1893.9 622.688 1896 620.584 1896 617.989L1896 606.386C1896 603.791 1893.9 601.688 1891.3 601.688ZM1825.12 614.813C1823.68 614.813 1822.5 613.637 1822.5 612.188 1822.5 610.738 1823.68 609.563 1825.12 609.563 1826.57 609.563 1827.75 610.738 1827.75 612.188 1827.75 613.637 1826.57 614.813 1825.12 614.813ZM1838.25 614.813C1836.8 614.813 1835.62 613.637 1835.62 612.188 1835.62 610.738 1836.8 609.563 1838.25 609.563 1839.7 609.563 1840.88 610.738 1840.88 612.188 1840.88 613.637 1839.7 614.813 1838.25 614.813ZM1851.38 614.813C1849.93 614.813 1848.75 613.637 1848.75 612.188 1848.75 610.738 1849.93 609.563 1851.38 609.563 1852.82 609.563 1854 610.738 1854 612.188 1854 613.637 1852.82 614.813 1851.38 614.813Z" fill="#000000" fill-rule="nonzero" fill-opacity="1"/><path d="M1891.3 575.438 1816.7 575.438C1814.1 575.438 1812 577.541 1812 580.136L1812 591.739C1812 594.334 1814.1 596.438 1816.7 596.438L1891.3 596.438C1893.9 596.438 1896 594.334 1896 591.739L1896 580.136C1896 577.541 1893.9 575.438 1891.3 575.438ZM1825.12 588.563C1823.68 588.563 1822.5 587.387 1822.5 585.938 1822.5 584.488 1823.68 583.312 1825.12 583.312 1826.57 583.312 1827.75 584.488 1827.75 585.938 1827.75 587.387 1826.57 588.563 1825.12 588.563ZM1838.25 588.563C1836.8 588.563 1835.62 587.387 1835.62 585.938 1835.62 584.488 1836.8 583.312 1838.25 583.312 1839.7 583.312 1840.88 584.488 1840.88 585.938 1840.88 587.387 1839.7 588.563 1838.25 588.563ZM1851.38 588.563C1849.93 588.563 1848.75 587.387 1848.75 585.938 1848.75 584.488 1849.93 583.312 1851.38 583.312 1852.82 583.312 1854 584.488 1854 585.938 1854 587.387 1852.82 588.563 1851.38 588.563Z" fill="#000000" fill-rule="nonzero" fill-opacity="1"/></g></g></g><path d="M1658 630C1658 521.752 1745.75 434 1854 434 1962.25 434 2050 521.752 2050 630 2050 738.248 1962.25 826 1854 826 1745.75 826 1658 738.248 1658 630Z" stroke="#4F81BD" stroke-width="24.0625" stroke-linecap="butt" stroke-linejoin="round" stroke-miterlimit="10" stroke-opacity="1" fill="none" fill-rule="evenodd"/><path d="M1829 435.5C1829 421.969 1839.97 411 1853.5 411 1867.03 411 1878 421.969 1878 435.5 1878 449.031 1867.03 460 1853.5 460 1839.97 460 1829 449.031 1829 435.5Z" fill="#00B050" fill-rule="evenodd" fill-opacity="1"/><path d="M1929 801.5C1929 787.969 1939.97 777 1953.5 777 1967.03 777 1978 787.969 1978 801.5 1978 815.031 1967.03 826 1953.5 826 1939.97 826 1929 815.031 1929 801.5Z" fill="#FF0000" fill-rule="evenodd" fill-opacity="1"/><path d="M2024 629.5C2024 615.969 2034.97 605 2048.5 605 2062.03 605 2073 615.969 2073 629.5 2073 643.031 2062.03 654 2048.5 654 2034.97 654 2024 643.031 2024 629.5Z" fill="#00B050" fill-rule="evenodd" fill-opacity="1"/><path d="M1684 499.5C1684 485.969 1694.97 475 1708.5 475 1722.03 475 1733 485.969 1733 499.5 1733 513.031 1722.03 524 1708.5 524 1694.97 524 1684 513.031 1684 499.5Z" fill="#00B050" fill-rule="evenodd" fill-opacity="1"/><path d="M1733 802.5C1733 788.969 1743.97 778 1757.5 778 1771.03 778 1782 788.969 1782 802.5 1782 816.031 1771.03 827 1757.5 827 1743.97 827 1733 816.031 1733 802.5Z" fill="#FF0000" fill-rule="evenodd" fill-opacity="1"/><path d="M1636 628.5C1636 614.969 1646.97 604 1660.5 604 1674.03 604 1685 614.969 1685 628.5 1685 642.031 1674.03 653 1660.5 653 1646.97 653 1636 642.031 1636 628.5Z" fill="#00B050" fill-rule="evenodd" fill-opacity="1"/><path d="M1829 934.5C1829 920.969 1839.97 910 1853.5 910 1867.03 910 1878 920.969 1878 934.5 1878 948.031 1867.03 959 1853.5 959 1839.97 959 1829 948.031 1829 934.5Z" fill="#4F81BD" fill-rule="evenodd" fill-opacity="1"/><path d="M0 0 0.449672 174.091" stroke="#4F81BD" stroke-width="13.75" stroke-linecap="butt" stroke-linejoin="round" stroke-miterlimit="10" stroke-opacity="1" fill="none" fill-rule="evenodd" transform="matrix(-1 0 0 1 1854.45 738)"/><path d="M1974 499.5C1974 485.969 1985.19 475 1999 475 2012.81 475 2024 485.969 2024 499.5 2024 513.031 2012.81 524 1999 524 1985.19 524 1974 513.031 1974 499.5Z" fill="#00B050" fill-rule="evenodd" fill-opacity="1"/></g></g></svg>