<svg width="160" height="211" xmlns="http://www.w3.org/2000/svg" xmlns:xlink="http://www.w3.org/1999/xlink" xml:space="preserve" overflow="hidden"><g transform="translate(-1627 -403)"><g><path d="M1672 483.5C1672 463.342 1688.12 447 1708 447 1727.88 447 1744 463.342 1744 483.5 1744 503.658 1727.88 520 1708 520 1688.12 520 1672 503.658 1672 483.5Z" fill="#4F81BD" fill-rule="evenodd" fill-opacity="1"/><g><g><g><path d="M1706.69 489.312 1709.31 489.312 1709.31 492.812 1706.69 492.812Z" fill="#000000" fill-rule="nonzero" fill-opacity="1"/><path d="M1706.69 494.562 1709.31 494.562 1709.31 497.187 1706.69 497.187Z" fill="#000000" fill-rule="nonzero" fill-opacity="1"/><path d="M1711.06 494.562 1723.75 494.562 1723.75 497.187 1711.06 497.187Z" fill="#000000" fill-rule="nonzero" fill-opacity="1"/><path d="M1692.25 494.562 1704.94 494.562 1704.94 497.187 1692.25 497.187Z" fill="#000000" fill-rule="nonzero" fill-opacity="1"/><path d="M1720.43 482.312 1695.57 482.312C1694.7 482.312 1694 483.014 1694 483.879L1694 487.746C1694 488.611 1694.7 489.312 1695.57 489.312L1720.43 489.312C1721.3 489.312 1722 488.611 1722 487.746L1722 483.879C1722 483.014 1721.3 482.312 1720.43 482.312ZM1698.38 486.687C1697.89 486.687 1697.5 486.296 1697.5 485.812 1697.5 485.329 1697.89 484.937 1698.38 484.937 1698.86 484.937 1699.25 485.329 1699.25 485.812 1699.25 486.296 1698.86 486.687 1698.38 486.687ZM1702.75 486.687C1702.27 486.687 1701.88 486.296 1701.88 485.812 1701.88 485.329 1702.27 484.937 1702.75 484.937 1703.23 484.937 1703.63 485.329 1703.63 485.812 1703.63 486.296 1703.23 486.687 1702.75 486.687ZM1707.13 486.687C1706.64 486.687 1706.25 486.296 1706.25 485.812 1706.25 485.329 1706.64 484.937 1707.13 484.937 1707.61 484.937 1708 485.329 1708 485.812 1708 486.296 1707.61 486.687 1707.13 486.687Z" fill="#000000" fill-rule="nonzero" fill-opacity="1"/><path d="M1720.43 473.562 1695.57 473.562C1694.7 473.562 1694 474.264 1694 475.129L1694 478.996C1694 479.861 1694.7 480.562 1695.57 480.562L1720.43 480.562C1721.3 480.562 1722 479.861 1722 478.996L1722 475.129C1722 474.264 1721.3 473.562 1720.43 473.562ZM1698.38 477.937C1697.89 477.937 1697.5 477.546 1697.5 477.062 1697.5 476.579 1697.89 476.187 1698.38 476.187 1698.86 476.187 1699.25 476.579 1699.25 477.062 1699.25 477.546 1698.86 477.937 1698.38 477.937ZM1702.75 477.937C1702.27 477.937 1701.88 477.546 1701.88 477.062 1701.88 476.579 1702.27 476.187 1702.75 476.187 1703.23 476.187 1703.63 476.579 1703.63 477.062 1703.63 477.546 1703.23 477.937 1702.75 477.937ZM1707.13 477.937C1706.64 477.937 1706.25 477.546 1706.25 477.062 1706.25 476.579 1706.64 476.187 1707.13 476.187 1707.61 476.187 1708 476.579 1708 477.062 1708 477.546 1707.61 477.937 1707.13 477.937Z" fill="#000000" fill-rule="nonzero" fill-opacity="1"/><path d="M1720.43 464.812 1695.57 464.812C1694.7 464.812 1694 465.514 1694 466.379L1694 470.246C1694 471.111 1694.7 471.812 1695.57 471.812L1720.43 471.812C1721.3 471.812 1722 471.111 1722 470.246L1722 466.379C1722 465.514 1721.3 464.812 1720.43 464.812ZM1698.38 469.187C1697.89 469.187 1697.5 468.796 1697.5 468.312 1697.5 467.829 1697.89 467.437 1698.38 467.437 1698.86 467.437 1699.25 467.829 1699.25 468.312 1699.25 468.796 1698.86 469.187 1698.38 469.187ZM1702.75 469.187C1702.27 469.187 1701.88 468.796 1701.88 468.312 1701.88 467.829 1702.27 467.437 1702.75 467.437 1703.23 467.437 1703.63 467.829 1703.63 468.312 1703.63 468.796 1703.23 469.187 1702.75 469.187ZM1707.13 469.187C1706.64 469.187 1706.25 468.796 1706.25 468.312 1706.25 467.829 1706.64 467.437 1707.13 467.437 1707.61 467.437 1708 467.829 1708 468.312 1708 468.796 1707.61 469.187 1707.13 469.187Z" fill="#000000" fill-rule="nonzero" fill-opacity="1"/></g></g></g><path d="M1643 483C1643 447.101 1672.1 418 1708 418 1743.9 418 1773 447.101 1773 483 1773 518.898 1743.9 548 1708 548 1672.1 548 1643 518.898 1643 483Z" stroke="#4F81BD" stroke-width="24.0625" stroke-linecap="butt" stroke-linejoin="round" stroke-miterlimit="10" stroke-opacity="1" fill="none" fill-rule="evenodd"/><path d="M1700 419C1700 414.582 1703.58 411 1708 411 1712.42 411 1716 414.582 1716 419 1716 423.418 1712.42 427 1708 427 1703.58 427 1700 423.418 1700 419Z" fill="#00B050" fill-rule="evenodd" fill-opacity="1"/><path d="M1733 540C1733 535.582 1736.58 532 1741 532 1745.42 532 1749 535.582 1749 540 1749 544.418 1745.42 548 1741 548 1736.58 548 1733 544.418 1733 540Z" fill="#FF0000" fill-rule="evenodd" fill-opacity="1"/><path d="M1765 483C1765 478.582 1768.58 475 1773 475 1777.42 475 1781 478.582 1781 483 1781 487.418 1777.42 491 1773 491 1768.58 491 1765 487.418 1765 483Z" fill="#00B050" fill-rule="evenodd" fill-opacity="1"/><path d="M1652 440C1652 435.582 1655.58 432 1660 432 1664.42 432 1668 435.582 1668 440 1668 444.418 1664.42 448 1660 448 1655.58 448 1652 444.418 1652 440Z" fill="#00B050" fill-rule="evenodd" fill-opacity="1"/><path d="M1668 540.5C1668 535.806 1671.58 532 1676 532 1680.42 532 1684 535.806 1684 540.5 1684 545.194 1680.42 549 1676 549 1671.58 549 1668 545.194 1668 540.5Z" fill="#FF0000" fill-rule="evenodd" fill-opacity="1"/><path d="M1636 483C1636 478.582 1639.58 475 1644 475 1648.42 475 1652 478.582 1652 483 1652 487.418 1648.42 491 1644 491 1639.58 491 1636 487.418 1636 483Z" fill="#00B050" fill-rule="evenodd" fill-opacity="1"/><path d="M1689 592.5C1689 581.73 1697.51 573 1708 573 1718.49 573 1727 581.73 1727 592.5 1727 603.269 1718.49 612 1708 612 1697.51 612 1689 603.269 1689 592.5Z" fill="#4F81BD" fill-rule="evenodd" fill-opacity="1"/><path d="M0 0 0.149049 57.7464" stroke="#4F81BD" stroke-width="13.75" stroke-linecap="butt" stroke-linejoin="round" stroke-miterlimit="10" stroke-opacity="1" fill="none" fill-rule="evenodd" transform="matrix(-1 0 0 1 1708.15 519)"/><path d="M1748 440C1748 435.582 1751.58 432 1756 432 1760.42 432 1764 435.582 1764 440 1764 444.418 1760.42 448 1756 448 1751.58 448 1748 444.418 1748 440Z" fill="#00B050" fill-rule="evenodd" fill-opacity="1"/></g></g></svg>