<svg width="2869" height="1472" xmlns="http://www.w3.org/2000/svg" xmlns:xlink="http://www.w3.org/1999/xlink" xml:space="preserve" overflow="hidden"><g transform="translate(-646 -462)"><g><rect x="1418.5" y="1156.5" width="655" height="216" stroke="#385D8A" stroke-width="9.16667" stroke-linecap="butt" stroke-linejoin="round" stroke-miterlimit="10" stroke-opacity="1" fill="#D9D9D9" fill-opacity="1"/><text fill="#000000" fill-opacity="1" font-family="Arial,Arial_MSFontService,sans-serif" font-style="normal" font-variant="normal" font-weight="400" font-stretch="normal" font-size="55" text-anchor="start" direction="ltr" writing-mode="lr-tb" unicode-bidi="normal" text-decoration="none" transform="matrix(1 0 0 1 1538.11 1251)">User Data Mover</text><text fill="#000000" fill-opacity="1" font-family="Arial,Arial_MSFontService,sans-serif" font-style="normal" font-variant="normal" font-weight="400" font-stretch="normal" font-size="55" text-anchor="start" direction="ltr" writing-mode="lr-tb" unicode-bidi="normal" text-decoration="none" transform="matrix(1 0 0 1 1486.27 1317)">(Allocated</text><text fill="#000000" fill-opacity="1" font-family="Arial,Arial_MSFontService,sans-serif" font-style="normal" font-variant="normal" font-weight="400" font-stretch="normal" font-size="55" text-anchor="start" direction="ltr" writing-mode="lr-tb" unicode-bidi="normal" text-decoration="none" transform="matrix(1 0 0 1 1745.23 1317)">by</text><text fill="#000000" fill-opacity="1" font-family="Arial,Arial_MSFontService,sans-serif" font-style="normal" font-variant="normal" font-weight="400" font-stretch="normal" font-size="55" text-anchor="start" direction="ltr" writing-mode="lr-tb" unicode-bidi="normal" text-decoration="none" transform="matrix(1 0 0 1 1818.56 1317)">Master</text><text fill="#000000" fill-opacity="1" font-family="Arial,Arial_MSFontService,sans-serif" font-style="normal" font-variant="normal" font-weight="400" font-stretch="normal" font-size="55" text-anchor="start" direction="ltr" writing-mode="lr-tb" unicode-bidi="normal" text-decoration="none" transform="matrix(1 0 0 1 1986.43 1317)">)</text><rect x="1282.5" y="1692.5" width="656" height="216" stroke="#385D8A" stroke-width="9.16667" stroke-linecap="butt" stroke-linejoin="round" stroke-miterlimit="10" stroke-opacity="1" fill="#8EB4E3" fill-opacity="1"/><text fill="#000000" fill-opacity="1" font-family="Arial,Arial_MSFontService,sans-serif" font-style="normal" font-variant="normal" font-weight="400" font-stretch="normal" font-size="73" text-anchor="start" direction="ltr" writing-mode="lr-tb" unicode-bidi="normal" text-decoration="none" transform="matrix(1 0 0 1 1315.33 1783)">Master</text><text fill="#000000" fill-opacity="1" font-family="Arial,Arial_MSFontService,sans-serif" font-style="normal" font-variant="normal" font-weight="400" font-stretch="normal" font-size="73" text-anchor="start" direction="ltr" writing-mode="lr-tb" unicode-bidi="normal" text-decoration="none" transform="matrix(1 0 0 1 1315.33 1871)">Server</text><rect x="2489.5" y="1565.5" width="655" height="216" stroke="#385D8A" stroke-width="9.16667" stroke-linecap="butt" stroke-linejoin="round" stroke-miterlimit="10" stroke-opacity="1" fill="#D9D9D9" fill-opacity="1"/><text fill="#000000" fill-opacity="1" font-family="Arial,Arial_MSFontService,sans-serif" font-style="normal" font-variant="normal" font-weight="400" font-stretch="normal" font-size="55" text-anchor="start" direction="ltr" writing-mode="lr-tb" unicode-bidi="normal" text-decoration="none" transform="matrix(1 0 0 1 2590.76 1660)">Target Data Mover</text><text fill="#000000" fill-opacity="1" font-family="Arial,Arial_MSFontService,sans-serif" font-style="normal" font-variant="normal" font-weight="400" font-stretch="normal" font-size="55" text-anchor="start" direction="ltr" writing-mode="lr-tb" unicode-bidi="normal" text-decoration="none" transform="matrix(1 0 0 1 2557.34 1726)">(Allocated by Master)</text><path d="M1605.92 1692.11 1605.92 1458.97C1605.92 1456.44 1607.97 1454.39 1610.5 1454.39L1745.84 1454.39 1741.26 1458.97 1741.26 1413.75 1750.43 1413.75 1750.43 1458.97C1750.43 1461.5 1748.38 1463.55 1745.84 1463.55L1610.5 1463.55 1615.08 1458.97 1615.08 1692.11ZM1722.93 1418.33 1745.84 1372.5 1768.76 1418.33Z" fill="#4F81BD" fill-rule="nonzero" fill-opacity="1"/><path d="M2073.5 1259.92 2325.2 1259.92C2327.73 1259.92 2329.78 1261.97 2329.78 1264.5L2329.78 1673.55 2325.2 1668.96 2447.65 1668.96 2447.65 1678.13 2325.2 1678.13C2322.67 1678.13 2320.61 1676.08 2320.61 1673.55L2320.61 1264.5 2325.2 1269.08 2073.5 1269.08ZM2443.06 1650.63 2488.9 1673.55 2443.06 1696.46Z" fill="#4F81BD" fill-rule="nonzero" fill-opacity="1"/><text fill="#0070C0" fill-opacity="1" font-family="Arial,Arial_MSFontService,sans-serif" font-style="normal" font-variant="normal" font-weight="400" font-stretch="normal" font-size="55" text-anchor="start" direction="ltr" writing-mode="lr-tb" unicode-bidi="normal" text-decoration="none" transform="matrix(1 0 0 1 1643.72 1538)">(1)</text><text fill="#0070C0" fill-opacity="1" font-family="Arial,Arial_MSFontService,sans-serif" font-style="normal" font-variant="normal" font-weight="400" font-stretch="normal" font-size="83" text-anchor="start" direction="ltr" writing-mode="lr-tb" unicode-bidi="normal" text-decoration="none" transform="matrix(1 0 0 1 1733.67 1563)">Mover </text><text fill="#0070C0" fill-opacity="1" font-family="Arial,Arial_MSFontService,sans-serif" font-style="normal" font-variant="normal" font-weight="400" font-stretch="normal" font-size="83" text-anchor="start" direction="ltr" writing-mode="lr-tb" unicode-bidi="normal" text-decoration="none" transform="matrix(1 0 0 1 1981.19 1563)">Addr</text><text fill="#0070C0" fill-opacity="1" font-family="Arial,Arial_MSFontService,sans-serif" font-style="normal" font-variant="normal" font-weight="400" font-stretch="normal" font-size="83" text-anchor="start" direction="ltr" writing-mode="lr-tb" unicode-bidi="normal" text-decoration="none" transform="matrix(1 0 0 1 2150.8 1563)">. &amp; </text><text fill="#0070C0" fill-opacity="1" font-family="Arial,Arial_MSFontService,sans-serif" font-style="normal" font-variant="normal" font-weight="400" font-stretch="normal" font-size="83" text-anchor="start" direction="ltr" writing-mode="lr-tb" unicode-bidi="normal" text-decoration="none" transform="matrix(1 0 0 1 1643.72 1662)">ID</text><text fill="#0070C0" fill-opacity="1" font-family="Arial,Arial_MSFontService,sans-serif" font-style="normal" font-variant="normal" font-weight="400" font-stretch="normal" font-size="55" text-anchor="start" direction="ltr" writing-mode="lr-tb" unicode-bidi="normal" text-decoration="none" transform="matrix(1 0 0 1 2353.12 1337)">(2)</text><text fill="#0070C0" fill-opacity="1" font-family="Arial,Arial_MSFontService,sans-serif" font-style="normal" font-variant="normal" font-weight="400" font-stretch="normal" font-size="83" text-anchor="start" direction="ltr" writing-mode="lr-tb" unicode-bidi="normal" text-decoration="none" transform="matrix(1 0 0 1 2443.06 1362)">ID</text><path d="M0-4.58333 176.844-4.58333C179.376-4.58333 181.428-2.53131 181.428 0L181.428 475.246 176.844 470.663 312.438 470.663 312.438 479.83 176.844 479.83C174.313 479.83 172.261 477.777 172.261 475.246L172.261 0 176.844 4.58333 0 4.58333ZM307.855 452.33 353.688 475.246 307.855 498.163Z" fill="#4F81BD" fill-rule="nonzero" fill-opacity="1" transform="matrix(1 0 0 -1 2073.5 1052.75)"/><rect x="1418.5" y="944.5" width="655" height="217" stroke="#385D8A" stroke-width="9.16667" stroke-linecap="butt" stroke-linejoin="round" stroke-miterlimit="10" stroke-opacity="1" fill="#D9D9D9" fill-opacity="1"/><text fill="#000000" fill-opacity="1" font-family="Arial,Arial_MSFontService,sans-serif" font-style="normal" font-variant="normal" font-weight="400" font-stretch="normal" font-size="55" text-anchor="start" direction="ltr" writing-mode="lr-tb" unicode-bidi="normal" text-decoration="none" transform="matrix(1 0 0 1 1451.61 1039)">ftp, sftp, https, s3, azure </text><text fill="#000000" fill-opacity="1" font-family="Arial,Arial_MSFontService,sans-serif" font-style="normal" font-variant="normal" font-weight="400" font-stretch="normal" font-size="55" text-anchor="start" direction="ltr" writing-mode="lr-tb" unicode-bidi="normal" text-decoration="none" transform="matrix(1 0 0 1 1591.4 1105)">&amp; gcs clients</text><rect x="2427.5" y="469.5" width="656" height="216" stroke="#385D8A" stroke-width="9.16667" stroke-linecap="butt" stroke-linejoin="round" stroke-miterlimit="10" stroke-opacity="1" fill="#FCD5B5" fill-opacity="1"/><text fill="#000000" fill-opacity="1" font-family="Arial,Arial_MSFontService,sans-serif" font-style="normal" font-variant="normal" font-weight="400" font-stretch="normal" font-size="55" text-anchor="start" direction="ltr" writing-mode="lr-tb" unicode-bidi="normal" text-decoration="none" transform="matrix(1 0 0 1 2460.97 564)">ftp, sftp, https, s3, azure </text><text fill="#000000" fill-opacity="1" font-family="Arial,Arial_MSFontService,sans-serif" font-style="normal" font-variant="normal" font-weight="400" font-stretch="normal" font-size="55" text-anchor="start" direction="ltr" writing-mode="lr-tb" unicode-bidi="normal" text-decoration="none" transform="matrix(1 0 0 1 2588.46 630)">&amp; gcs servers</text><path d="M0-4.58333 403.961-4.58333C406.492-4.58333 408.544-2.53131 408.544 0L408.544 701.984 399.377 701.984 399.377 0 403.961 4.58333 0 4.58333ZM426.877 697.401 403.961 743.234 381.044 697.401Z" fill="#4F81BD" fill-rule="nonzero" fill-opacity="1" transform="matrix(-1.83697e-16 -1 -1 1.83697e-16 2816.73 1565.46)"/><text fill="#0070C0" fill-opacity="1" font-family="Arial,Arial_MSFontService,sans-serif" font-style="normal" font-variant="normal" font-weight="400" font-stretch="normal" font-size="55" text-anchor="start" direction="ltr" writing-mode="lr-tb" unicode-bidi="normal" text-decoration="none" transform="matrix(1 0 0 1 2840.93 1233)">(3)</text><text fill="#0070C0" fill-opacity="1" font-family="Arial,Arial_MSFontService,sans-serif" font-style="normal" font-variant="normal" font-weight="400" font-stretch="normal" font-size="83" text-anchor="start" direction="ltr" writing-mode="lr-tb" unicode-bidi="normal" text-decoration="none" transform="matrix(1 0 0 1 2930.87 1258)">F</text><text fill="#0070C0" fill-opacity="1" font-family="Arial,Arial_MSFontService,sans-serif" font-style="normal" font-variant="normal" font-weight="400" font-stretch="normal" font-size="83" text-anchor="start" direction="ltr" writing-mode="lr-tb" unicode-bidi="normal" text-decoration="none" transform="matrix(1 0 0 1 2981.29 1258)">ile</text><text fill="#0070C0" fill-opacity="1" font-family="Arial,Arial_MSFontService,sans-serif" font-style="normal" font-variant="normal" font-weight="400" font-stretch="normal" font-size="83" text-anchor="start" direction="ltr" writing-mode="lr-tb" unicode-bidi="normal" text-decoration="none" transform="matrix(1 0 0 1 2840.93 1357)">Content</text><text fill="#0070C0" fill-opacity="1" font-family="Arial,Arial_MSFontService,sans-serif" font-style="normal" font-variant="normal" font-weight="400" font-stretch="normal" font-size="55" text-anchor="start" direction="ltr" writing-mode="lr-tb" unicode-bidi="normal" text-decoration="none" transform="matrix(1 0 0 1 2272.88 891)">(4)</text><text fill="#0070C0" fill-opacity="1" font-family="Arial,Arial_MSFontService,sans-serif" font-style="normal" font-variant="normal" font-weight="400" font-stretch="normal" font-size="83" text-anchor="start" direction="ltr" writing-mode="lr-tb" unicode-bidi="normal" text-decoration="none" transform="matrix(1 0 0 1 2362.83 916)">F</text><text fill="#0070C0" fill-opacity="1" font-family="Arial,Arial_MSFontService,sans-serif" font-style="normal" font-variant="normal" font-weight="400" font-stretch="normal" font-size="83" text-anchor="start" direction="ltr" writing-mode="lr-tb" unicode-bidi="normal" text-decoration="none" transform="matrix(1 0 0 1 2413.25 916)">ile</text><text fill="#0070C0" fill-opacity="1" font-family="Arial,Arial_MSFontService,sans-serif" font-style="normal" font-variant="normal" font-weight="400" font-stretch="normal" font-size="83" text-anchor="start" direction="ltr" writing-mode="lr-tb" unicode-bidi="normal" text-decoration="none" transform="matrix(1 0 0 1 2272.88 1015)">Content</text><path d="M650.5 1250.5 1306.5 1250.5 1306.5 1528.5 650.5 1528.5ZM685.25 1285.25 685.25 1493.75 1271.75 1493.75 1271.75 1285.25Z" stroke="#FF0000" stroke-width="3.4375" stroke-linecap="butt" stroke-linejoin="round" stroke-miterlimit="10" stroke-opacity="1" fill="#FF0000" fill-rule="evenodd" fill-opacity="1"/><text fill="#FF0000" fill-opacity="1" font-family="Arial,Arial_MSFontService,sans-serif" font-style="normal" font-variant="normal" font-weight="400" font-stretch="normal" font-size="83" text-anchor="start" direction="ltr" writing-mode="lr-tb" unicode-bidi="normal" text-decoration="none" transform="matrix(1 0 0 1 719.312 1370)">Dissemination </text><text fill="#FF0000" fill-opacity="1" font-family="Arial,Arial_MSFontService,sans-serif" font-style="normal" font-variant="normal" font-weight="400" font-stretch="normal" font-size="83" text-anchor="start" direction="ltr" writing-mode="lr-tb" unicode-bidi="normal" text-decoration="none" transform="matrix(1 0 0 1 792.645 1469)">Scheduler</text><path d="M0-4.58333 271.473-4.58333C274.005-4.58333 276.057-2.53131 276.057 0L276.057 262.813 266.89 262.813 266.89 0 271.473 4.58333 0 4.58333ZM294.39 258.23 271.473 304.063 248.557 258.23Z" fill="#FF0000" fill-rule="nonzero" fill-opacity="1" transform="matrix(1.83697e-16 1 1 -1.83697e-16 978.5 1528.5)"/><text fill="#FF0000" fill-opacity="1" font-family="Arial,Arial_MSFontService,sans-serif" font-style="normal" font-variant="normal" font-weight="400" font-stretch="normal" font-size="55" text-anchor="start" direction="ltr" writing-mode="lr-tb" unicode-bidi="normal" text-decoration="none" transform="matrix(1 0 0 1 1014.67 1614)">(0)</text><text fill="#FF0000" fill-opacity="1" font-family="Arial,Arial_MSFontService,sans-serif" font-style="normal" font-variant="normal" font-weight="400" font-stretch="normal" font-size="83" text-anchor="start" direction="ltr" writing-mode="lr-tb" unicode-bidi="normal" text-decoration="none" transform="matrix(1 0 0 1 1104.61 1639)">trigger</text><g><g><g><path d="M164.667 39C164.667 48.5729 137.505 56.3333 104 56.3333 70.4947 56.3333 43.3333 48.5729 43.3333 39 43.3333 29.4271 70.4947 21.6667 104 21.6667 137.505 21.6667 164.667 29.4271 164.667 39Z" fill="#000000" fill-rule="nonzero" fill-opacity="1" transform="matrix(1.23558 0 0 1 1678 1695)"/><path d="M147.333 82.3333C144.733 82.3333 143 80.6 143 78 143 75.4 144.733 73.6667 147.333 73.6667 149.933 73.6667 151.667 75.4 151.667 78 151.667 80.6 149.933 82.3333 147.333 82.3333ZM104 65C70.6333 65 43.3333 57.2 43.3333 47.6667L43.3333 82.3333C43.3333 91.8667 70.6333 99.6666 104 99.6666 137.367 99.6666 164.667 91.8667 164.667 82.3333L164.667 47.6667C164.667 57.2 137.367 65 104 65Z" fill="#000000" fill-rule="nonzero" fill-opacity="1" transform="matrix(1.23558 0 0 1 1678 1695)"/><path d="M147.333 125.667C144.733 125.667 143 123.933 143 121.333 143 118.733 144.733 117 147.333 117 149.933 117 151.667 118.733 151.667 121.333 151.667 123.933 149.933 125.667 147.333 125.667ZM104 108.333C70.6333 108.333 43.3333 100.533 43.3333 91L43.3333 125.667C43.3333 135.2 70.6333 143 104 143 137.367 143 164.667 135.2 164.667 125.667L164.667 91C164.667 100.533 137.367 108.333 104 108.333Z" fill="#000000" fill-rule="nonzero" fill-opacity="1" transform="matrix(1.23558 0 0 1 1678 1695)"/><path d="M147.333 169C144.733 169 143 167.267 143 164.667 143 162.067 144.733 160.333 147.333 160.333 149.933 160.333 151.667 162.067 151.667 164.667 151.667 167.267 149.933 169 147.333 169ZM104 151.667C70.6333 151.667 43.3333 143.867 43.3333 134.333L43.3333 169C43.3333 178.533 70.6333 186.333 104 186.333 137.367 186.333 164.667 178.533 164.667 169L164.667 134.333C164.667 143.867 137.367 151.667 104 151.667Z" fill="#000000" fill-rule="nonzero" fill-opacity="1" transform="matrix(1.23558 0 0 1 1678 1695)"/></g></g></g></g></g></svg>