<svg width="2873" height="1444" xmlns="http://www.w3.org/2000/svg" xmlns:xlink="http://www.w3.org/1999/xlink" xml:space="preserve" overflow="hidden"><g transform="translate(-660 -481)"><g><rect x="1432.5" y="1147.5" width="655" height="216" stroke="#385D8A" stroke-width="9.16667" stroke-linecap="butt" stroke-linejoin="round" stroke-miterlimit="10" stroke-opacity="1" fill="#D9D9D9" fill-opacity="1"/><text fill="#000000" fill-opacity="1" font-family="Arial,Arial_MSFontService,sans-serif" font-style="normal" font-variant="normal" font-weight="400" font-stretch="normal" font-size="55" text-anchor="start" direction="ltr" writing-mode="lr-tb" unicode-bidi="normal" text-decoration="none" transform="matrix(1 0 0 1 1552.15 1242)">User Data Mover</text><text fill="#000000" fill-opacity="1" font-family="Arial,Arial_MSFontService,sans-serif" font-style="normal" font-variant="normal" font-weight="400" font-stretch="normal" font-size="55" text-anchor="start" direction="ltr" writing-mode="lr-tb" unicode-bidi="normal" text-decoration="none" transform="matrix(1 0 0 1 1500.32 1308)">(Allocated by </text><text fill="#000000" fill-opacity="1" font-family="Arial,Arial_MSFontService,sans-serif" font-style="normal" font-variant="normal" font-weight="400" font-stretch="normal" font-size="55" text-anchor="start" direction="ltr" writing-mode="lr-tb" unicode-bidi="normal" text-decoration="none" transform="matrix(1 0 0 1 1832.61 1308)">Master)</text><rect x="1296.5" y="1683.5" width="656" height="216" stroke="#385D8A" stroke-width="9.16667" stroke-linecap="butt" stroke-linejoin="round" stroke-miterlimit="10" stroke-opacity="1" fill="#8EB4E3" fill-opacity="1"/><text fill="#000000" fill-opacity="1" font-family="Arial,Arial_MSFontService,sans-serif" font-style="normal" font-variant="normal" font-weight="400" font-stretch="normal" font-size="73" text-anchor="start" direction="ltr" writing-mode="lr-tb" unicode-bidi="normal" text-decoration="none" transform="matrix(1 0 0 1 1329.38 1774)">Master</text><text fill="#000000" fill-opacity="1" font-family="Arial,Arial_MSFontService,sans-serif" font-style="normal" font-variant="normal" font-weight="400" font-stretch="normal" font-size="73" text-anchor="start" direction="ltr" writing-mode="lr-tb" unicode-bidi="normal" text-decoration="none" transform="matrix(1 0 0 1 1329.38 1862)">Server</text><rect x="2503.5" y="1556.5" width="655" height="216" stroke="#385D8A" stroke-width="9.16667" stroke-linecap="butt" stroke-linejoin="round" stroke-miterlimit="10" stroke-opacity="1" fill="#D9D9D9" fill-opacity="1"/><text fill="#000000" fill-opacity="1" font-family="Arial,Arial_MSFontService,sans-serif" font-style="normal" font-variant="normal" font-weight="400" font-stretch="normal" font-size="55" text-anchor="start" direction="ltr" writing-mode="lr-tb" unicode-bidi="normal" text-decoration="none" transform="matrix(1 0 0 1 2604.8 1651)">Target Data Mover</text><text fill="#000000" fill-opacity="1" font-family="Arial,Arial_MSFontService,sans-serif" font-style="normal" font-variant="normal" font-weight="400" font-stretch="normal" font-size="55" text-anchor="start" direction="ltr" writing-mode="lr-tb" unicode-bidi="normal" text-decoration="none" transform="matrix(1 0 0 1 2571.39 1717)">(Allocated by Master)</text><path d="M1619.92 1683.11 1619.92 1449.97C1619.92 1447.44 1621.97 1445.39 1624.5 1445.39L1759.84 1445.39 1755.26 1449.97 1755.26 1404.75 1764.43 1404.75 1764.43 1449.97C1764.43 1452.5 1762.38 1454.55 1759.84 1454.55L1624.5 1454.55 1629.08 1449.97 1629.08 1683.11ZM1736.93 1409.33 1759.84 1363.5 1782.76 1409.33Z" fill="#4F81BD" fill-rule="nonzero" fill-opacity="1"/><path d="M2087.5 1250.92 2339.2 1250.92C2341.73 1250.92 2343.78 1252.97 2343.78 1255.5L2343.78 1664.55 2339.2 1659.96 2461.65 1659.96 2461.65 1669.13 2339.2 1669.13C2336.67 1669.13 2334.61 1667.08 2334.61 1664.55L2334.61 1255.5 2339.2 1260.08 2087.5 1260.08ZM2457.06 1641.63 2502.9 1664.55 2457.06 1687.46Z" fill="#4F81BD" fill-rule="nonzero" fill-opacity="1"/><text fill="#0070C0" fill-opacity="1" font-family="Arial,Arial_MSFontService,sans-serif" font-style="normal" font-variant="normal" font-weight="400" font-stretch="normal" font-size="55" text-anchor="start" direction="ltr" writing-mode="lr-tb" unicode-bidi="normal" text-decoration="none" transform="matrix(1 0 0 1 1644.84 1515)">(1)</text><text fill="#0070C0" fill-opacity="1" font-family="Arial,Arial_MSFontService,sans-serif" font-style="normal" font-variant="normal" font-weight="400" font-stretch="normal" font-size="83" text-anchor="start" direction="ltr" writing-mode="lr-tb" unicode-bidi="normal" text-decoration="none" transform="matrix(1 0 0 1 1734.79 1540)">Mover </text><text fill="#0070C0" fill-opacity="1" font-family="Arial,Arial_MSFontService,sans-serif" font-style="normal" font-variant="normal" font-weight="400" font-stretch="normal" font-size="83" text-anchor="start" direction="ltr" writing-mode="lr-tb" unicode-bidi="normal" text-decoration="none" transform="matrix(1 0 0 1 1982.31 1540)">Addr</text><text fill="#0070C0" fill-opacity="1" font-family="Arial,Arial_MSFontService,sans-serif" font-style="normal" font-variant="normal" font-weight="400" font-stretch="normal" font-size="83" text-anchor="start" direction="ltr" writing-mode="lr-tb" unicode-bidi="normal" text-decoration="none" transform="matrix(1 0 0 1 2151.92 1540)">. &amp; </text><text fill="#0070C0" fill-opacity="1" font-family="Arial,Arial_MSFontService,sans-serif" font-style="normal" font-variant="normal" font-weight="400" font-stretch="normal" font-size="83" text-anchor="start" direction="ltr" writing-mode="lr-tb" unicode-bidi="normal" text-decoration="none" transform="matrix(1 0 0 1 1644.84 1639)">ID</text><text fill="#0070C0" fill-opacity="1" font-family="Arial,Arial_MSFontService,sans-serif" font-style="normal" font-variant="normal" font-weight="400" font-stretch="normal" font-size="55" text-anchor="start" direction="ltr" writing-mode="lr-tb" unicode-bidi="normal" text-decoration="none" transform="matrix(1 0 0 1 2363.53 1306)">(2)</text><text fill="#0070C0" fill-opacity="1" font-family="Arial,Arial_MSFontService,sans-serif" font-style="normal" font-variant="normal" font-weight="400" font-stretch="normal" font-size="83" text-anchor="start" direction="ltr" writing-mode="lr-tb" unicode-bidi="normal" text-decoration="none" transform="matrix(1 0 0 1 2453.48 1331)">ID</text><path d="M0-4.58333 86.2102-4.58333C88.7415-4.58333 90.7935-2.53131 90.7935 0L90.7935 447.359 86.2102 442.775 131.17 442.775 131.17 451.942 86.2102 451.942C83.6788 451.942 81.6268 449.89 81.6268 447.359L81.6268 0 86.2102 4.58333 0 4.58333ZM126.587 424.442 172.42 447.359 126.587 470.275Z" fill="#4F81BD" fill-rule="nonzero" fill-opacity="1" transform="matrix(1 0 0 -1 2087.5 1044.86)"/><rect x="1432.5" y="936.5" width="655" height="216" stroke="#385D8A" stroke-width="9.16667" stroke-linecap="butt" stroke-linejoin="round" stroke-miterlimit="10" stroke-opacity="1" fill="#D9D9D9" fill-opacity="1"/><text fill="#000000" fill-opacity="1" font-family="Arial,Arial_MSFontService,sans-serif" font-style="normal" font-variant="normal" font-weight="400" font-stretch="normal" font-size="55" text-anchor="start" direction="ltr" writing-mode="lr-tb" unicode-bidi="normal" text-decoration="none" transform="matrix(1 0 0 1 1465.65 1031)">ftp, sftp, https, s3, azure </text><text fill="#000000" fill-opacity="1" font-family="Arial,Arial_MSFontService,sans-serif" font-style="normal" font-variant="normal" font-weight="400" font-stretch="normal" font-size="55" text-anchor="start" direction="ltr" writing-mode="lr-tb" unicode-bidi="normal" text-decoration="none" transform="matrix(1 0 0 1 1605.45 1097)">&amp; gcs clients</text><rect x="2260.5" y="488.5" width="655" height="217" stroke="#385D8A" stroke-width="9.16667" stroke-linecap="butt" stroke-linejoin="round" stroke-miterlimit="10" stroke-opacity="1" fill="#FCD5B5" fill-opacity="1"/><text fill="#000000" fill-opacity="1" font-family="Arial,Arial_MSFontService,sans-serif" font-style="normal" font-variant="normal" font-weight="400" font-stretch="normal" font-size="55" text-anchor="start" direction="ltr" writing-mode="lr-tb" unicode-bidi="normal" text-decoration="none" transform="matrix(1 0 0 1 2293.75 584)">ftp, sftp, https, s3, azure </text><text fill="#000000" fill-opacity="1" font-family="Arial,Arial_MSFontService,sans-serif" font-style="normal" font-variant="normal" font-weight="400" font-stretch="normal" font-size="55" text-anchor="start" direction="ltr" writing-mode="lr-tb" unicode-bidi="normal" text-decoration="none" transform="matrix(1 0 0 1 2421.24 650)">&amp; gcs servers</text><path d="M2087.5 1147.92 2830.73 1147.92C2833.27 1147.92 2835.32 1149.97 2835.32 1152.5L2835.32 1515.21 2826.15 1515.21 2826.15 1152.5 2830.73 1157.08 2087.5 1157.08ZM2853.65 1510.63 2830.73 1556.46 2807.82 1510.63Z" fill="#4F81BD" fill-rule="nonzero" fill-opacity="1"/><text fill="#0070C0" fill-opacity="1" font-family="Arial,Arial_MSFontService,sans-serif" font-style="normal" font-variant="normal" font-weight="400" font-stretch="normal" font-size="55" text-anchor="start" direction="ltr" writing-mode="lr-tb" unicode-bidi="normal" text-decoration="none" transform="matrix(1 0 0 1 2855.99 1205)">(4)</text><text fill="#0070C0" fill-opacity="1" font-family="Arial,Arial_MSFontService,sans-serif" font-style="normal" font-variant="normal" font-weight="400" font-stretch="normal" font-size="83" text-anchor="start" direction="ltr" writing-mode="lr-tb" unicode-bidi="normal" text-decoration="none" transform="matrix(1 0 0 1 2945.94 1230)">F</text><text fill="#0070C0" fill-opacity="1" font-family="Arial,Arial_MSFontService,sans-serif" font-style="normal" font-variant="normal" font-weight="400" font-stretch="normal" font-size="83" text-anchor="start" direction="ltr" writing-mode="lr-tb" unicode-bidi="normal" text-decoration="none" transform="matrix(1 0 0 1 2996.35 1230)">ile</text><text fill="#0070C0" fill-opacity="1" font-family="Arial,Arial_MSFontService,sans-serif" font-style="normal" font-variant="normal" font-weight="400" font-stretch="normal" font-size="83" text-anchor="start" direction="ltr" writing-mode="lr-tb" unicode-bidi="normal" text-decoration="none" transform="matrix(1 0 0 1 2855.99 1329)">Content</text><text fill="#0070C0" fill-opacity="1" font-family="Arial,Arial_MSFontService,sans-serif" font-style="normal" font-variant="normal" font-weight="400" font-stretch="normal" font-size="55" text-anchor="start" direction="ltr" writing-mode="lr-tb" unicode-bidi="normal" text-decoration="none" transform="matrix(1 0 0 1 2194.99 981)">(3)</text><text fill="#0070C0" fill-opacity="1" font-family="Arial,Arial_MSFontService,sans-serif" font-style="normal" font-variant="normal" font-weight="400" font-stretch="normal" font-size="83" text-anchor="start" direction="ltr" writing-mode="lr-tb" unicode-bidi="normal" text-decoration="none" transform="matrix(1 0 0 1 2284.94 1006)">F</text><text fill="#0070C0" fill-opacity="1" font-family="Arial,Arial_MSFontService,sans-serif" font-style="normal" font-variant="normal" font-weight="400" font-stretch="normal" font-size="83" text-anchor="start" direction="ltr" writing-mode="lr-tb" unicode-bidi="normal" text-decoration="none" transform="matrix(1 0 0 1 2335.35 1006)">ile Content </text><text fill="#0070C0" fill-opacity="1" font-family="Arial,Arial_MSFontService,sans-serif" font-style="normal" font-variant="normal" font-weight="400" font-stretch="normal" font-size="83" text-anchor="start" direction="ltr" writing-mode="lr-tb" unicode-bidi="normal" text-decoration="none" transform="matrix(1 0 0 1 2194.99 1105)">Req.</text><path d="M664.5 1242.5 1320.5 1242.5 1320.5 1520.5 664.5 1520.5ZM699.25 1277.25 699.25 1485.75 1285.75 1485.75 1285.75 1277.25Z" stroke="#FF0000" stroke-width="3.4375" stroke-linecap="butt" stroke-linejoin="round" stroke-miterlimit="10" stroke-opacity="1" fill="#FF0000" fill-rule="evenodd" fill-opacity="1"/><text fill="#FF0000" fill-opacity="1" font-family="Arial,Arial_MSFontService,sans-serif" font-style="normal" font-variant="normal" font-weight="400" font-stretch="normal" font-size="83" text-anchor="start" direction="ltr" writing-mode="lr-tb" unicode-bidi="normal" text-decoration="none" transform="matrix(1 0 0 1 829.607 1362)">Retrieval </text><text fill="#FF0000" fill-opacity="1" font-family="Arial,Arial_MSFontService,sans-serif" font-style="normal" font-variant="normal" font-weight="400" font-stretch="normal" font-size="83" text-anchor="start" direction="ltr" writing-mode="lr-tb" unicode-bidi="normal" text-decoration="none" transform="matrix(1 0 0 1 806.69 1461)">Scheduler</text><path d="M0-4.58333 271.473-4.58333C274.005-4.58333 276.057-2.53131 276.057 0L276.057 262.813 266.89 262.813 266.89 0 271.473 4.58333 0 4.58333ZM294.39 258.23 271.473 304.063 248.557 258.23Z" fill="#FF0000" fill-rule="nonzero" fill-opacity="1" transform="matrix(1.83697e-16 1 1 -1.83697e-16 992.5 1520.5)"/><text fill="#FF0000" fill-opacity="1" font-family="Arial,Arial_MSFontService,sans-serif" font-style="normal" font-variant="normal" font-weight="400" font-stretch="normal" font-size="55" text-anchor="start" direction="ltr" writing-mode="lr-tb" unicode-bidi="normal" text-decoration="none" transform="matrix(1 0 0 1 1015.78 1596)">(0)</text><text fill="#FF0000" fill-opacity="1" font-family="Arial,Arial_MSFontService,sans-serif" font-style="normal" font-variant="normal" font-weight="400" font-stretch="normal" font-size="83" text-anchor="start" direction="ltr" writing-mode="lr-tb" unicode-bidi="normal" text-decoration="none" transform="matrix(1 0 0 1 1105.73 1621)">trigger</text><path d="M2831.5 1557.02 2831.5 1038.4 2998.86 1038.4 2998.86 597.5 2916.36 597.5" stroke="#4F81BD" stroke-width="4.58333" stroke-linecap="butt" stroke-linejoin="round" stroke-miterlimit="10" stroke-dasharray="18.3333 13.75" stroke-opacity="1" fill="none" fill-rule="evenodd"/><g><g><g><path d="M165.458 39.1875C165.458 48.8065 138.166 56.6042 104.5 56.6042 70.8336 56.6042 43.5417 48.8065 43.5417 39.1875 43.5417 29.5685 70.8336 21.7708 104.5 21.7708 138.166 21.7708 165.458 29.5685 165.458 39.1875Z" fill="#000000" fill-rule="nonzero" fill-opacity="1" transform="matrix(1.22966 0 0 1 1698 1684)"/><path d="M148.042 82.7292C145.429 82.7292 143.688 80.9875 143.688 78.375 143.688 75.7625 145.429 74.0208 148.042 74.0208 150.654 74.0208 152.396 75.7625 152.396 78.375 152.396 80.9875 150.654 82.7292 148.042 82.7292ZM104.5 65.3125C70.9729 65.3125 43.5417 57.475 43.5417 47.8958L43.5417 82.7292C43.5417 92.3083 70.9729 100.146 104.5 100.146 138.027 100.146 165.458 92.3083 165.458 82.7292L165.458 47.8958C165.458 57.475 138.027 65.3125 104.5 65.3125Z" fill="#000000" fill-rule="nonzero" fill-opacity="1" transform="matrix(1.22966 0 0 1 1698 1684)"/><path d="M148.042 126.271C145.429 126.271 143.688 124.529 143.688 121.917 143.688 119.304 145.429 117.562 148.042 117.562 150.654 117.562 152.396 119.304 152.396 121.917 152.396 124.529 150.654 126.271 148.042 126.271ZM104.5 108.854C70.9729 108.854 43.5417 101.017 43.5417 91.4375L43.5417 126.271C43.5417 135.85 70.9729 143.688 104.5 143.688 138.027 143.688 165.458 135.85 165.458 126.271L165.458 91.4375C165.458 101.017 138.027 108.854 104.5 108.854Z" fill="#000000" fill-rule="nonzero" fill-opacity="1" transform="matrix(1.22966 0 0 1 1698 1684)"/><path d="M148.042 169.812C145.429 169.812 143.688 168.071 143.688 165.458 143.688 162.846 145.429 161.104 148.042 161.104 150.654 161.104 152.396 162.846 152.396 165.458 152.396 168.071 150.654 169.812 148.042 169.812ZM104.5 152.396C70.9729 152.396 43.5417 144.558 43.5417 134.979L43.5417 169.812C43.5417 179.392 70.9729 187.229 104.5 187.229 138.027 187.229 165.458 179.392 165.458 169.812L165.458 134.979C165.458 144.558 138.027 152.396 104.5 152.396Z" fill="#000000" fill-rule="nonzero" fill-opacity="1" transform="matrix(1.22966 0 0 1 1698 1684)"/></g></g></g></g></g></svg>