<svg width="2516" height="1009" xmlns="http://www.w3.org/2000/svg" xmlns:xlink="http://www.w3.org/1999/xlink" xml:space="preserve" overflow="hidden"><g transform="translate(-536 -1003)"><g><rect x="1380.5" y="1041.5" width="656" height="216" stroke="#385D8A" stroke-width="9.16667" stroke-linecap="butt" stroke-linejoin="round" stroke-miterlimit="10" stroke-opacity="1" fill="#D9D9D9" fill-opacity="1"/><text fill="#000000" fill-opacity="1" font-family="Arial,Arial_MSFontService,sans-serif" font-style="normal" font-variant="normal" font-weight="400" font-stretch="normal" font-size="55" text-anchor="start" direction="ltr" writing-mode="lr-tb" unicode-bidi="normal" text-decoration="none" transform="matrix(1 0 0 1 1471.87 1169)">Source </text><text fill="#000000" fill-opacity="1" font-family="Arial,Arial_MSFontService,sans-serif" font-style="normal" font-variant="normal" font-weight="400" font-stretch="normal" font-size="55" text-anchor="start" direction="ltr" writing-mode="lr-tb" unicode-bidi="normal" text-decoration="none" transform="matrix(1 0 0 1 1660.93 1169)">Data </text><text fill="#000000" fill-opacity="1" font-family="Arial,Arial_MSFontService,sans-serif" font-style="normal" font-variant="normal" font-weight="400" font-stretch="normal" font-size="55" text-anchor="start" direction="ltr" writing-mode="lr-tb" unicode-bidi="normal" text-decoration="none" transform="matrix(1 0 0 1 1792.13 1169)">Mover</text><rect x="1184.5" y="1633.5" width="656" height="217" stroke="#385D8A" stroke-width="9.16667" stroke-linecap="butt" stroke-linejoin="round" stroke-miterlimit="10" stroke-opacity="1" fill="#B9CDE5" fill-opacity="1"/><text fill="#000000" fill-opacity="1" font-family="Arial,Arial_MSFontService,sans-serif" font-style="normal" font-variant="normal" font-weight="400" font-stretch="normal" font-size="73" text-anchor="start" direction="ltr" writing-mode="lr-tb" unicode-bidi="normal" text-decoration="none" transform="matrix(1 0 0 1 1216.99 1724)">Master</text><text fill="#000000" fill-opacity="1" font-family="Arial,Arial_MSFontService,sans-serif" font-style="normal" font-variant="normal" font-weight="400" font-stretch="normal" font-size="73" text-anchor="start" direction="ltr" writing-mode="lr-tb" unicode-bidi="normal" text-decoration="none" transform="matrix(1 0 0 1 1216.99 1812)">Server</text><rect x="2390.5" y="1506.5" width="656" height="217" stroke="#385D8A" stroke-width="9.16667" stroke-linecap="butt" stroke-linejoin="round" stroke-miterlimit="10" stroke-opacity="1" fill="#D9D9D9" fill-opacity="1"/><text fill="#000000" fill-opacity="1" font-family="Arial,Arial_MSFontService,sans-serif" font-style="normal" font-variant="normal" font-weight="400" font-stretch="normal" font-size="55" text-anchor="start" direction="ltr" writing-mode="lr-tb" unicode-bidi="normal" text-decoration="none" transform="matrix(1 0 0 1 2492.41 1601)">Target Data </text><text fill="#000000" fill-opacity="1" font-family="Arial,Arial_MSFontService,sans-serif" font-style="normal" font-variant="normal" font-weight="400" font-stretch="normal" font-size="55" text-anchor="start" direction="ltr" writing-mode="lr-tb" unicode-bidi="normal" text-decoration="none" transform="matrix(1 0 0 1 2791.68 1601)">Mover</text><text fill="#000000" fill-opacity="1" font-family="Arial,Arial_MSFontService,sans-serif" font-style="normal" font-variant="normal" font-weight="400" font-stretch="normal" font-size="55" text-anchor="start" direction="ltr" writing-mode="lr-tb" unicode-bidi="normal" text-decoration="none" transform="matrix(1 0 0 1 2594.48 1667)">(</text><text fill="#000000" fill-opacity="1" font-family="Arial,Arial_MSFontService,sans-serif" font-style="normal" font-variant="normal" font-weight="400" font-stretch="normal" font-size="55" text-anchor="start" direction="ltr" writing-mode="lr-tb" unicode-bidi="normal" text-decoration="none" transform="matrix(1 0 0 1 2612.81 1667)">DissFTP</text><text fill="#000000" fill-opacity="1" font-family="Arial,Arial_MSFontService,sans-serif" font-style="normal" font-variant="normal" font-weight="400" font-stretch="normal" font-size="55" text-anchor="start" direction="ltr" writing-mode="lr-tb" unicode-bidi="normal" text-decoration="none" transform="matrix(1 0 0 1 2823.65 1667)">)</text><path d="M1839.96 1737.16 1922.46 1737.16 1917.88 1741.74 1917.88 1445.52 1922.46 1450.1 1708.5 1450.1C1705.97 1450.1 1703.92 1448.05 1703.92 1445.52L1703.92 1298.75 1713.08 1298.75 1713.08 1445.52 1708.5 1440.94 1922.46 1440.94C1925 1440.94 1927.05 1442.99 1927.05 1445.52L1927.05 1741.74C1927.05 1744.27 1925 1746.33 1922.46 1746.33L1839.96 1746.33ZM1685.58 1303.33 1708.5 1257.5 1731.42 1303.33Z" fill="#4F81BD" fill-rule="nonzero" fill-opacity="1"/><path d="M2036.5 1144.92 2213.68 1144.92C2216.21 1144.92 2218.27 1146.97 2218.27 1149.5L2218.27 1614.98 2213.68 1610.4 2349.62 1610.4 2349.62 1619.56 2213.68 1619.56C2211.15 1619.56 2209.1 1617.51 2209.1 1614.98L2209.1 1149.5 2213.68 1154.08 2036.5 1154.08ZM2345.03 1592.06 2390.87 1614.98 2345.03 1637.9Z" fill="#4F81BD" fill-rule="nonzero" fill-opacity="1"/><text fill="#0070C0" fill-opacity="1" font-family="Arial,Arial_MSFontService,sans-serif" font-style="normal" font-variant="normal" font-weight="400" font-stretch="normal" font-size="55" text-anchor="start" direction="ltr" writing-mode="lr-tb" unicode-bidi="normal" text-decoration="none" transform="matrix(1 0 0 1 1864.58 1818)">(1)</text><text fill="#0070C0" fill-opacity="1" font-family="Arial,Arial_MSFontService,sans-serif" font-style="normal" font-variant="normal" font-weight="400" font-stretch="normal" font-size="83" text-anchor="start" direction="ltr" writing-mode="lr-tb" unicode-bidi="normal" text-decoration="none" transform="matrix(1 0 0 1 1953.04 1843)">Target </text><text fill="#0070C0" fill-opacity="1" font-family="Arial,Arial_MSFontService,sans-serif" font-style="normal" font-variant="normal" font-weight="400" font-stretch="normal" font-size="83" text-anchor="start" direction="ltr" writing-mode="lr-tb" unicode-bidi="normal" text-decoration="none" transform="matrix(1 0 0 1 2205.15 1843)">Mover </text><text fill="#0070C0" fill-opacity="1" font-family="Arial,Arial_MSFontService,sans-serif" font-style="normal" font-variant="normal" font-weight="400" font-stretch="normal" font-size="83" text-anchor="start" direction="ltr" writing-mode="lr-tb" unicode-bidi="normal" text-decoration="none" transform="matrix(1 0 0 1 1864.58 1942)">Addr</text><text fill="#0070C0" fill-opacity="1" font-family="Arial,Arial_MSFontService,sans-serif" font-style="normal" font-variant="normal" font-weight="400" font-stretch="normal" font-size="83" text-anchor="start" direction="ltr" writing-mode="lr-tb" unicode-bidi="normal" text-decoration="none" transform="matrix(1 0 0 1 2034.19 1942)">. &amp; ID</text><text fill="#0070C0" fill-opacity="1" font-family="Arial,Arial_MSFontService,sans-serif" font-style="normal" font-variant="normal" font-weight="400" font-stretch="normal" font-size="55" text-anchor="start" direction="ltr" writing-mode="lr-tb" unicode-bidi="normal" text-decoration="none" transform="matrix(1 0 0 1 2069.16 1085)">(2)</text><text fill="#0070C0" fill-opacity="1" font-family="Arial,Arial_MSFontService,sans-serif" font-style="normal" font-variant="normal" font-weight="400" font-stretch="normal" font-size="83" text-anchor="start" direction="ltr" writing-mode="lr-tb" unicode-bidi="normal" text-decoration="none" transform="matrix(1 0 0 1 2159.11 1110)">File </text><text fill="#0070C0" fill-opacity="1" font-family="Arial,Arial_MSFontService,sans-serif" font-style="normal" font-variant="normal" font-weight="400" font-stretch="normal" font-size="83" text-anchor="start" direction="ltr" writing-mode="lr-tb" unicode-bidi="normal" text-decoration="none" transform="matrix(1 0 0 1 2314.94 1110)">Content</text><path d="M1380.5 1154.08 1298 1154.08 1302.58 1149.5 1302.58 1445.72 1298 1441.14 1511.96 1441.14C1514.5 1441.14 1516.55 1443.19 1516.55 1445.72L1516.55 1592.49 1507.38 1592.49 1507.38 1445.72 1511.96 1450.3 1298 1450.3C1295.47 1450.3 1293.42 1448.25 1293.42 1445.72L1293.42 1149.5C1293.42 1146.97 1295.47 1144.92 1298 1144.92L1380.5 1144.92ZM1534.88 1587.91 1511.96 1633.74 1489.05 1587.91Z" fill="#4F81BD" fill-rule="nonzero" fill-opacity="1"/><text fill="#0070C0" fill-opacity="1" font-family="Arial,Arial_MSFontService,sans-serif" font-style="normal" font-variant="normal" font-weight="400" font-stretch="normal" font-size="55" text-anchor="start" direction="ltr" writing-mode="lr-tb" unicode-bidi="normal" text-decoration="none" transform="matrix(1 0 0 1 1108.04 1085)">(3)</text><text fill="#0070C0" fill-opacity="1" font-family="Arial,Arial_MSFontService,sans-serif" font-style="normal" font-variant="normal" font-weight="400" font-stretch="normal" font-size="83" text-anchor="start" direction="ltr" writing-mode="lr-tb" unicode-bidi="normal" text-decoration="none" transform="matrix(1 0 0 1 1193.43 1110)">Ack</text><text fill="#0070C0" fill-opacity="1" font-family="Arial,Arial_MSFontService,sans-serif" font-style="normal" font-variant="normal" font-weight="400" font-stretch="normal" font-size="83" text-anchor="start" direction="ltr" writing-mode="lr-tb" unicode-bidi="normal" text-decoration="none" transform="matrix(1 0 0 1 1330.93 1110)">.</text><g><g><g><path d="M164.667 39C164.667 48.5729 137.505 56.3333 104 56.3333 70.4947 56.3333 43.3333 48.5729 43.3333 39 43.3333 29.4271 70.4947 21.6667 104 21.6667 137.505 21.6667 164.667 29.4271 164.667 39Z" fill="#000000" fill-rule="nonzero" fill-opacity="1" transform="matrix(1.23558 0 0 1 1580 1638)"/><path d="M147.333 82.3333C144.733 82.3333 143 80.6 143 78 143 75.4 144.733 73.6667 147.333 73.6667 149.933 73.6667 151.667 75.4 151.667 78 151.667 80.6 149.933 82.3333 147.333 82.3333ZM104 65C70.6333 65 43.3333 57.2 43.3333 47.6667L43.3333 82.3333C43.3333 91.8667 70.6333 99.6666 104 99.6666 137.367 99.6666 164.667 91.8667 164.667 82.3333L164.667 47.6667C164.667 57.2 137.367 65 104 65Z" fill="#000000" fill-rule="nonzero" fill-opacity="1" transform="matrix(1.23558 0 0 1 1580 1638)"/><path d="M147.333 125.667C144.733 125.667 143 123.933 143 121.333 143 118.733 144.733 117 147.333 117 149.933 117 151.667 118.733 151.667 121.333 151.667 123.933 149.933 125.667 147.333 125.667ZM104 108.333C70.6333 108.333 43.3333 100.533 43.3333 91L43.3333 125.667C43.3333 135.2 70.6333 143 104 143 137.367 143 164.667 135.2 164.667 125.667L164.667 91C164.667 100.533 137.367 108.333 104 108.333Z" fill="#000000" fill-rule="nonzero" fill-opacity="1" transform="matrix(1.23558 0 0 1 1580 1638)"/><path d="M147.333 169C144.733 169 143 167.267 143 164.667 143 162.067 144.733 160.333 147.333 160.333 149.933 160.333 151.667 162.067 151.667 164.667 151.667 167.267 149.933 169 147.333 169ZM104 151.667C70.6333 151.667 43.3333 143.867 43.3333 134.333L43.3333 169C43.3333 178.533 70.6333 186.333 104 186.333 137.367 186.333 164.667 178.533 164.667 169L164.667 134.333C164.667 143.867 137.367 151.667 104 151.667Z" fill="#000000" fill-rule="nonzero" fill-opacity="1" transform="matrix(1.23558 0 0 1 1580 1638)"/></g></g></g><path d="M539.5 1187.5 1194.5 1187.5 1194.5 1465.5 539.5 1465.5ZM574.25 1222.25 574.25 1430.75 1159.75 1430.75 1159.75 1222.25Z" stroke="#FF0000" stroke-width="3.4375" stroke-linecap="butt" stroke-linejoin="round" stroke-miterlimit="10" stroke-opacity="1" fill="#FF0000" fill-rule="evenodd" fill-opacity="1"/><text fill="#FF0000" fill-opacity="1" font-family="Arial,Arial_MSFontService,sans-serif" font-style="normal" font-variant="normal" font-weight="400" font-stretch="normal" font-size="83" text-anchor="start" direction="ltr" writing-mode="lr-tb" unicode-bidi="normal" text-decoration="none" transform="matrix(1 0 0 1 662.695 1307)">Replication </text><text fill="#FF0000" fill-opacity="1" font-family="Arial,Arial_MSFontService,sans-serif" font-style="normal" font-variant="normal" font-weight="400" font-stretch="normal" font-size="83" text-anchor="start" direction="ltr" writing-mode="lr-tb" unicode-bidi="normal" text-decoration="none" transform="matrix(1 0 0 1 681.028 1406)">Scheduler</text><path d="M0-4.58333 276.173-4.58333C278.705-4.58333 280.757-2.53131 280.757 0L280.757 276.085 271.59 276.085 271.59 0 276.173 4.58333 0 4.58333ZM299.09 271.501 276.173 317.335 253.257 271.501Z" fill="#FF0000" fill-rule="nonzero" fill-opacity="1" transform="matrix(1.83697e-16 1 1 -1.83697e-16 867.5 1465.5)"/><text fill="#FF0000" fill-opacity="1" font-family="Arial,Arial_MSFontService,sans-serif" font-style="normal" font-variant="normal" font-weight="400" font-stretch="normal" font-size="55" text-anchor="start" direction="ltr" writing-mode="lr-tb" unicode-bidi="normal" text-decoration="none" transform="matrix(1 0 0 1 901.288 1540)">(0)</text><text fill="#FF0000" fill-opacity="1" font-family="Arial,Arial_MSFontService,sans-serif" font-style="normal" font-variant="normal" font-weight="400" font-stretch="normal" font-size="83" text-anchor="start" direction="ltr" writing-mode="lr-tb" unicode-bidi="normal" text-decoration="none" transform="matrix(1 0 0 1 991.235 1565)">trigger</text></g></g></svg>