<svg width="2242" height="1544" xmlns="http://www.w3.org/2000/svg" xmlns:xlink="http://www.w3.org/1999/xlink" xml:space="preserve" overflow="hidden"><g transform="translate(-815 -550)"><g><rect x="1319.5" y="1097.5" width="656" height="217" stroke="#385D8A" stroke-width="9.16667" stroke-linecap="butt" stroke-linejoin="round" stroke-miterlimit="10" stroke-opacity="1" fill="#D9D9D9" fill-opacity="1"/><text fill="#000000" fill-opacity="1" font-family="Arial,Arial_MSFontService,sans-serif" font-style="normal" font-variant="normal" font-weight="400" font-stretch="normal" font-size="55" text-anchor="start" direction="ltr" writing-mode="lr-tb" unicode-bidi="normal" text-decoration="none" transform="matrix(1 0 0 1 1439.76 1192)">User Data Mover</text><text fill="#000000" fill-opacity="1" font-family="Arial,Arial_MSFontService,sans-serif" font-style="normal" font-variant="normal" font-weight="400" font-stretch="normal" font-size="55" text-anchor="start" direction="ltr" writing-mode="lr-tb" unicode-bidi="normal" text-decoration="none" transform="matrix(1 0 0 1 1438.34 1258)">(Allocated by LB)</text><rect x="1184.5" y="1633.5" width="656" height="217" stroke="#385D8A" stroke-width="9.16667" stroke-linecap="butt" stroke-linejoin="round" stroke-miterlimit="10" stroke-opacity="1" fill="#B9CDE5" fill-opacity="1"/><text fill="#000000" fill-opacity="1" font-family="Arial,Arial_MSFontService,sans-serif" font-style="normal" font-variant="normal" font-weight="400" font-stretch="normal" font-size="73" text-anchor="start" direction="ltr" writing-mode="lr-tb" unicode-bidi="normal" text-decoration="none" transform="matrix(1 0 0 1 1216.99 1724)">Master</text><text fill="#000000" fill-opacity="1" font-family="Arial,Arial_MSFontService,sans-serif" font-style="normal" font-variant="normal" font-weight="400" font-stretch="normal" font-size="73" text-anchor="start" direction="ltr" writing-mode="lr-tb" unicode-bidi="normal" text-decoration="none" transform="matrix(1 0 0 1 1216.99 1812)">Server</text><rect x="2390.5" y="1506.5" width="656" height="217" stroke="#385D8A" stroke-width="9.16667" stroke-linecap="butt" stroke-linejoin="round" stroke-miterlimit="10" stroke-opacity="1" fill="#D9D9D9" fill-opacity="1"/><text fill="#000000" fill-opacity="1" font-family="Arial,Arial_MSFontService,sans-serif" font-style="normal" font-variant="normal" font-weight="400" font-stretch="normal" font-size="55" text-anchor="start" direction="ltr" writing-mode="lr-tb" unicode-bidi="normal" text-decoration="none" transform="matrix(1 0 0 1 2492.41 1601)">Target Data Mover</text><text fill="#000000" fill-opacity="1" font-family="Arial,Arial_MSFontService,sans-serif" font-style="normal" font-variant="normal" font-weight="400" font-stretch="normal" font-size="55" text-anchor="start" direction="ltr" writing-mode="lr-tb" unicode-bidi="normal" text-decoration="none" transform="matrix(1 0 0 1 2459 1667)">(Allocated by Master)</text><path d="M0-4.58333 217.844-4.58333C220.375-4.58333 222.427-2.53131 222.427 0L222.427 536.004C222.427 538.535 220.375 540.587 217.844 540.587L176.594 540.587 176.594 531.421 217.844 531.421 213.26 536.004 213.26 0 217.844 4.58333 0 4.58333ZM181.177 558.921 135.344 536.004 181.177 513.087Z" fill="#4F81BD" fill-rule="nonzero" fill-opacity="1" transform="matrix(-1 1.22465e-16 1.22465e-16 1 1319.84 1205.5)"/><path d="M1507.92 1634.11 1507.92 1400.97C1507.92 1398.44 1509.97 1396.39 1512.5 1396.39L1647.84 1396.39 1643.26 1400.97 1643.26 1355.75 1652.43 1355.75 1652.43 1400.97C1652.43 1403.5 1650.38 1405.55 1647.84 1405.55L1512.5 1405.55 1517.08 1400.97 1517.08 1634.11ZM1624.93 1360.33 1647.84 1314.5 1670.76 1360.33Z" fill="#4F81BD" fill-rule="nonzero" fill-opacity="1"/><path d="M1975.5 1200.92 2183.2 1200.92C2185.73 1200.92 2187.78 1202.97 2187.78 1205.5L2187.78 1614.55 2183.2 1609.96 2349.65 1609.96 2349.65 1619.13 2183.2 1619.13C2180.67 1619.13 2178.61 1617.08 2178.61 1614.55L2178.61 1205.5 2183.2 1210.08 1975.5 1210.08ZM2345.06 1591.63 2390.9 1614.55 2345.06 1637.46Z" fill="#4F81BD" fill-rule="nonzero" fill-opacity="1"/><text fill="#0070C0" fill-opacity="1" font-family="Arial,Arial_MSFontService,sans-serif" font-style="normal" font-variant="normal" font-weight="400" font-stretch="normal" font-size="83" text-anchor="start" direction="ltr" writing-mode="lr-tb" unicode-bidi="normal" text-decoration="none" transform="matrix(1 0 0 1 866.821 1149)">Metadata</text><text fill="#0070C0" fill-opacity="1" font-family="Arial,Arial_MSFontService,sans-serif" font-style="normal" font-variant="normal" font-weight="400" font-stretch="normal" font-size="55" text-anchor="start" direction="ltr" writing-mode="lr-tb" unicode-bidi="normal" text-decoration="none" transform="matrix(1 0 0 1 1226.04 1124)">(2)</text><text fill="#0070C0" fill-opacity="1" font-family="Arial,Arial_MSFontService,sans-serif" font-style="normal" font-variant="normal" font-weight="400" font-stretch="normal" font-size="55" text-anchor="start" direction="ltr" writing-mode="lr-tb" unicode-bidi="normal" text-decoration="none" transform="matrix(1 0 0 1 1555.69 1479)">(3)</text><text fill="#0070C0" fill-opacity="1" font-family="Arial,Arial_MSFontService,sans-serif" font-style="normal" font-variant="normal" font-weight="400" font-stretch="normal" font-size="83" text-anchor="start" direction="ltr" writing-mode="lr-tb" unicode-bidi="normal" text-decoration="none" transform="matrix(1 0 0 1 1645.64 1504)">Mover </text><text fill="#0070C0" fill-opacity="1" font-family="Arial,Arial_MSFontService,sans-serif" font-style="normal" font-variant="normal" font-weight="400" font-stretch="normal" font-size="83" text-anchor="start" direction="ltr" writing-mode="lr-tb" unicode-bidi="normal" text-decoration="none" transform="matrix(1 0 0 1 1893.16 1504)">Addr</text><text fill="#0070C0" fill-opacity="1" font-family="Arial,Arial_MSFontService,sans-serif" font-style="normal" font-variant="normal" font-weight="400" font-stretch="normal" font-size="83" text-anchor="start" direction="ltr" writing-mode="lr-tb" unicode-bidi="normal" text-decoration="none" transform="matrix(1 0 0 1 2062.77 1504)">. </text><text fill="#0070C0" fill-opacity="1" font-family="Arial,Arial_MSFontService,sans-serif" font-style="normal" font-variant="normal" font-weight="400" font-stretch="normal" font-size="83" text-anchor="start" direction="ltr" writing-mode="lr-tb" unicode-bidi="normal" text-decoration="none" transform="matrix(1 0 0 1 1555.69 1603)">&amp; ID</text><text fill="#0070C0" fill-opacity="1" font-family="Arial,Arial_MSFontService,sans-serif" font-style="normal" font-variant="normal" font-weight="400" font-stretch="normal" font-size="55" text-anchor="start" direction="ltr" writing-mode="lr-tb" unicode-bidi="normal" text-decoration="none" transform="matrix(1 0 0 1 2215.58 1328)">(4)</text><text fill="#0070C0" fill-opacity="1" font-family="Arial,Arial_MSFontService,sans-serif" font-style="normal" font-variant="normal" font-weight="400" font-stretch="normal" font-size="83" text-anchor="start" direction="ltr" writing-mode="lr-tb" unicode-bidi="normal" text-decoration="none" transform="matrix(1 0 0 1 2305.53 1353)">ID &amp; </text><text fill="#0070C0" fill-opacity="1" font-family="Arial,Arial_MSFontService,sans-serif" font-style="normal" font-variant="normal" font-weight="400" font-stretch="normal" font-size="83" text-anchor="start" direction="ltr" writing-mode="lr-tb" unicode-bidi="normal" text-decoration="none" transform="matrix(1 0 0 1 2488.86 1353)">File </text><text fill="#0070C0" fill-opacity="1" font-family="Arial,Arial_MSFontService,sans-serif" font-style="normal" font-variant="normal" font-weight="400" font-stretch="normal" font-size="83" text-anchor="start" direction="ltr" writing-mode="lr-tb" unicode-bidi="normal" text-decoration="none" transform="matrix(1 0 0 1 2215.58 1452)">Content</text><path d="M2723.5 1723.5 2723.5 1932.96C2723.5 1935.49 2721.45 1937.54 2718.92 1937.54L1512.5 1937.54C1509.97 1937.54 1507.92 1935.49 1507.92 1932.96L1507.92 1891.71 1517.08 1891.71 1517.08 1932.96 1512.5 1928.38 2718.92 1928.38 2714.33 1932.96 2714.33 1723.5ZM1489.58 1896.29 1512.5 1850.46 1535.42 1896.29Z" fill="#4F81BD" fill-rule="nonzero" fill-opacity="1"/><text fill="#0070C0" fill-opacity="1" font-family="Arial,Arial_MSFontService,sans-serif" font-style="normal" font-variant="normal" font-weight="400" font-stretch="normal" font-size="55" text-anchor="start" direction="ltr" writing-mode="lr-tb" unicode-bidi="normal" text-decoration="none" transform="matrix(1 0 0 1 1971.42 2000)">(5)</text><text fill="#0070C0" fill-opacity="1" font-family="Arial,Arial_MSFontService,sans-serif" font-style="normal" font-variant="normal" font-weight="400" font-stretch="normal" font-size="83" text-anchor="start" direction="ltr" writing-mode="lr-tb" unicode-bidi="normal" text-decoration="none" transform="matrix(1 0 0 1 2056.81 2025)">Ack</text><text fill="#0070C0" fill-opacity="1" font-family="Arial,Arial_MSFontService,sans-serif" font-style="normal" font-variant="normal" font-weight="400" font-stretch="normal" font-size="83" text-anchor="start" direction="ltr" writing-mode="lr-tb" unicode-bidi="normal" text-decoration="none" transform="matrix(1 0 0 1 2194.31 2025)">.</text><rect x="1319.5" y="886.5" width="656" height="216" stroke="#385D8A" stroke-width="9.16667" stroke-linecap="butt" stroke-linejoin="round" stroke-miterlimit="10" stroke-opacity="1" fill="#D9D9D9" fill-opacity="1"/><text fill="#000000" fill-opacity="1" font-family="Arial,Arial_MSFontService,sans-serif" font-style="normal" font-variant="normal" font-weight="400" font-stretch="normal" font-size="55" text-anchor="start" direction="ltr" writing-mode="lr-tb" unicode-bidi="normal" text-decoration="none" transform="matrix(1 0 0 1 1463.26 981)">ftp, sftp</text><text fill="#000000" fill-opacity="1" font-family="Arial,Arial_MSFontService,sans-serif" font-style="normal" font-variant="normal" font-weight="400" font-stretch="normal" font-size="55" text-anchor="start" direction="ltr" writing-mode="lr-tb" unicode-bidi="normal" text-decoration="none" transform="matrix(1 0 0 1 1659.77 981)">&amp;</text><text fill="#000000" fill-opacity="1" font-family="Arial,Arial_MSFontService,sans-serif" font-style="normal" font-variant="normal" font-weight="400" font-stretch="normal" font-size="55" text-anchor="start" direction="ltr" writing-mode="lr-tb" unicode-bidi="normal" text-decoration="none" transform="matrix(1 0 0 1 1711.91 981)">https </text><text fill="#000000" fill-opacity="1" font-family="Arial,Arial_MSFontService,sans-serif" font-style="normal" font-variant="normal" font-weight="400" font-stretch="normal" font-size="55" text-anchor="start" direction="ltr" writing-mode="lr-tb" unicode-bidi="normal" text-decoration="none" transform="matrix(1 0 0 1 1534.6 1047)">daemons</text><rect x="2392.5" y="778.5" width="656" height="216" stroke="#385D8A" stroke-width="9.16667" stroke-linecap="butt" stroke-linejoin="round" stroke-miterlimit="10" stroke-opacity="1" fill="#FCD5B5" fill-opacity="1"/><text fill="#000000" fill-opacity="1" font-family="Arial,Arial_MSFontService,sans-serif" font-style="normal" font-variant="normal" font-weight="400" font-stretch="normal" font-size="55" text-anchor="start" direction="ltr" writing-mode="lr-tb" unicode-bidi="normal" text-decoration="none" transform="matrix(1 0 0 1 2433.73 873)">ftp, sftp,</text><text fill="#000000" fill-opacity="1" font-family="Arial,Arial_MSFontService,sans-serif" font-style="normal" font-variant="normal" font-weight="400" font-stretch="normal" font-size="55" text-anchor="start" direction="ltr" writing-mode="lr-tb" unicode-bidi="normal" text-decoration="none" transform="matrix(1 0 0 1 2645.7 873)">scp,</text><text fill="#000000" fill-opacity="1" font-family="Arial,Arial_MSFontService,sans-serif" font-style="normal" font-variant="normal" font-weight="400" font-stretch="normal" font-size="55" text-anchor="start" direction="ltr" writing-mode="lr-tb" unicode-bidi="normal" text-decoration="none" transform="matrix(1 0 0 1 2762.01 873)">https</text><text fill="#000000" fill-opacity="1" font-family="Arial,Arial_MSFontService,sans-serif" font-style="normal" font-variant="normal" font-weight="400" font-stretch="normal" font-size="55" text-anchor="start" direction="ltr" writing-mode="lr-tb" unicode-bidi="normal" text-decoration="none" transform="matrix(1 0 0 1 2896.64 873)">&amp; s3 </text><text fill="#000000" fill-opacity="1" font-family="Arial,Arial_MSFontService,sans-serif" font-style="normal" font-variant="normal" font-weight="400" font-stretch="normal" font-size="55" text-anchor="start" direction="ltr" writing-mode="lr-tb" unicode-bidi="normal" text-decoration="none" transform="matrix(1 0 0 1 2642.56 939)">clients</text><path d="M2715.93 778.5 2715.93 696 2720.51 700.584 1647.5 700.584 1652.08 696 1652.08 845.448 1642.92 845.448 1642.92 696C1642.92 693.469 1644.97 691.417 1647.5 691.417L2720.51 691.417C2723.05 691.417 2725.1 693.469 2725.1 696L2725.1 778.5ZM1670.42 840.865 1647.5 886.698 1624.58 840.865Z" fill="#4F81BD" fill-rule="nonzero" fill-opacity="1"/><text fill="#0070C0" fill-opacity="1" font-family="Arial,Arial_MSFontService,sans-serif" font-style="normal" font-variant="normal" font-weight="400" font-stretch="normal" font-size="55" text-anchor="start" direction="ltr" writing-mode="lr-tb" unicode-bidi="normal" text-decoration="none" transform="matrix(1 0 0 1 1647.72 634)">(1)</text><text fill="#0070C0" fill-opacity="1" font-family="Arial,Arial_MSFontService,sans-serif" font-style="normal" font-variant="normal" font-weight="400" font-stretch="normal" font-size="83" text-anchor="start" direction="ltr" writing-mode="lr-tb" unicode-bidi="normal" text-decoration="none" transform="matrix(1 0 0 1 1736.18 659)">T</text><text fill="#0070C0" fill-opacity="1" font-family="Arial,Arial_MSFontService,sans-serif" font-style="normal" font-variant="normal" font-weight="400" font-stretch="normal" font-size="83" text-anchor="start" direction="ltr" writing-mode="lr-tb" unicode-bidi="normal" text-decoration="none" transform="matrix(1 0 0 1 1777.45 659)">arget Filename &amp; Directory</text><path d="M0 0 745.176 0 745.176 211.312" stroke="#4F81BD" stroke-width="4.58333" stroke-linecap="butt" stroke-linejoin="round" stroke-miterlimit="10" stroke-dasharray="18.3333 13.75" stroke-opacity="1" fill="none" fill-rule="evenodd" transform="matrix(1 0 0 -1 1975.5 1205.81)"/><text fill="#0070C0" fill-opacity="1" font-family="Arial,Arial_MSFontService,sans-serif" font-style="normal" font-variant="normal" font-weight="400" font-stretch="normal" font-size="83" text-anchor="start" direction="ltr" writing-mode="lr-tb" unicode-bidi="normal" text-decoration="none" transform="matrix(1 0 0 1 1252.4 1599)">Ack</text><text fill="#0070C0" fill-opacity="1" font-family="Arial,Arial_MSFontService,sans-serif" font-style="normal" font-variant="normal" font-weight="400" font-stretch="normal" font-size="83" text-anchor="start" direction="ltr" writing-mode="lr-tb" unicode-bidi="normal" text-decoration="none" transform="matrix(1 0 0 1 1389.9 1599)">. </text><text fill="#0070C0" fill-opacity="1" font-family="Arial,Arial_MSFontService,sans-serif" font-style="normal" font-variant="normal" font-weight="400" font-stretch="normal" font-size="55" text-anchor="start" direction="ltr" writing-mode="lr-tb" unicode-bidi="normal" text-decoration="none" transform="matrix(1 0 0 1 1435.74 1574)">(6)</text><g><g><g><path d="M164.667 39C164.667 48.5729 137.505 56.3333 104 56.3333 70.4947 56.3333 43.3333 48.5729 43.3333 39 43.3333 29.4271 70.4947 21.6667 104 21.6667 137.505 21.6667 164.667 29.4271 164.667 39Z" fill="#000000" fill-rule="nonzero" fill-opacity="1" transform="matrix(1.23558 0 0 1 1580 1633)"/><path d="M147.333 82.3333C144.733 82.3333 143 80.6 143 78 143 75.4 144.733 73.6667 147.333 73.6667 149.933 73.6667 151.667 75.4 151.667 78 151.667 80.6 149.933 82.3333 147.333 82.3333ZM104 65C70.6333 65 43.3333 57.2 43.3333 47.6667L43.3333 82.3333C43.3333 91.8667 70.6333 99.6666 104 99.6666 137.367 99.6666 164.667 91.8667 164.667 82.3333L164.667 47.6667C164.667 57.2 137.367 65 104 65Z" fill="#000000" fill-rule="nonzero" fill-opacity="1" transform="matrix(1.23558 0 0 1 1580 1633)"/><path d="M147.333 125.667C144.733 125.667 143 123.933 143 121.333 143 118.733 144.733 117 147.333 117 149.933 117 151.667 118.733 151.667 121.333 151.667 123.933 149.933 125.667 147.333 125.667ZM104 108.333C70.6333 108.333 43.3333 100.533 43.3333 91L43.3333 125.667C43.3333 135.2 70.6333 143 104 143 137.367 143 164.667 135.2 164.667 125.667L164.667 91C164.667 100.533 137.367 108.333 104 108.333Z" fill="#000000" fill-rule="nonzero" fill-opacity="1" transform="matrix(1.23558 0 0 1 1580 1633)"/><path d="M147.333 169C144.733 169 143 167.267 143 164.667 143 162.067 144.733 160.333 147.333 160.333 149.933 160.333 151.667 162.067 151.667 164.667 151.667 167.267 149.933 169 147.333 169ZM104 151.667C70.6333 151.667 43.3333 143.867 43.3333 134.333L43.3333 169C43.3333 178.533 70.6333 186.333 104 186.333 137.367 186.333 164.667 178.533 164.667 169L164.667 134.333C164.667 143.867 137.367 151.667 104 151.667Z" fill="#000000" fill-rule="nonzero" fill-opacity="1" transform="matrix(1.23558 0 0 1 1580 1633)"/></g></g></g></g></g></svg>