<svg width="2429" height="1306" xmlns="http://www.w3.org/2000/svg" xmlns:xlink="http://www.w3.org/1999/xlink" xml:space="preserve" overflow="hidden"><g transform="translate(-994 -591)"><g><rect x="1475.5" y="817.5" width="655" height="216" stroke="#385D8A" stroke-width="9.16667" stroke-linecap="butt" stroke-linejoin="round" stroke-miterlimit="10" stroke-opacity="1" fill="#FCD5B5" fill-opacity="1"/><text fill="#000000" fill-opacity="1" font-family="Arial,Arial_MSFontService,sans-serif" font-style="normal" font-variant="normal" font-weight="400" font-stretch="normal" font-size="55" text-anchor="start" direction="ltr" writing-mode="lr-tb" unicode-bidi="normal" text-decoration="none" transform="matrix(1 0 0 1 1601.28 945)">ecpds command</text><g><g><g><path d="M164.667 39.0001C164.667 48.573 137.505 56.3334 104 56.3334 70.4948 56.3334 43.3334 48.573 43.3334 39.0001 43.3334 29.4271 70.4948 21.6667 104 21.6667 137.505 21.6667 164.667 29.4271 164.667 39.0001Z" fill="#000000" fill-rule="nonzero" fill-opacity="1" transform="matrix(1.23558 0 0 1 1284 1689)"/><path d="M147.334 82.3335C144.734 82.3335 143 80.6001 143 78.0001 143 75.4001 144.734 73.6668 147.334 73.6668 149.934 73.6668 151.667 75.4001 151.667 78.0001 151.667 80.6001 149.934 82.3335 147.334 82.3335ZM104 65.0001C70.6334 65.0001 43.3334 57.2001 43.3334 47.6667L43.3334 82.3335C43.3334 91.8668 70.6334 99.6668 104 99.6668 137.367 99.6668 164.667 91.8668 164.667 82.3335L164.667 47.6667C164.667 57.2001 137.367 65.0001 104 65.0001Z" fill="#000000" fill-rule="nonzero" fill-opacity="1" transform="matrix(1.23558 0 0 1 1284 1689)"/><path d="M147.334 125.667C144.734 125.667 143 123.934 143 121.334 143 118.734 144.734 117 147.334 117 149.934 117 151.667 118.734 151.667 121.334 151.667 123.934 149.934 125.667 147.334 125.667ZM104 108.334C70.6334 108.334 43.3334 100.533 43.3334 91.0001L43.3334 125.667C43.3334 135.2 70.6334 143 104 143 137.367 143 164.667 135.2 164.667 125.667L164.667 91.0001C164.667 100.533 137.367 108.334 104 108.334Z" fill="#000000" fill-rule="nonzero" fill-opacity="1" transform="matrix(1.23558 0 0 1 1284 1689)"/><path d="M147.334 169C144.734 169 143 167.267 143 164.667 143 162.067 144.734 160.334 147.334 160.334 149.934 160.334 151.667 162.067 151.667 164.667 151.667 167.267 149.934 169 147.334 169ZM104 151.667C70.6334 151.667 43.3334 143.867 43.3334 134.334L43.3334 169C43.3334 178.534 70.6334 186.334 104 186.334 137.367 186.334 164.667 178.534 164.667 169L164.667 134.334C164.667 143.867 137.367 151.667 104 151.667Z" fill="#000000" fill-rule="nonzero" fill-opacity="1" transform="matrix(1.23558 0 0 1 1284 1689)"/></g></g></g><rect x="1339.5" y="1444.5" width="656" height="217" stroke="#385D8A" stroke-width="9.16667" stroke-linecap="butt" stroke-linejoin="round" stroke-miterlimit="10" stroke-opacity="1" fill="#8EB4E3" fill-opacity="1"/><text fill="#000000" fill-opacity="1" font-family="Arial,Arial_MSFontService,sans-serif" font-style="normal" font-variant="normal" font-weight="400" font-stretch="normal" font-size="55" text-anchor="start" direction="ltr" writing-mode="lr-tb" unicode-bidi="normal" text-decoration="none" transform="matrix(1 0 0 1 1494.59 1572)">Master Server</text><rect x="2546.5" y="1226.5" width="655" height="216" stroke="#385D8A" stroke-width="9.16667" stroke-linecap="butt" stroke-linejoin="round" stroke-miterlimit="10" stroke-opacity="1" fill="#D9D9D9" fill-opacity="1"/><text fill="#000000" fill-opacity="1" font-family="Arial,Arial_MSFontService,sans-serif" font-style="normal" font-variant="normal" font-weight="400" font-stretch="normal" font-size="55" text-anchor="start" direction="ltr" writing-mode="lr-tb" unicode-bidi="normal" text-decoration="none" transform="matrix(1 0 0 1 2708.74 1354)">Mover Server</text><path d="M0-4.58333 217.844-4.58333C220.375-4.58333 222.427-2.53131 222.427 0L222.427 627.279C222.427 629.81 220.375 631.862 217.844 631.862L176.594 631.862 176.594 622.696 217.844 622.696 213.26 627.279 213.26 0 217.844 4.58333 0 4.58333ZM181.177 650.196 135.344 627.279 181.177 604.362Z" fill="#4F81BD" fill-rule="nonzero" fill-opacity="1" transform="matrix(-1 1.22465e-16 1.22465e-16 1 1474.84 925.5)"/><path d="M1662.92 1444.38 1662.92 1147.66C1662.92 1145.13 1664.97 1143.08 1667.5 1143.08L1802.84 1143.08 1798.26 1147.66 1798.26 1074.75 1807.43 1074.75 1807.43 1147.66C1807.43 1150.2 1805.38 1152.25 1802.84 1152.25L1667.5 1152.25 1672.08 1147.66 1672.08 1444.38ZM1779.93 1079.33 1802.84 1033.5 1825.76 1079.33Z" fill="#4F81BD" fill-rule="nonzero" fill-opacity="1"/><path d="M2130.5 920.917 2338.2 920.917C2340.73 920.917 2342.78 922.969 2342.78 925.5L2342.78 1334.55 2338.2 1329.96 2504.65 1329.96 2504.65 1339.13 2338.2 1339.13C2335.67 1339.13 2333.61 1337.08 2333.61 1334.55L2333.61 925.5 2338.2 930.083 2130.5 930.083ZM2500.06 1311.63 2545.9 1334.55 2500.06 1357.46Z" fill="#4F81BD" fill-rule="nonzero" fill-opacity="1"/><text fill="#0070C0" fill-opacity="1" font-family="Arial,Arial_MSFontService,sans-serif" font-style="normal" font-variant="normal" font-weight="400" font-stretch="normal" font-size="83" text-anchor="start" direction="ltr" writing-mode="lr-tb" unicode-bidi="normal" text-decoration="none" transform="matrix(1 0 0 1 1046.48 892)">M</text><text fill="#0070C0" fill-opacity="1" font-family="Arial,Arial_MSFontService,sans-serif" font-style="normal" font-variant="normal" font-weight="400" font-stretch="normal" font-size="83" text-anchor="start" direction="ltr" writing-mode="lr-tb" unicode-bidi="normal" text-decoration="none" transform="matrix(1 0 0 1 1115.23 892)">etadata</text><text fill="#0070C0" fill-opacity="1" font-family="Arial,Arial_MSFontService,sans-serif" font-style="normal" font-variant="normal" font-weight="400" font-stretch="normal" font-size="55" text-anchor="start" direction="ltr" writing-mode="lr-tb" unicode-bidi="normal" text-decoration="none" transform="matrix(1 0 0 1 1390.23 867)">(</text><text fill="#0070C0" fill-opacity="1" font-family="Arial,Arial_MSFontService,sans-serif" font-style="normal" font-variant="normal" font-weight="400" font-stretch="normal" font-size="55" text-anchor="start" direction="ltr" writing-mode="lr-tb" unicode-bidi="normal" text-decoration="none" transform="matrix(1 0 0 1 1408.56 867)">1</text><text fill="#0070C0" fill-opacity="1" font-family="Arial,Arial_MSFontService,sans-serif" font-style="normal" font-variant="normal" font-weight="400" font-stretch="normal" font-size="55" text-anchor="start" direction="ltr" writing-mode="lr-tb" unicode-bidi="normal" text-decoration="none" transform="matrix(1 0 0 1 1438.92 867)">)</text><text fill="#0070C0" fill-opacity="1" font-family="Arial,Arial_MSFontService,sans-serif" font-style="normal" font-variant="normal" font-weight="400" font-stretch="normal" font-size="55" text-anchor="start" direction="ltr" writing-mode="lr-tb" unicode-bidi="normal" text-decoration="none" transform="matrix(1 0 0 1 1682.29 1391)">(2)</text><text fill="#0070C0" fill-opacity="1" font-family="Arial,Arial_MSFontService,sans-serif" font-style="normal" font-variant="normal" font-weight="400" font-stretch="normal" font-size="83" text-anchor="start" direction="ltr" writing-mode="lr-tb" unicode-bidi="normal" text-decoration="none" transform="matrix(1 0 0 1 1772.23 1416)">Mover </text><text fill="#0070C0" fill-opacity="1" font-family="Arial,Arial_MSFontService,sans-serif" font-style="normal" font-variant="normal" font-weight="400" font-stretch="normal" font-size="83" text-anchor="start" direction="ltr" writing-mode="lr-tb" unicode-bidi="normal" text-decoration="none" transform="matrix(1 0 0 1 2024.32 1416)">addr</text><text fill="#0070C0" fill-opacity="1" font-family="Arial,Arial_MSFontService,sans-serif" font-style="normal" font-variant="normal" font-weight="400" font-stretch="normal" font-size="83" text-anchor="start" direction="ltr" writing-mode="lr-tb" unicode-bidi="normal" text-decoration="none" transform="matrix(1 0 0 1 2184.76 1416)">. &amp; I</text><text fill="#0070C0" fill-opacity="1" font-family="Arial,Arial_MSFontService,sans-serif" font-style="normal" font-variant="normal" font-weight="400" font-stretch="normal" font-size="83" text-anchor="start" direction="ltr" writing-mode="lr-tb" unicode-bidi="normal" text-decoration="none" transform="matrix(1 0 0 1 2331.42 1416)">D</text><text fill="#0070C0" fill-opacity="1" font-family="Arial,Arial_MSFontService,sans-serif" font-style="normal" font-variant="normal" font-weight="400" font-stretch="normal" font-size="55" text-anchor="start" direction="ltr" writing-mode="lr-tb" unicode-bidi="normal" text-decoration="none" transform="matrix(1 0 0 1 2146.11 875)">(3)</text><text fill="#0070C0" fill-opacity="1" font-family="Arial,Arial_MSFontService,sans-serif" font-style="normal" font-variant="normal" font-weight="400" font-stretch="normal" font-size="83" text-anchor="start" direction="ltr" writing-mode="lr-tb" unicode-bidi="normal" text-decoration="none" transform="matrix(1 0 0 1 2236.06 900)">I</text><text fill="#0070C0" fill-opacity="1" font-family="Arial,Arial_MSFontService,sans-serif" font-style="normal" font-variant="normal" font-weight="400" font-stretch="normal" font-size="83" text-anchor="start" direction="ltr" writing-mode="lr-tb" unicode-bidi="normal" text-decoration="none" transform="matrix(1 0 0 1 2258.97 900)">D</text><text fill="#0070C0" fill-opacity="1" font-family="Arial,Arial_MSFontService,sans-serif" font-style="normal" font-variant="normal" font-weight="400" font-stretch="normal" font-size="83" text-anchor="start" direction="ltr" writing-mode="lr-tb" unicode-bidi="normal" text-decoration="none" transform="matrix(1 0 0 1 2341.47 900)">&amp;</text><text fill="#0070C0" fill-opacity="1" font-family="Arial,Arial_MSFontService,sans-serif" font-style="normal" font-variant="normal" font-weight="400" font-stretch="normal" font-size="83" text-anchor="start" direction="ltr" writing-mode="lr-tb" unicode-bidi="normal" text-decoration="none" transform="matrix(1 0 0 1 2419.39 900)">file content</text><rect x="1475.5" y="598.5" width="655" height="217" stroke="#385D8A" stroke-width="9.16667" stroke-linecap="butt" stroke-linejoin="round" stroke-miterlimit="10" stroke-opacity="1" fill="#FCD5B5" fill-opacity="1"/><text fill="#000000" fill-opacity="1" font-family="Arial,Arial_MSFontService,sans-serif" font-style="normal" font-variant="normal" font-weight="400" font-stretch="normal" font-size="55" text-anchor="start" direction="ltr" writing-mode="lr-tb" unicode-bidi="normal" text-decoration="none" transform="matrix(1 0 0 1 1692.66 727)">Data File</text><path d="M2878.5 1442.5 2878.5 1743.23C2878.5 1745.76 2876.45 1747.82 2873.92 1747.82L1667.5 1747.82C1664.97 1747.82 1662.92 1745.76 1662.92 1743.23L1662.92 1701.98 1672.08 1701.98 1672.08 1743.23 1667.5 1738.65 2873.92 1738.65 2869.33 1743.23 2869.33 1442.5ZM1644.58 1706.57 1667.5 1660.73 1690.42 1706.57Z" fill="#4F81BD" fill-rule="nonzero" fill-opacity="1"/><text fill="#0070C0" fill-opacity="1" font-family="Arial,Arial_MSFontService,sans-serif" font-style="normal" font-variant="normal" font-weight="400" font-stretch="normal" font-size="83" text-anchor="start" direction="ltr" writing-mode="lr-tb" unicode-bidi="normal" text-decoration="none" transform="matrix(1 0 0 1 1399.73 1416)">Ack</text><text fill="#0070C0" fill-opacity="1" font-family="Arial,Arial_MSFontService,sans-serif" font-style="normal" font-variant="normal" font-weight="400" font-stretch="normal" font-size="83" text-anchor="start" direction="ltr" writing-mode="lr-tb" unicode-bidi="normal" text-decoration="none" transform="matrix(1 0 0 1 1537.23 1416)">. </text><text fill="#0070C0" fill-opacity="1" font-family="Arial,Arial_MSFontService,sans-serif" font-style="normal" font-variant="normal" font-weight="400" font-stretch="normal" font-size="55" text-anchor="start" direction="ltr" writing-mode="lr-tb" unicode-bidi="normal" text-decoration="none" transform="matrix(1 0 0 1 1583.06 1391)">(5)</text><text fill="#0070C0" fill-opacity="1" font-family="Arial,Arial_MSFontService,sans-serif" font-style="normal" font-variant="normal" font-weight="400" font-stretch="normal" font-size="83" text-anchor="start" direction="ltr" writing-mode="lr-tb" unicode-bidi="normal" text-decoration="none" transform="matrix(1 0 0 1 2609.48 1535)">Ack</text><text fill="#0070C0" fill-opacity="1" font-family="Arial,Arial_MSFontService,sans-serif" font-style="normal" font-variant="normal" font-weight="400" font-stretch="normal" font-size="83" text-anchor="start" direction="ltr" writing-mode="lr-tb" unicode-bidi="normal" text-decoration="none" transform="matrix(1 0 0 1 2746.98 1535)">. </text><text fill="#0070C0" fill-opacity="1" font-family="Arial,Arial_MSFontService,sans-serif" font-style="normal" font-variant="normal" font-weight="400" font-stretch="normal" font-size="55" text-anchor="start" direction="ltr" writing-mode="lr-tb" unicode-bidi="normal" text-decoration="none" transform="matrix(1 0 0 1 2792.82 1510)">(4)</text></g></g></svg>