<svg width="2714" height="1160" xmlns="http://www.w3.org/2000/svg" xmlns:xlink="http://www.w3.org/1999/xlink" xml:space="preserve" overflow="hidden"><g transform="translate(-948 -664)"><g><text fill="#0070C0" fill-opacity="1" font-family="Arial,Arial_MSFontService,sans-serif" font-style="normal" font-variant="normal" font-weight="400" font-stretch="normal" font-size="83" text-anchor="start" direction="ltr" writing-mode="lr-tb" unicode-bidi="normal" text-decoration="none" transform="matrix(1 0 0 1 1114.25 967)">Metadata</text><text fill="#0070C0" fill-opacity="1" font-family="Arial,Arial_MSFontService,sans-serif" font-style="normal" font-variant="normal" font-weight="400" font-stretch="normal" font-size="55" text-anchor="start" direction="ltr" writing-mode="lr-tb" unicode-bidi="normal" text-decoration="none" transform="matrix(1 0 0 1 1458 942)">(1)</text><rect x="1544.5" y="885.5" width="655" height="216" stroke="#385D8A" stroke-width="9.16667" stroke-linecap="butt" stroke-linejoin="round" stroke-miterlimit="10" stroke-opacity="1" fill="#FCD5B5" fill-opacity="1"/><text fill="#000000" fill-opacity="1" font-family="Arial,Arial_MSFontService,sans-serif" font-style="normal" font-variant="normal" font-weight="400" font-stretch="normal" font-size="55" text-anchor="start" direction="ltr" writing-mode="lr-tb" unicode-bidi="normal" text-decoration="none" transform="matrix(1 0 0 1 1670.49 1013)">ecpds command</text><rect x="1408.5" y="1357.5" width="656" height="216" stroke="#385D8A" stroke-width="9.16667" stroke-linecap="butt" stroke-linejoin="round" stroke-miterlimit="10" stroke-opacity="1" fill="#8EB4E3" fill-opacity="1"/><text fill="#000000" fill-opacity="1" font-family="Arial,Arial_MSFontService,sans-serif" font-style="normal" font-variant="normal" font-weight="400" font-stretch="normal" font-size="73" text-anchor="start" direction="ltr" writing-mode="lr-tb" unicode-bidi="normal" text-decoration="none" transform="matrix(1 0 0 1 1441.41 1448)">Master</text><text fill="#000000" fill-opacity="1" font-family="Arial,Arial_MSFontService,sans-serif" font-style="normal" font-variant="normal" font-weight="400" font-stretch="normal" font-size="73" text-anchor="start" direction="ltr" writing-mode="lr-tb" unicode-bidi="normal" text-decoration="none" transform="matrix(1 0 0 1 1441.41 1536)">Server</text><rect x="2397.5" y="1247.5" width="656" height="217" stroke="#385D8A" stroke-width="9.16667" stroke-linecap="butt" stroke-linejoin="round" stroke-miterlimit="10" stroke-opacity="1" fill="#D9D9D9" fill-opacity="1"/><text fill="#000000" fill-opacity="1" font-family="Arial,Arial_MSFontService,sans-serif" font-style="normal" font-variant="normal" font-weight="400" font-stretch="normal" font-size="55" text-anchor="start" direction="ltr" writing-mode="lr-tb" unicode-bidi="normal" text-decoration="none" transform="matrix(1 0 0 1 2559.96 1375)">Mover Server</text><path d="M0-4.58333 217.844-4.58333C220.375-4.58333 222.427-2.53131 222.427 0L222.427 471.992C222.427 474.523 220.375 476.575 217.844 476.575L176.594 476.575 176.594 467.408 217.844 467.408 213.26 471.992 213.26 0 217.844 4.58333 0 4.58333ZM181.177 494.908 135.344 471.992 181.177 449.075Z" fill="#4F81BD" fill-rule="nonzero" fill-opacity="1" transform="matrix(-1 1.22465e-16 1.22465e-16 1 1543.84 993.5)"/><path d="M1741.08 1574 1741.08 1656.5 1736.5 1651.92 2724.93 1651.92 2720.35 1656.5 2720.35 1505.75 2729.52 1505.75 2729.52 1656.5C2729.52 1659.03 2727.46 1661.08 2724.93 1661.08L1736.5 1661.08C1733.97 1661.08 1731.92 1659.03 1731.92 1656.5L1731.92 1574ZM2702.02 1510.33 2724.93 1464.5 2747.85 1510.33Z" fill="#FF0000" fill-rule="nonzero" fill-opacity="1"/><path d="M2240.75 773.917 2724.75 773.917C2727.28 773.917 2729.33 775.969 2729.33 778.5L2729.33 1247.17 2720.17 1247.17 2720.17 778.5 2724.75 783.083 2240.75 783.083ZM2245.33 801.417 2199.5 778.5 2245.33 755.583Z" fill="#FF0000" fill-rule="nonzero" fill-opacity="1"/><text fill="#FF0000" fill-opacity="1" font-family="Arial,Arial_MSFontService,sans-serif" font-style="normal" font-variant="normal" font-weight="400" font-stretch="normal" font-size="55" text-anchor="start" direction="ltr" writing-mode="lr-tb" unicode-bidi="normal" text-decoration="none" transform="matrix(1 0 0 1 1847.02 1726)">(3)</text><text fill="#FF0000" fill-opacity="1" font-family="Arial,Arial_MSFontService,sans-serif" font-style="normal" font-variant="normal" font-weight="400" font-stretch="normal" font-size="83" text-anchor="start" direction="ltr" writing-mode="lr-tb" unicode-bidi="normal" text-decoration="none" transform="matrix(1 0 0 1 1936.97 1751)">File Location &amp; ID</text><text fill="#FF0000" fill-opacity="1" font-family="Arial,Arial_MSFontService,sans-serif" font-style="normal" font-variant="normal" font-weight="400" font-stretch="normal" font-size="55" text-anchor="start" direction="ltr" writing-mode="lr-tb" unicode-bidi="normal" text-decoration="none" transform="matrix(1 0 0 1 2751.63 1178)">(4) </text><text fill="#FF0000" fill-opacity="1" font-family="Arial,Arial_MSFontService,sans-serif" font-style="normal" font-variant="normal" font-weight="400" font-stretch="normal" font-size="83" text-anchor="start" direction="ltr" writing-mode="lr-tb" unicode-bidi="normal" text-decoration="none" transform="matrix(1 0 0 1 2834.13 1203)">R</text><text fill="#FF0000" fill-opacity="1" font-family="Arial,Arial_MSFontService,sans-serif" font-style="normal" font-variant="normal" font-weight="400" font-stretch="normal" font-size="83" text-anchor="start" direction="ltr" writing-mode="lr-tb" unicode-bidi="normal" text-decoration="none" transform="matrix(1 0 0 1 2893.71 1203)">etrieve </text><text fill="#FF0000" fill-opacity="1" font-family="Arial,Arial_MSFontService,sans-serif" font-style="normal" font-variant="normal" font-weight="400" font-stretch="normal" font-size="83" text-anchor="start" direction="ltr" writing-mode="lr-tb" unicode-bidi="normal" text-decoration="none" transform="matrix(1 0 0 1 3164.13 1203)">File Content</text><rect x="1544.5" y="670.5" width="655" height="217" stroke="#385D8A" stroke-width="9.16667" stroke-linecap="butt" stroke-linejoin="round" stroke-miterlimit="10" stroke-opacity="1" fill="#FCD5B5" fill-opacity="1"/><text fill="#000000" fill-opacity="1" font-family="Arial,Arial_MSFontService,sans-serif" font-style="normal" font-variant="normal" font-weight="400" font-stretch="normal" font-size="55" text-anchor="start" direction="ltr" writing-mode="lr-tb" unicode-bidi="normal" text-decoration="none" transform="matrix(1 0 0 1 1761.87 798)">Data File</text><path d="M2851.5 767.5 3468.5 767.5 3468.5 1044.5 2851.5 1044.5ZM2886.13 802.125 2886.13 1009.88 3433.88 1009.88 3433.88 802.125Z" stroke="#FF0000" stroke-width="3.4375" stroke-linecap="butt" stroke-linejoin="round" stroke-miterlimit="10" stroke-opacity="1" fill="#FF0000" fill-rule="evenodd" fill-opacity="1"/><text fill="#FF0000" fill-opacity="1" font-family="Arial,Arial_MSFontService,sans-serif" font-style="normal" font-variant="normal" font-weight="400" font-stretch="normal" font-size="83" text-anchor="start" direction="ltr" writing-mode="lr-tb" unicode-bidi="normal" text-decoration="none" transform="matrix(1 0 0 1 2996.38 887)">Retrieval </text><text fill="#FF0000" fill-opacity="1" font-family="Arial,Arial_MSFontService,sans-serif" font-style="normal" font-variant="normal" font-weight="400" font-stretch="normal" font-size="83" text-anchor="start" direction="ltr" writing-mode="lr-tb" unicode-bidi="normal" text-decoration="none" transform="matrix(1 0 0 1 2973.46 986)">Scheduler</text><path d="M0-4.58333 166.378-4.58333C168.909-4.58333 170.961-2.53131 170.961 0L170.961 109.498 166.378 104.915 291.505 104.915 291.505 114.082 166.378 114.082C163.846 114.082 161.794 112.03 161.794 109.498L161.794 0 166.378 4.58333 0 4.58333ZM286.922 86.5817 332.755 109.498 286.922 132.415Z" fill="#FF0000" fill-rule="nonzero" fill-opacity="1" transform="matrix(-1 1.22465e-16 1.22465e-16 1 2397.26 1355.5)"/><text fill="#FF0000" fill-opacity="1" font-family="Arial,Arial_MSFontService,sans-serif" font-style="normal" font-variant="normal" font-weight="400" font-stretch="normal" font-size="55" text-anchor="start" direction="ltr" writing-mode="lr-tb" unicode-bidi="normal" text-decoration="none" transform="matrix(1 0 0 1 2126.94 1534)">(5)</text><text fill="#FF0000" fill-opacity="1" font-family="Arial,Arial_MSFontService,sans-serif" font-style="normal" font-variant="normal" font-weight="400" font-stretch="normal" font-size="83" text-anchor="start" direction="ltr" writing-mode="lr-tb" unicode-bidi="normal" text-decoration="none" transform="matrix(1 0 0 1 2212.32 1559)">Ack</text><text fill="#FF0000" fill-opacity="1" font-family="Arial,Arial_MSFontService,sans-serif" font-style="normal" font-variant="normal" font-weight="400" font-stretch="normal" font-size="83" text-anchor="start" direction="ltr" writing-mode="lr-tb" unicode-bidi="normal" text-decoration="none" transform="matrix(1 0 0 1 2349.82 1559)">.</text><path d="M1731.92 1357.1 1731.92 1229.3C1731.92 1226.77 1733.97 1224.71 1736.5 1224.71L1871.84 1224.71 1867.26 1229.3 1867.26 1142.75 1876.43 1142.75 1876.43 1229.3C1876.43 1231.83 1874.38 1233.88 1871.84 1233.88L1736.5 1233.88 1741.08 1229.3 1741.08 1357.1ZM1848.93 1147.33 1871.84 1101.5 1894.76 1147.33Z" fill="#4F81BD" fill-rule="nonzero" fill-opacity="1"/><text fill="#4F81BD" fill-opacity="1" font-family="Arial,Arial_MSFontService,sans-serif" font-style="normal" font-variant="normal" font-weight="400" font-stretch="normal" font-size="55" text-anchor="start" direction="ltr" writing-mode="lr-tb" unicode-bidi="normal" text-decoration="none" transform="matrix(1 0 0 1 1894.06 1217)">(2)</text><text fill="#4F81BD" fill-opacity="1" font-family="Arial,Arial_MSFontService,sans-serif" font-style="normal" font-variant="normal" font-weight="400" font-stretch="normal" font-size="83" text-anchor="start" direction="ltr" writing-mode="lr-tb" unicode-bidi="normal" text-decoration="none" transform="matrix(1 0 0 1 1979.45 1242)">Ack</text><text fill="#4F81BD" fill-opacity="1" font-family="Arial,Arial_MSFontService,sans-serif" font-style="normal" font-variant="normal" font-weight="400" font-stretch="normal" font-size="83" text-anchor="start" direction="ltr" writing-mode="lr-tb" unicode-bidi="normal" text-decoration="none" transform="matrix(1 0 0 1 2116.95 1242)">. &amp; ID</text><g><g><g><path d="M164.667 39C164.667 48.5729 137.505 56.3333 104 56.3333 70.4947 56.3333 43.3333 48.5729 43.3333 39 43.3333 29.4271 70.4947 21.6667 104 21.6667 137.505 21.6667 164.667 29.4271 164.667 39Z" fill="#000000" fill-rule="nonzero" fill-opacity="1" transform="matrix(1.24039 0 0 1 1801 1360)"/><path d="M147.333 82.3333C144.733 82.3333 143 80.6 143 78 143 75.4 144.733 73.6667 147.333 73.6667 149.933 73.6667 151.667 75.4 151.667 78 151.667 80.6 149.933 82.3333 147.333 82.3333ZM104 65C70.6333 65 43.3333 57.2 43.3333 47.6667L43.3333 82.3333C43.3333 91.8667 70.6333 99.6666 104 99.6666 137.367 99.6666 164.667 91.8667 164.667 82.3333L164.667 47.6667C164.667 57.2 137.367 65 104 65Z" fill="#000000" fill-rule="nonzero" fill-opacity="1" transform="matrix(1.24039 0 0 1 1801 1360)"/><path d="M147.333 125.667C144.733 125.667 143 123.933 143 121.333 143 118.733 144.733 117 147.333 117 149.933 117 151.667 118.733 151.667 121.333 151.667 123.933 149.933 125.667 147.333 125.667ZM104 108.333C70.6333 108.333 43.3333 100.533 43.3333 91L43.3333 125.667C43.3333 135.2 70.6333 143 104 143 137.367 143 164.667 135.2 164.667 125.667L164.667 91C164.667 100.533 137.367 108.333 104 108.333Z" fill="#000000" fill-rule="nonzero" fill-opacity="1" transform="matrix(1.24039 0 0 1 1801 1360)"/><path d="M147.333 169C144.733 169 143 167.267 143 164.667 143 162.067 144.733 160.333 147.333 160.333 149.933 160.333 151.667 162.067 151.667 164.667 151.667 167.267 149.933 169 147.333 169ZM104 151.667C70.6333 151.667 43.3333 143.867 43.3333 134.333L43.3333 169C43.3333 178.533 70.6333 186.333 104 186.333 137.367 186.333 164.667 178.533 164.667 169L164.667 134.333C164.667 143.867 137.367 151.667 104 151.667Z" fill="#000000" fill-rule="nonzero" fill-opacity="1" transform="matrix(1.24039 0 0 1 1801 1360)"/></g></g></g></g></g></svg>