<svg width="2443" height="1334" xmlns="http://www.w3.org/2000/svg" xmlns:xlink="http://www.w3.org/1999/xlink" xml:space="preserve" overflow="hidden"><g transform="translate(-802 -655)"><g><rect x="1571.5" y="1140.5" width="656" height="217" stroke="#385D8A" stroke-width="9.16667" stroke-linecap="butt" stroke-linejoin="round" stroke-miterlimit="10" stroke-opacity="1" fill="#D9D9D9" fill-opacity="1"/><text fill="#000000" fill-opacity="1" font-family="Arial,Arial_MSFontService,sans-serif" font-style="normal" font-variant="normal" font-weight="400" font-stretch="normal" font-size="55" text-anchor="start" direction="ltr" writing-mode="lr-tb" unicode-bidi="normal" text-decoration="none" transform="matrix(1 0 0 1 1734.24 1236)">Mover Server</text><text fill="#000000" fill-opacity="1" font-family="Arial,Arial_MSFontService,sans-serif" font-style="normal" font-variant="normal" font-weight="400" font-stretch="normal" font-size="55" text-anchor="start" direction="ltr" writing-mode="lr-tb" unicode-bidi="normal" text-decoration="none" transform="matrix(1 0 0 1 1690.13 1302)">(Allocated by LB)</text><rect x="1436.5" y="1681.5" width="655" height="216" stroke="#385D8A" stroke-width="9.16667" stroke-linecap="butt" stroke-linejoin="round" stroke-miterlimit="10" stroke-opacity="1" fill="#8EB4E3" fill-opacity="1"/><text fill="#000000" fill-opacity="1" font-family="Arial,Arial_MSFontService,sans-serif" font-style="normal" font-variant="normal" font-weight="400" font-stretch="normal" font-size="73" text-anchor="start" direction="ltr" writing-mode="lr-tb" unicode-bidi="normal" text-decoration="none" transform="matrix(1 0 0 1 1468.78 1772)">Master</text><text fill="#000000" fill-opacity="1" font-family="Arial,Arial_MSFontService,sans-serif" font-style="normal" font-variant="normal" font-weight="400" font-stretch="normal" font-size="73" text-anchor="start" direction="ltr" writing-mode="lr-tb" unicode-bidi="normal" text-decoration="none" transform="matrix(1 0 0 1 1468.78 1860)">Server</text><path d="M1759.92 1681.76 1759.92 1519.63C1759.92 1517.1 1761.97 1515.04 1764.5 1515.04L1899.84 1515.04 1895.26 1519.63 1895.26 1398.75 1904.43 1398.75 1904.43 1519.63C1904.43 1522.16 1902.38 1524.21 1899.84 1524.21L1764.5 1524.21 1769.08 1519.63 1769.08 1681.76ZM1876.93 1403.33 1899.84 1357.5 1922.76 1403.33Z" fill="#4F81BD" fill-rule="nonzero" fill-opacity="1"/><text fill="#0070C0" fill-opacity="1" font-family="Arial,Arial_MSFontService,sans-serif" font-style="normal" font-variant="normal" font-weight="400" font-stretch="normal" font-size="55" text-anchor="start" direction="ltr" writing-mode="lr-tb" unicode-bidi="normal" text-decoration="none" transform="matrix(1 0 0 1 1784.24 1622)">(1)</text><text fill="#0070C0" fill-opacity="1" font-family="Arial,Arial_MSFontService,sans-serif" font-style="normal" font-variant="normal" font-weight="400" font-stretch="normal" font-size="83" text-anchor="start" direction="ltr" writing-mode="lr-tb" unicode-bidi="normal" text-decoration="none" transform="matrix(1 0 0 1 1874.19 1647)">Listing Req.</text><path d="M1894.92 929.393 1894.92 771.5C1894.92 768.969 1896.97 766.917 1899.5 766.917L2539.78 766.917 2539.78 776.083 1899.5 776.083 1904.08 771.5 1904.08 929.393ZM2535.19 748.583 2581.03 771.5 2535.19 794.417Z" fill="#4F81BD" fill-rule="nonzero" fill-opacity="1"/><rect x="1571.5" y="929.5" width="656" height="216" stroke="#385D8A" stroke-width="9.16667" stroke-linecap="butt" stroke-linejoin="round" stroke-miterlimit="10" stroke-opacity="1" fill="#D9D9D9" fill-opacity="1"/><text fill="#000000" fill-opacity="1" font-family="Arial,Arial_MSFontService,sans-serif" font-style="normal" font-variant="normal" font-weight="400" font-stretch="normal" font-size="55" text-anchor="start" direction="ltr" writing-mode="lr-tb" unicode-bidi="normal" text-decoration="none" transform="matrix(1 0 0 1 1605.05 1024)">ftp, sftp, https, s3, azure </text><text fill="#000000" fill-opacity="1" font-family="Arial,Arial_MSFontService,sans-serif" font-style="normal" font-variant="normal" font-weight="400" font-stretch="normal" font-size="55" text-anchor="start" direction="ltr" writing-mode="lr-tb" unicode-bidi="normal" text-decoration="none" transform="matrix(1 0 0 1 1744.84 1090)">&amp; gcs clients</text><rect x="2580.5" y="663.5" width="656" height="216" stroke="#385D8A" stroke-width="9.16667" stroke-linecap="butt" stroke-linejoin="round" stroke-miterlimit="10" stroke-opacity="1" fill="#FCD5B5" fill-opacity="1"/><text fill="#000000" fill-opacity="1" font-family="Arial,Arial_MSFontService,sans-serif" font-style="normal" font-variant="normal" font-weight="400" font-stretch="normal" font-size="55" text-anchor="start" direction="ltr" writing-mode="lr-tb" unicode-bidi="normal" text-decoration="none" transform="matrix(1 0 0 1 2672.28 758)">ftp, sftp, https, s3 &amp; </text><text fill="#000000" fill-opacity="1" font-family="Arial,Arial_MSFontService,sans-serif" font-style="normal" font-variant="normal" font-weight="400" font-stretch="normal" font-size="55" text-anchor="start" direction="ltr" writing-mode="lr-tb" unicode-bidi="normal" text-decoration="none" transform="matrix(1 0 0 1 2742.18 824)">azure servers</text><text fill="#0070C0" fill-opacity="1" font-family="Arial,Arial_MSFontService,sans-serif" font-style="normal" font-variant="normal" font-weight="400" font-stretch="normal" font-size="55" text-anchor="start" direction="ltr" writing-mode="lr-tb" unicode-bidi="normal" text-decoration="none" transform="matrix(1 0 0 1 1931.96 862)">(2)</text><text fill="#0070C0" fill-opacity="1" font-family="Arial,Arial_MSFontService,sans-serif" font-style="normal" font-variant="normal" font-weight="400" font-stretch="normal" font-size="83" text-anchor="start" direction="ltr" writing-mode="lr-tb" unicode-bidi="normal" text-decoration="none" transform="matrix(1 0 0 1 2021.91 887)">Listing Req.</text><path d="M804.5 1235.5 1460.5 1235.5 1460.5 1513.5 804.5 1513.5ZM839.25 1270.25 839.25 1478.75 1425.75 1478.75 1425.75 1270.25Z" stroke="#FF0000" stroke-width="3.4375" stroke-linecap="butt" stroke-linejoin="round" stroke-miterlimit="10" stroke-opacity="1" fill="#FF0000" fill-rule="evenodd" fill-opacity="1"/><text fill="#FF0000" fill-opacity="1" font-family="Arial,Arial_MSFontService,sans-serif" font-style="normal" font-variant="normal" font-weight="400" font-stretch="normal" font-size="83" text-anchor="start" direction="ltr" writing-mode="lr-tb" unicode-bidi="normal" text-decoration="none" transform="matrix(1 0 0 1 932.338 1355)">Acquisition </text><text fill="#FF0000" fill-opacity="1" font-family="Arial,Arial_MSFontService,sans-serif" font-style="normal" font-variant="normal" font-weight="400" font-stretch="normal" font-size="83" text-anchor="start" direction="ltr" writing-mode="lr-tb" unicode-bidi="normal" text-decoration="none" transform="matrix(1 0 0 1 946.088 1454)">Scheduler</text><path d="M0-4.58333 276.121-4.58333C278.653-4.58333 280.705-2.53131 280.705 0L280.705 262.813 271.538 262.813 271.538 0 276.121 4.58333 0 4.58333ZM299.038 258.23 276.121 304.063 253.205 258.23Z" fill="#FF0000" fill-rule="nonzero" fill-opacity="1" transform="matrix(1.83697e-16 1 1 -1.83697e-16 1132.5 1513.5)"/><text fill="#FF0000" fill-opacity="1" font-family="Arial,Arial_MSFontService,sans-serif" font-style="normal" font-variant="normal" font-weight="400" font-stretch="normal" font-size="55" text-anchor="start" direction="ltr" writing-mode="lr-tb" unicode-bidi="normal" text-decoration="none" transform="matrix(1 0 0 1 1159.83 1589)">(0)</text><text fill="#FF0000" fill-opacity="1" font-family="Arial,Arial_MSFontService,sans-serif" font-style="normal" font-variant="normal" font-weight="400" font-stretch="normal" font-size="83" text-anchor="start" direction="ltr" writing-mode="lr-tb" unicode-bidi="normal" text-decoration="none" transform="matrix(1 0 0 1 1249.78 1614)">trigger</text><path d="M0 4.58333-189.404 4.58333-184.821 0-184.821 731.35-189.404 726.767 463.182 726.767 458.599 731.35 458.599 690.099 467.765 690.099 467.765 731.35C467.765 733.882 465.713 735.934 463.182 735.934L-189.404 735.934C-191.935 735.934-193.987 733.882-193.987 731.35L-193.987 0C-193.987-2.53131-191.935-4.58333-189.404-4.58333L0-4.58333ZM440.265 694.682 463.182 648.849 486.099 694.682Z" fill="#4F81BD" fill-rule="nonzero" fill-opacity="1" transform="matrix(-1 0 0 1 2227.68 1249.5)"/><text fill="#0070C0" fill-opacity="1" font-family="Arial,Arial_MSFontService,sans-serif" font-style="normal" font-variant="normal" font-weight="400" font-stretch="normal" font-size="55" text-anchor="start" direction="ltr" writing-mode="lr-tb" unicode-bidi="normal" text-decoration="none" transform="matrix(1 0 0 1 2436.99 1317)">(3)</text><text fill="#0070C0" fill-opacity="1" font-family="Arial,Arial_MSFontService,sans-serif" font-style="normal" font-variant="normal" font-weight="400" font-stretch="normal" font-size="83" text-anchor="start" direction="ltr" writing-mode="lr-tb" unicode-bidi="normal" text-decoration="none" transform="matrix(1 0 0 1 2526.94 1342)">Listing</text><text fill="#0070C0" fill-opacity="1" font-family="Arial,Arial_MSFontService,sans-serif" font-style="normal" font-variant="normal" font-weight="400" font-stretch="normal" font-size="83" text-anchor="start" direction="ltr" writing-mode="lr-tb" unicode-bidi="normal" text-decoration="none" transform="matrix(1 0 0 1 2436.99 1441)">Output</text><path d="M0 0 681.526 0 681.526 369.205" stroke="#4F81BD" stroke-width="4.58333" stroke-linecap="butt" stroke-linejoin="round" stroke-miterlimit="10" stroke-dasharray="18.3333 13.75" stroke-opacity="1" fill="none" fill-rule="evenodd" transform="matrix(1 0 0 -1 2227.5 1248.7)"/><g><g><g><path d="M165.458 39.1875C165.458 48.8065 138.166 56.6042 104.5 56.6042 70.8336 56.6042 43.5417 48.8065 43.5417 39.1875 43.5417 29.5685 70.8336 21.7708 104.5 21.7708 138.166 21.7708 165.458 29.5685 165.458 39.1875Z" fill="#000000" fill-rule="nonzero" fill-opacity="1" transform="matrix(1.22966 0 0 1 1828 1688)"/><path d="M148.042 82.7292C145.429 82.7292 143.688 80.9875 143.688 78.375 143.688 75.7625 145.429 74.0208 148.042 74.0208 150.654 74.0208 152.396 75.7625 152.396 78.375 152.396 80.9875 150.654 82.7292 148.042 82.7292ZM104.5 65.3125C70.9729 65.3125 43.5417 57.475 43.5417 47.8958L43.5417 82.7292C43.5417 92.3083 70.9729 100.146 104.5 100.146 138.027 100.146 165.458 92.3083 165.458 82.7292L165.458 47.8958C165.458 57.475 138.027 65.3125 104.5 65.3125Z" fill="#000000" fill-rule="nonzero" fill-opacity="1" transform="matrix(1.22966 0 0 1 1828 1688)"/><path d="M148.042 126.271C145.429 126.271 143.688 124.529 143.688 121.917 143.688 119.304 145.429 117.562 148.042 117.562 150.654 117.562 152.396 119.304 152.396 121.917 152.396 124.529 150.654 126.271 148.042 126.271ZM104.5 108.854C70.9729 108.854 43.5417 101.017 43.5417 91.4375L43.5417 126.271C43.5417 135.85 70.9729 143.688 104.5 143.688 138.027 143.688 165.458 135.85 165.458 126.271L165.458 91.4375C165.458 101.017 138.027 108.854 104.5 108.854Z" fill="#000000" fill-rule="nonzero" fill-opacity="1" transform="matrix(1.22966 0 0 1 1828 1688)"/><path d="M148.042 169.812C145.429 169.812 143.688 168.071 143.688 165.458 143.688 162.846 145.429 161.104 148.042 161.104 150.654 161.104 152.396 162.846 152.396 165.458 152.396 168.071 150.654 169.812 148.042 169.812ZM104.5 152.396C70.9729 152.396 43.5417 144.558 43.5417 134.979L43.5417 169.812C43.5417 179.392 70.9729 187.229 104.5 187.229 138.027 187.229 165.458 179.392 165.458 169.812L165.458 134.979C165.458 144.558 138.027 152.396 104.5 152.396Z" fill="#000000" fill-rule="nonzero" fill-opacity="1" transform="matrix(1.22966 0 0 1 1828 1688)"/></g></g></g></g></g></svg>