<svg width="3098" height="1719" xmlns="http://www.w3.org/2000/svg" xmlns:xlink="http://www.w3.org/1999/xlink" xml:space="preserve" overflow="hidden"><g transform="translate(-582 -398)"><g><rect x="1241" y="404" width="1872" height="1663" fill="#DCE6F2" fill-opacity="1"/><text fill="#000000" fill-opacity="1" font-family="Arial,Arial_MSFontService,sans-serif" font-style="normal" font-variant="normal" font-weight="400" font-stretch="normal" font-size="110" text-anchor="start" direction="ltr" writing-mode="lr-tb" unicode-bidi="normal" text-decoration="none" transform="matrix(1 0 0 1 1273.53 2026)">OpenECPDS</text><rect x="2017" y="1156" width="1096" height="540" fill="#B9CDE5" fill-opacity="1"/><rect x="2065" y="1238" width="379" height="176" fill="#376092" fill-opacity="1"/><text fill="#FFFFFF" fill-opacity="1" font-family="Arial,Arial_MSFontService,sans-serif" font-style="normal" font-variant="normal" font-weight="700" font-stretch="normal" font-size="55" text-anchor="start" direction="ltr" writing-mode="lr-tb" unicode-bidi="normal" text-decoration="none" transform="matrix(1 0 0 1 2105.01 1346)">Destination</text><rect x="2469" y="1237" width="379" height="176" fill="#376092" fill-opacity="1"/><text fill="#FFFFFF" fill-opacity="1" font-family="Arial,Arial_MSFontService,sans-serif" font-style="normal" font-variant="normal" font-weight="700" font-stretch="normal" font-size="55" text-anchor="start" direction="ltr" writing-mode="lr-tb" unicode-bidi="normal" text-decoration="none" transform="matrix(1 0 0 1 2509.02 1345)">Destination</text><rect x="2882" y="1236" width="194" height="177" fill="#376092" fill-opacity="1"/><text fill="#FFFFFF" fill-opacity="1" font-family="Arial,Arial_MSFontService,sans-serif" font-style="normal" font-variant="normal" font-weight="700" font-stretch="normal" font-size="55" text-anchor="start" direction="ltr" writing-mode="lr-tb" unicode-bidi="normal" text-decoration="none" transform="matrix(1 0 0 1 2951.48 1345)">---</text><rect x="2063" y="1412" width="379" height="177" fill="#C3D69B" fill-opacity="1"/><text fill="#595959" fill-opacity="1" font-family="Arial,Arial_MSFontService,sans-serif" font-style="normal" font-variant="normal" font-weight="700" font-stretch="normal" font-size="55" text-anchor="start" direction="ltr" writing-mode="lr-tb" unicode-bidi="normal" text-decoration="none" transform="matrix(1 0 0 1 2180.84 1521)">Topic</text><rect x="2469" y="1411" width="379" height="177" fill="#C3D69B" fill-opacity="1"/><text fill="#595959" fill-opacity="1" font-family="Arial,Arial_MSFontService,sans-serif" font-style="normal" font-variant="normal" font-weight="700" font-stretch="normal" font-size="55" text-anchor="start" direction="ltr" writing-mode="lr-tb" unicode-bidi="normal" text-decoration="none" transform="matrix(1 0 0 1 2587.26 1519)">Topic</text><rect x="2880" y="1411" width="194" height="177" fill="#C3D69B" fill-opacity="1"/><text fill="#595959" fill-opacity="1" font-family="Arial,Arial_MSFontService,sans-serif" font-style="normal" font-variant="normal" font-weight="700" font-stretch="normal" font-size="55" text-anchor="start" direction="ltr" writing-mode="lr-tb" unicode-bidi="normal" text-decoration="none" transform="matrix(1 0 0 1 2949.07 1519)">---</text><rect x="1241.5" y="1473.5" width="446" height="286" stroke="#FF0000" stroke-width="4.58333" stroke-linecap="butt" stroke-linejoin="round" stroke-miterlimit="10" stroke-opacity="1" fill="#C6D9F1" fill-opacity="1"/><text fill="#595959" fill-opacity="1" font-family="Arial,Arial_MSFontService,sans-serif" font-style="normal" font-variant="normal" font-weight="700" font-stretch="normal" font-size="55" text-anchor="start" direction="ltr" writing-mode="lr-tb" unicode-bidi="normal" text-decoration="none" transform="matrix(1 0 0 1 1385.7 1603)">MQTT</text><text fill="#595959" fill-opacity="1" font-family="Arial,Arial_MSFontService,sans-serif" font-style="normal" font-variant="normal" font-weight="700" font-stretch="normal" font-size="55" text-anchor="start" direction="ltr" writing-mode="lr-tb" unicode-bidi="normal" text-decoration="none" transform="matrix(1 0 0 1 1375.68 1669)">Broker</text><path d="M0-4.58333 187.747-4.58333C190.278-4.58333 192.33-2.53131 192.33 0L192.33 115.439 187.747 110.855 352.576 110.855 352.576 120.022 187.747 120.022C185.215 120.022 183.163 117.97 183.163 115.439L183.163 0 187.747 4.58333 0 4.58333ZM0 13.75C-7.59392 13.75-13.75 7.59392-13.75 0-13.75-7.59392-7.59392-13.75 0-13.75 7.59392-13.75 13.75-7.59392 13.75 0 13.75 7.59392 7.59392 13.75 0 13.75ZM347.993 101.689 375.493 115.439 347.993 129.189Z" fill="#4F81BD" fill-rule="nonzero" fill-opacity="1" transform="matrix(-1 1.22465e-16 1.22465e-16 1 2062.99 1501.5)"/><rect x="584" y="1478" width="447" height="286" fill="#C3D69B" fill-opacity="1"/><text fill="#595959" fill-opacity="1" font-family="Arial,Arial_MSFontService,sans-serif" font-style="normal" font-variant="normal" font-weight="700" font-stretch="normal" font-size="55" text-anchor="start" direction="ltr" writing-mode="lr-tb" unicode-bidi="normal" text-decoration="none" transform="matrix(1 0 0 1 729.492 1608)">MQTT</text><text fill="#595959" fill-opacity="1" font-family="Arial,Arial_MSFontService,sans-serif" font-style="normal" font-variant="normal" font-weight="700" font-stretch="normal" font-size="55" text-anchor="start" direction="ltr" writing-mode="lr-tb" unicode-bidi="normal" text-decoration="none" transform="matrix(1 0 0 1 731.21 1674)">Client</text><path d="M1460.13 1473.5 1460.13 1391 1464.72 1395.58 808.5 1395.58 813.083 1391 813.083 1455.17 803.917 1455.17 803.917 1391C803.917 1388.47 805.969 1386.42 808.5 1386.42L1464.72 1386.42C1467.25 1386.42 1469.3 1388.47 1469.3 1391L1469.3 1473.5ZM1478.47 1473.5C1478.47 1481.09 1472.31 1487.25 1464.72 1487.25 1457.12 1487.25 1450.97 1481.09 1450.97 1473.5 1450.97 1465.91 1457.12 1459.75 1464.72 1459.75 1472.31 1459.75 1478.47 1465.91 1478.47 1473.5ZM822.25 1450.58 808.5 1478.08 794.75 1450.58Z" fill="#4F81BD" fill-rule="nonzero" fill-opacity="1"/><path d="M813.083 1764.08 813.083 1846.58 808.5 1842 1464.72 1842 1460.13 1846.58 1460.13 1782.42 1469.3 1782.42 1469.3 1846.58C1469.3 1849.11 1467.25 1851.17 1464.72 1851.17L808.5 1851.17C805.969 1851.17 803.917 1849.11 803.917 1846.58L803.917 1764.08ZM794.75 1764.08C794.75 1756.49 800.906 1750.33 808.5 1750.33 816.094 1750.33 822.25 1756.49 822.25 1764.08 822.25 1771.68 816.094 1777.83 808.5 1777.83 800.906 1777.83 794.75 1771.68 794.75 1764.08ZM1450.97 1787 1464.72 1759.5 1478.47 1787Z" fill="#4F81BD" fill-rule="nonzero" fill-opacity="1"/><text fill="#000000" fill-opacity="1" font-family="Arial,Arial_MSFontService,sans-serif" font-style="normal" font-variant="normal" font-weight="400" font-stretch="normal" font-size="55" text-anchor="start" direction="ltr" writing-mode="lr-tb" unicode-bidi="normal" text-decoration="none" transform="matrix(1 0 0 1 2603.3 1027)">U</text><text fill="#000000" fill-opacity="1" font-family="Arial,Arial_MSFontService,sans-serif" font-style="normal" font-variant="normal" font-weight="400" font-stretch="normal" font-size="55" text-anchor="start" direction="ltr" writing-mode="lr-tb" unicode-bidi="normal" text-decoration="none" transform="matrix(1 0 0 1 2642.83 1027)">pdate</text><text fill="#000000" fill-opacity="1" font-family="Arial,Arial_MSFontService,sans-serif" font-style="normal" font-variant="normal" font-weight="400" font-stretch="normal" font-size="37" text-anchor="start" direction="ltr" writing-mode="lr-tb" unicode-bidi="normal" text-decoration="none" transform="matrix(1 0 0 1 2779.76 1010)">(3)</text><text fill="#000000" fill-opacity="1" font-family="Arial,Arial_MSFontService,sans-serif" font-style="normal" font-variant="normal" font-weight="400" font-stretch="normal" font-size="55" text-anchor="start" direction="ltr" writing-mode="lr-tb" unicode-bidi="normal" text-decoration="none" transform="matrix(1 0 0 1 837.994 1921)">Subscribe</text><text fill="#000000" fill-opacity="1" font-family="Arial,Arial_MSFontService,sans-serif" font-style="normal" font-variant="normal" font-weight="400" font-stretch="normal" font-size="37" text-anchor="start" direction="ltr" writing-mode="lr-tb" unicode-bidi="normal" text-decoration="none" transform="matrix(1 0 0 1 1081.48 1904)">(1)</text><text fill="#000000" fill-opacity="1" font-family="Arial,Arial_MSFontService,sans-serif" font-style="normal" font-variant="normal" font-weight="400" font-stretch="normal" font-size="55" text-anchor="start" direction="ltr" writing-mode="lr-tb" unicode-bidi="normal" text-decoration="none" transform="matrix(1 0 0 1 1760.81 1712)">P</text><text fill="#000000" fill-opacity="1" font-family="Arial,Arial_MSFontService,sans-serif" font-style="normal" font-variant="normal" font-weight="400" font-stretch="normal" font-size="55" text-anchor="start" direction="ltr" writing-mode="lr-tb" unicode-bidi="normal" text-decoration="none" transform="matrix(1 0 0 1 1797.47 1712)">ublish</text><text fill="#000000" fill-opacity="1" font-family="Arial,Arial_MSFontService,sans-serif" font-style="normal" font-variant="normal" font-weight="400" font-stretch="normal" font-size="55" text-anchor="start" direction="ltr" writing-mode="lr-tb" unicode-bidi="normal" text-decoration="none" transform="matrix(1 0 0 1 1760.81 1778)">Notification</text><text fill="#000000" fill-opacity="1" font-family="Arial,Arial_MSFontService,sans-serif" font-style="normal" font-variant="normal" font-weight="400" font-stretch="normal" font-size="37" text-anchor="start" direction="ltr" writing-mode="lr-tb" unicode-bidi="normal" text-decoration="none" transform="matrix(1 0 0 1 2031.8 1761)">(4)</text><rect x="2662.5" y="1781.5" width="447" height="286" stroke="#FF0000" stroke-width="4.58333" stroke-linecap="butt" stroke-linejoin="round" stroke-miterlimit="10" stroke-opacity="1" fill="#C6D9F1" fill-opacity="1"/><text fill="#595959" fill-opacity="1" font-family="Arial,Arial_MSFontService,sans-serif" font-style="normal" font-variant="normal" font-weight="700" font-stretch="normal" font-size="55" text-anchor="start" direction="ltr" writing-mode="lr-tb" unicode-bidi="normal" text-decoration="none" transform="matrix(1 0 0 1 2769.51 1911)">Message</text><text fill="#595959" fill-opacity="1" font-family="Arial,Arial_MSFontService,sans-serif" font-style="normal" font-variant="normal" font-weight="700" font-stretch="normal" font-size="55" text-anchor="start" direction="ltr" writing-mode="lr-tb" unicode-bidi="normal" text-decoration="none" transform="matrix(1 0 0 1 2797.01 1977)">Broker</text><rect x="3231" y="1781" width="447" height="286" fill="#C3D69B" fill-opacity="1"/><text fill="#595959" fill-opacity="1" font-family="Arial,Arial_MSFontService,sans-serif" font-style="normal" font-variant="normal" font-weight="700" font-stretch="normal" font-size="55" text-anchor="start" direction="ltr" writing-mode="lr-tb" unicode-bidi="normal" text-decoration="none" transform="matrix(1 0 0 1 3345.96 1911)">External</text><text fill="#595959" fill-opacity="1" font-family="Arial,Arial_MSFontService,sans-serif" font-style="normal" font-variant="normal" font-weight="700" font-stretch="normal" font-size="55" text-anchor="start" direction="ltr" writing-mode="lr-tb" unicode-bidi="normal" text-decoration="none" transform="matrix(1 0 0 1 3356.85 1977)">System</text><path d="M3109.5 1919.92 3170.62 1919.92C3173.15 1919.92 3175.2 1921.97 3175.2 1924.5L3175.2 1924.5 3170.62 1919.92 3208.82 1919.92 3208.82 1929.08 3170.62 1929.08C3168.09 1929.08 3166.04 1927.03 3166.04 1924.5L3166.04 1924.5 3170.62 1929.08 3109.5 1929.08ZM3109.5 1938.25C3101.91 1938.25 3095.75 1932.09 3095.75 1924.5 3095.75 1916.91 3101.91 1910.75 3109.5 1910.75 3117.09 1910.75 3123.25 1916.91 3123.25 1924.5 3123.25 1932.09 3117.09 1938.25 3109.5 1938.25ZM3204.24 1910.75 3231.74 1924.5 3204.24 1938.25Z" fill="#4F81BD" fill-rule="nonzero" fill-opacity="1"/><rect x="2017" y="405" width="1096" height="541" fill="#1F497D" fill-opacity="1"/><text fill="#FFFFFF" fill-opacity="1" font-family="Arial,Arial_MSFontService,sans-serif" font-style="normal" font-variant="normal" font-weight="700" font-stretch="normal" font-size="83" text-anchor="start" direction="ltr" writing-mode="lr-tb" unicode-bidi="normal" text-decoration="none" transform="matrix(1 0 0 1 2150.09 657)">OpenECPDS Product</text><text fill="#FFFFFF" fill-opacity="1" font-family="Arial,Arial_MSFontService,sans-serif" font-style="normal" font-variant="normal" font-weight="700" font-stretch="normal" font-size="83" text-anchor="start" direction="ltr" writing-mode="lr-tb" unicode-bidi="normal" text-decoration="none" transform="matrix(1 0 0 1 2358.63 756)">Data Store</text><rect x="1240" y="731" width="446" height="610" fill="#C6D9F1" fill-opacity="1"/><text fill="#595959" fill-opacity="1" font-family="Arial,Arial_MSFontService,sans-serif" font-style="normal" font-variant="normal" font-weight="700" font-stretch="normal" font-size="55" text-anchor="start" direction="ltr" writing-mode="lr-tb" unicode-bidi="normal" text-decoration="none" transform="matrix(1 0 0 1 1312.87 1023)">Acquisition</text><text fill="#595959" fill-opacity="1" font-family="Arial,Arial_MSFontService,sans-serif" font-style="normal" font-variant="normal" font-weight="700" font-stretch="normal" font-size="55" text-anchor="start" direction="ltr" writing-mode="lr-tb" unicode-bidi="normal" text-decoration="none" transform="matrix(1 0 0 1 1365.58 1089)">System</text><rect x="1241" y="403" width="447" height="286" fill="#C6D9F1" fill-opacity="1"/><text fill="#595959" fill-opacity="1" font-family="Arial,Arial_MSFontService,sans-serif" font-style="normal" font-variant="normal" font-weight="700" font-stretch="normal" font-size="55" text-anchor="start" direction="ltr" writing-mode="lr-tb" unicode-bidi="normal" text-decoration="none" transform="matrix(1 0 0 1 1276.72 533)">Dissemination</text><text fill="#595959" fill-opacity="1" font-family="Arial,Arial_MSFontService,sans-serif" font-style="normal" font-variant="normal" font-weight="700" font-stretch="normal" font-size="55" text-anchor="start" direction="ltr" writing-mode="lr-tb" unicode-bidi="normal" text-decoration="none" transform="matrix(1 0 0 1 1367.24 599)">System</text><rect x="583" y="403" width="446" height="286" fill="#C3D69B" fill-opacity="1"/><text fill="#595959" fill-opacity="1" font-family="Arial,Arial_MSFontService,sans-serif" font-style="normal" font-variant="normal" font-weight="700" font-stretch="normal" font-size="55" text-anchor="start" direction="ltr" writing-mode="lr-tb" unicode-bidi="normal" text-decoration="none" transform="matrix(1 0 0 1 724.091 533)">Target</text><text fill="#595959" fill-opacity="1" font-family="Arial,Arial_MSFontService,sans-serif" font-style="normal" font-variant="normal" font-weight="700" font-stretch="normal" font-size="55" text-anchor="start" direction="ltr" writing-mode="lr-tb" unicode-bidi="normal" text-decoration="none" transform="matrix(1 0 0 1 740.385 599)">Sites</text><rect x="584" y="731" width="447" height="611" fill="#C3D69B" fill-opacity="1"/><text fill="#595959" fill-opacity="1" font-family="Arial,Arial_MSFontService,sans-serif" font-style="normal" font-variant="normal" font-weight="700" font-stretch="normal" font-size="55" text-anchor="start" direction="ltr" writing-mode="lr-tb" unicode-bidi="normal" text-decoration="none" transform="matrix(1 0 0 1 748.386 1023)">Data</text><text fill="#595959" fill-opacity="1" font-family="Arial,Arial_MSFontService,sans-serif" font-style="normal" font-variant="normal" font-weight="700" font-stretch="normal" font-size="55" text-anchor="start" direction="ltr" writing-mode="lr-tb" unicode-bidi="normal" text-decoration="none" transform="matrix(1 0 0 1 681.08 1089)">Providers</text><path d="M1245 614.25 1137 614.25 1137 677 1029 551.5 1137 426 1137 488.75 1245 488.75Z" fill="#C6D9F1" fill-rule="evenodd" fill-opacity="1"/><path d="M1240 1258.25 1135.5 1258.25 1135.5 1321 1031 1195.5 1135.5 1070 1135.5 1132.75 1240 1132.75Z" fill="#C7DAF2" fill-rule="evenodd" fill-opacity="1"/><path d="M1688.5 541.917 1852.95 541.917C1855.48 541.917 1857.53 543.969 1857.53 546.5L1857.53 675.918 1852.95 671.334 1994.48 671.334 1994.48 680.501 1852.95 680.501C1850.42 680.501 1848.37 678.449 1848.37 675.918L1848.37 546.5 1852.95 551.083 1688.5 551.083ZM1688.5 560.25C1680.91 560.25 1674.75 554.094 1674.75 546.5 1674.75 538.906 1680.91 532.75 1688.5 532.75 1696.09 532.75 1702.25 538.906 1702.25 546.5 1702.25 554.094 1696.09 560.25 1688.5 560.25ZM1989.9 662.168 2017.4 675.918 1989.9 689.668Z" fill="#4F81BD" fill-rule="nonzero" fill-opacity="1"/><path d="M0-4.58333 166.108-4.58333C168.64-4.58333 170.692-2.53131 170.692 0L170.692 360.537 161.525 360.537 161.525 0 166.108 4.58333 0 4.58333ZM0 13.75C-7.59392 13.75-13.75 7.59392-13.75 0-13.75-7.59392-7.59392-13.75 0-13.75 7.59392-13.75 13.75-7.59392 13.75 0 13.75 7.59392 7.59392 13.75 0 13.75Z" fill="#4F81BD" fill-rule="nonzero" fill-opacity="1" transform="matrix(1 0 0 -1 1686.5 1037.04)"/><text fill="#000000" fill-opacity="1" font-family="Arial,Arial_MSFontService,sans-serif" font-style="normal" font-variant="normal" font-weight="400" font-stretch="normal" font-size="55" text-anchor="start" direction="ltr" writing-mode="lr-tb" unicode-bidi="normal" text-decoration="none" transform="matrix(1 0 0 1 1724.91 510)">U</text><text fill="#000000" fill-opacity="1" font-family="Arial,Arial_MSFontService,sans-serif" font-style="normal" font-variant="normal" font-weight="400" font-stretch="normal" font-size="55" text-anchor="start" direction="ltr" writing-mode="lr-tb" unicode-bidi="normal" text-decoration="none" transform="matrix(1 0 0 1 1764.44 510)">pdate</text><text fill="#000000" fill-opacity="1" font-family="Arial,Arial_MSFontService,sans-serif" font-style="normal" font-variant="normal" font-weight="400" font-stretch="normal" font-size="37" text-anchor="start" direction="ltr" writing-mode="lr-tb" unicode-bidi="normal" text-decoration="none" transform="matrix(1 0 0 1 1901.37 493)">(2)</text><path d="M0-4.58333 334.985-4.58333C337.516-4.58333 339.568-2.53131 339.568 0L339.568 386.512 330.401 386.512 330.401 0 334.985 4.58333 0 4.58333ZM0 13.75C-7.59392 13.75-13.75 7.59392-13.75 0-13.75-7.59392-7.59392-13.75 0-13.75 7.59392-13.75 13.75-7.59392 13.75 0 13.75 7.59392 7.59392 13.75 0 13.75ZM348.735 381.928 334.985 409.428 321.235 381.928Z" fill="#4F81BD" fill-rule="nonzero" fill-opacity="1" transform="matrix(1.83697e-16 1 1 -1.83697e-16 2252.5 1589.5)"/><path d="M2941 520C2941 495.147 2961.15 475 2986 475 3010.85 475 3031 495.147 3031 520 3031 544.853 3010.85 565 2986 565 2961.15 565 2941 544.853 2941 520Z" fill="#4F81BD" fill-rule="evenodd" fill-opacity="1"/><g><g><g><path d="M23.9062 35.5937 27.0937 35.5937 27.0937 39.8436 23.9062 39.8436Z" fill="#000000" fill-rule="nonzero" fill-opacity="1" transform="matrix(1 0 0 1.01961 2960 494)"/><path d="M23.9062 41.9686 27.0937 41.9686 27.0937 45.1561 23.9062 45.1561Z" fill="#000000" fill-rule="nonzero" fill-opacity="1" transform="matrix(1 0 0 1.01961 2960 494)"/><path d="M29.2187 41.9686 44.6249 41.9686 44.6249 45.1561 29.2187 45.1561Z" fill="#000000" fill-rule="nonzero" fill-opacity="1" transform="matrix(1 0 0 1.01961 2960 494)"/><path d="M6.37498 41.9686 21.7812 41.9686 21.7812 45.1561 6.37498 45.1561Z" fill="#000000" fill-rule="nonzero" fill-opacity="1" transform="matrix(1 0 0 1.01961 2960 494)"/><path d="M40.598 27.0937 10.4018 27.0937C9.35146 27.0937 8.49998 27.9452 8.49998 28.9956L8.49998 33.6918C8.49998 34.7422 9.35146 35.5937 10.4018 35.5937L40.598 35.5937C41.6484 35.5937 42.4999 34.7422 42.4999 33.6918L42.4999 28.9956C42.4999 27.9452 41.6484 27.0937 40.598 27.0937ZM13.8125 32.4062C13.2256 32.4062 12.75 31.9305 12.75 31.3437 12.75 30.7569 13.2256 30.2812 13.8125 30.2812 14.3993 30.2812 14.875 30.7569 14.875 31.3437 14.875 31.9305 14.3993 32.4062 13.8125 32.4062ZM19.125 32.4062C18.5381 32.4062 18.0625 31.9305 18.0625 31.3437 18.0625 30.7569 18.5381 30.2812 19.125 30.2812 19.7118 30.2812 20.1874 30.7569 20.1874 31.3437 20.1874 31.9305 19.7118 32.4062 19.125 32.4062ZM24.4374 32.4062C23.8506 32.4062 23.3749 31.9305 23.3749 31.3437 23.3749 30.7569 23.8506 30.2812 24.4374 30.2812 25.0243 30.2812 25.4999 30.7569 25.4999 31.3437 25.4999 31.9305 25.0243 32.4062 24.4374 32.4062Z" fill="#000000" fill-rule="nonzero" fill-opacity="1" transform="matrix(1 0 0 1.01961 2960 494)"/><path d="M40.598 16.4687 10.4018 16.4687C9.35146 16.4687 8.49998 17.3202 8.49998 18.3706L8.49998 23.0668C8.49998 24.1172 9.35146 24.9687 10.4018 24.9687L40.598 24.9687C41.6484 24.9687 42.4999 24.1172 42.4999 23.0668L42.4999 18.3706C42.4999 17.3202 41.6484 16.4687 40.598 16.4687ZM13.8125 21.7812C13.2256 21.7812 12.75 21.3055 12.75 20.7187 12.75 20.1319 13.2256 19.6562 13.8125 19.6562 14.3993 19.6562 14.875 20.1319 14.875 20.7187 14.875 21.3055 14.3993 21.7812 13.8125 21.7812ZM19.125 21.7812C18.5381 21.7812 18.0625 21.3055 18.0625 20.7187 18.0625 20.1319 18.5381 19.6562 19.125 19.6562 19.7118 19.6562 20.1874 20.1319 20.1874 20.7187 20.1874 21.3055 19.7118 21.7812 19.125 21.7812ZM24.4374 21.7812C23.8506 21.7812 23.3749 21.3055 23.3749 20.7187 23.3749 20.1319 23.8506 19.6562 24.4374 19.6562 25.0243 19.6562 25.4999 20.1319 25.4999 20.7187 25.4999 21.3055 25.0243 21.7812 24.4374 21.7812Z" fill="#000000" fill-rule="nonzero" fill-opacity="1" transform="matrix(1 0 0 1.01961 2960 494)"/><path d="M40.598 5.84373 10.4018 5.84373C9.35146 5.84373 8.49998 6.69522 8.49998 7.7456L8.49998 12.4418C8.49998 13.4922 9.35146 14.3437 10.4018 14.3437L40.598 14.3437C41.6484 14.3437 42.4999 13.4922 42.4999 12.4418L42.4999 7.7456C42.4999 6.69522 41.6484 5.84373 40.598 5.84373ZM13.8125 11.1562C13.2256 11.1562 12.75 10.6805 12.75 10.0937 12.75 9.50691 13.2256 9.03123 13.8125 9.03123 14.3993 9.03123 14.875 9.50691 14.875 10.0937 14.875 10.6805 14.3993 11.1562 13.8125 11.1562ZM19.125 11.1562C18.5381 11.1562 18.0625 10.6805 18.0625 10.0937 18.0625 9.50691 18.5381 9.03123 19.125 9.03123 19.7118 9.03123 20.1874 9.50691 20.1874 10.0937 20.1874 10.6805 19.7118 11.1562 19.125 11.1562ZM24.4374 11.1562C23.8506 11.1562 23.3749 10.6805 23.3749 10.0937 23.3749 9.50691 23.8506 9.03123 24.4374 9.03123 25.0243 9.03123 25.4999 9.50691 25.4999 10.0937 25.4999 10.6805 25.0243 11.1562 24.4374 11.1562Z" fill="#000000" fill-rule="nonzero" fill-opacity="1" transform="matrix(1 0 0 1.01961 2960 494)"/></g></g></g><path d="M1026 808.75 1133 808.75 1133 746 1240 871.5 1133 997 1133 934.25 1026 934.25Z" fill="#C3D69B" fill-rule="evenodd" fill-opacity="1"/><text fill="#FFFFFF" fill-opacity="1" font-family="Arial,Arial_MSFontService,sans-serif" font-style="normal" font-variant="normal" font-weight="400" font-stretch="normal" font-size="55" text-anchor="start" direction="ltr" writing-mode="lr-tb" unicode-bidi="normal" text-decoration="none" transform="matrix(1 0 0 1 1026.2 889)">PUSH</text><text fill="#FFFFFF" fill-opacity="1" font-family="Arial,Arial_MSFontService,sans-serif" font-style="normal" font-variant="normal" font-weight="400" font-stretch="normal" font-size="55" text-anchor="start" direction="ltr" writing-mode="lr-tb" unicode-bidi="normal" text-decoration="none" transform="matrix(1 0 0 1 1089.6 569)">PUSH</text><text fill="#FFFFFF" fill-opacity="1" font-family="Arial,Arial_MSFontService,sans-serif" font-style="normal" font-variant="normal" font-weight="400" font-stretch="normal" font-size="55" text-anchor="start" direction="ltr" writing-mode="lr-tb" unicode-bidi="normal" text-decoration="none" transform="matrix(1 0 0 1 1094.32 1214)">PULL</text><path d="M2570.13 946.5 2570.13 1092.53C2570.13 1095.06 2568.08 1097.11 2565.55 1097.11L2255.5 1097.11 2260.08 1092.53 2260.08 1215.64 2250.92 1215.64 2250.92 1092.53C2250.92 1089.99 2252.97 1087.94 2255.5 1087.94L2565.55 1087.94 2560.97 1092.53 2560.97 946.5ZM2551.8 946.5C2551.8 938.906 2557.96 932.75 2565.55 932.75 2573.14 932.75 2579.3 938.906 2579.3 946.5 2579.3 954.094 2573.14 960.25 2565.55 960.25 2557.96 960.25 2551.8 954.094 2551.8 946.5ZM2269.25 1211.05 2255.5 1238.55 2241.75 1211.05Z" fill="#4F81BD" fill-rule="nonzero" fill-opacity="1"/></g></g></svg>