<svg width="2040" height="720" xmlns="http://www.w3.org/2000/svg" xmlns:xlink="http://www.w3.org/1999/xlink" xml:space="preserve" overflow="hidden"><g transform="translate(-1026 -760)"><g><path d="M1283.08 1145.5 1283.08 1228 1278.5 1223.42 2731.22 1223.42 2726.64 1228 2726.64 1154.57 2735.81 1154.57 2735.81 1228C2735.81 1230.53 2733.75 1232.58 2731.22 1232.58L1278.5 1232.58C1275.97 1232.58 1273.92 1230.53 1273.92 1228L1273.92 1145.5ZM2711.22 1179.77 2731.22 1145.48 2751.22 1179.77C2752.5 1181.95 2751.76 1184.76 2749.57 1186.03 2747.39 1187.31 2744.58 1186.57 2743.31 1184.38L2727.26 1156.88 2735.18 1156.88 2719.14 1184.38C2717.86 1186.57 2715.06 1187.31 2712.87 1186.03 2710.69 1184.76 2709.95 1181.95 2711.22 1179.77Z" fill="#FF0000" fill-rule="nonzero" fill-opacity="1"/><path d="M1032.5 972.167C1032.5 953.021 1048.02 937.5 1067.17 937.5L1490.83 937.5C1509.98 937.5 1525.5 953.021 1525.5 972.167L1525.5 1110.83C1525.5 1129.98 1509.98 1145.5 1490.83 1145.5L1067.17 1145.5C1048.02 1145.5 1032.5 1129.98 1032.5 1110.83Z" stroke="#4A7EBB" stroke-width="3.4375" stroke-linecap="butt" stroke-linejoin="round" stroke-miterlimit="10" stroke-opacity="1" fill="#8EB4E4" fill-rule="evenodd" fill-opacity="1"/><text fill="#FFFFFF" fill-opacity="1" font-family="Arial,Arial_MSFontService,sans-serif" font-style="normal" font-variant="normal" font-weight="700" font-stretch="normal" font-size="55" text-anchor="start" direction="ltr" writing-mode="lr-tb" unicode-bidi="normal" text-decoration="none" transform="matrix(1 0 0 1 1113.48 1028)">OpenECPD</text><text fill="#FFFFFF" fill-opacity="1" font-family="Arial,Arial_MSFontService,sans-serif" font-style="normal" font-variant="normal" font-weight="700" font-stretch="normal" font-size="55" text-anchor="start" direction="ltr" writing-mode="lr-tb" unicode-bidi="normal" text-decoration="none" transform="matrix(1 0 0 1 1406.81 1028)">S</text><text fill="#FFFFFF" fill-opacity="1" font-family="Arial,Arial_MSFontService,sans-serif" font-style="normal" font-variant="normal" font-weight="700" font-stretch="normal" font-size="55" text-anchor="start" direction="ltr" writing-mode="lr-tb" unicode-bidi="normal" text-decoration="none" transform="matrix(1 0 0 1 1130.67 1094)">Data Mover</text><path d="M1764.5 806.833C1764.5 787.871 1779.87 772.5 1798.83 772.5L2223.17 772.5C2242.13 772.5 2257.5 787.871 2257.5 806.833L2257.5 944.167C2257.5 963.129 2242.13 978.5 2223.17 978.5L1798.83 978.5C1779.87 978.5 1764.5 963.129 1764.5 944.167Z" stroke="#4A7EBB" stroke-width="3.4375" stroke-linecap="butt" stroke-linejoin="round" stroke-miterlimit="10" stroke-opacity="1" fill="#8EB4E4" fill-rule="evenodd" fill-opacity="1"/><text fill="#FFFFFF" fill-opacity="1" font-family="Arial,Arial_MSFontService,sans-serif" font-style="normal" font-variant="normal" font-weight="700" font-stretch="normal" font-size="55" text-anchor="start" direction="ltr" writing-mode="lr-tb" unicode-bidi="normal" text-decoration="none" transform="matrix(1 0 0 1 1858.99 862)">Continental</text><text fill="#FFFFFF" fill-opacity="1" font-family="Arial,Arial_MSFontService,sans-serif" font-style="normal" font-variant="normal" font-weight="700" font-stretch="normal" font-size="55" text-anchor="start" direction="ltr" writing-mode="lr-tb" unicode-bidi="normal" text-decoration="none" transform="matrix(1 0 0 1 1862.7 928)">Data Mover</text><path d="M2484.5 973.833C2484.5 954.871 2499.87 939.5 2518.83 939.5L2944.17 939.5C2963.13 939.5 2978.5 954.871 2978.5 973.833L2978.5 1111.17C2978.5 1130.13 2963.13 1145.5 2944.17 1145.5L2518.83 1145.5C2499.87 1145.5 2484.5 1130.13 2484.5 1111.17Z" stroke="#4A7EBB" stroke-width="3.4375" stroke-linecap="butt" stroke-linejoin="round" stroke-miterlimit="10" stroke-opacity="1" fill="#8EB4E4" fill-rule="evenodd" fill-opacity="1"/><text fill="#FFFFFF" fill-opacity="1" font-family="Arial,Arial_MSFontService,sans-serif" font-style="normal" font-variant="normal" font-weight="700" font-stretch="normal" font-size="55" text-anchor="start" direction="ltr" writing-mode="lr-tb" unicode-bidi="normal" text-decoration="none" transform="matrix(1 0 0 1 2649.32 1029)">Target</text><text fill="#FFFFFF" fill-opacity="1" font-family="Arial,Arial_MSFontService,sans-serif" font-style="normal" font-variant="normal" font-weight="700" font-stretch="normal" font-size="55" text-anchor="start" direction="ltr" writing-mode="lr-tb" unicode-bidi="normal" text-decoration="none" transform="matrix(1 0 0 1 2636.67 1095)">Host(s)</text><path d="M1273.92 937.87 1273.92 910.37 1283.08 910.37 1283.08 937.87ZM1273.92 901.203 1273.92 875.5C1273.92 872.969 1275.97 870.917 1278.5 870.917L1280.3 870.917 1280.3 880.084 1278.5 880.084 1283.08 875.5 1283.08 901.203ZM1289.46 870.917 1316.96 870.917 1316.96 880.084 1289.46 880.084ZM1326.13 870.917 1353.63 870.917 1353.63 880.084 1326.13 880.084ZM1362.8 870.917 1390.3 870.917 1390.3 880.084 1362.8 880.084ZM1399.46 870.917 1426.96 870.917 1426.96 880.084 1399.46 880.084ZM1436.13 870.917 1463.63 870.917 1463.63 880.084 1436.13 880.084ZM1472.8 870.917 1500.3 870.917 1500.3 880.084 1472.8 880.084ZM1509.46 870.917 1536.96 870.917 1536.96 880.084 1509.46 880.084ZM1546.13 870.917 1573.63 870.917 1573.63 880.084 1546.13 880.084ZM1582.8 870.917 1610.3 870.917 1610.3 880.084 1582.8 880.084ZM1619.46 870.917 1646.96 870.917 1646.96 880.084 1619.46 880.084ZM1656.13 870.917 1683.63 870.917 1683.63 880.084 1656.13 880.084ZM1692.8 870.917 1720.3 870.917 1720.3 880.084 1692.8 880.084ZM1729.46 870.917 1754.67 870.917 1754.67 880.084 1729.46 880.084ZM1729.48 855.5 1763.76 875.5 1729.48 895.501C1727.29 896.776 1724.48 896.038 1723.21 893.851 1721.93 891.665 1722.67 888.858 1724.86 887.583L1752.36 871.541 1752.36 879.459 1724.86 863.418C1722.67 862.142 1721.93 859.336 1723.21 857.149 1724.48 854.963 1727.29 854.224 1729.48 855.5Z" fill="#00B050" fill-rule="nonzero" fill-opacity="1"/><path d="M2257.5 870.917 2731.37 870.917C2733.9 870.917 2735.96 872.969 2735.96 875.5L2735.96 930.334 2726.79 930.334 2726.79 875.5 2731.37 880.083 2257.5 880.083ZM2751.37 905.143 2731.37 939.43 2711.37 905.143C2710.1 902.957 2710.83 900.151 2713.02 898.875 2715.21 897.6 2718.01 898.338 2719.29 900.525L2735.33 928.025 2727.41 928.025 2743.46 900.525C2744.73 898.338 2747.54 897.6 2749.72 898.875 2751.91 900.151 2752.65 902.957 2751.37 905.143Z" fill="#00B050" fill-rule="nonzero" fill-opacity="1"/><text fill="#000000" fill-opacity="1" font-family="Arial,Arial_MSFontService,sans-serif" font-style="normal" font-variant="normal" font-weight="400" font-stretch="normal" font-size="55" text-anchor="start" direction="ltr" writing-mode="lr-tb" unicode-bidi="normal" text-decoration="none" transform="matrix(1 0 0 1 2298.7 832)">disseminate</text><text fill="#000000" fill-opacity="1" font-family="Arial,Arial_MSFontService,sans-serif" font-style="normal" font-variant="normal" font-weight="400" font-stretch="normal" font-size="55" text-anchor="start" direction="ltr" writing-mode="lr-tb" unicode-bidi="normal" text-decoration="none" transform="matrix(1 0 0 1 1338.67 1300)">disseminate</text><text fill="#000000" fill-opacity="1" font-family="Arial,Arial_MSFontService,sans-serif" font-style="normal" font-variant="normal" font-weight="400" font-stretch="normal" font-size="55" text-anchor="start" direction="ltr" writing-mode="lr-tb" unicode-bidi="normal" text-decoration="none" transform="matrix(1 0 0 1 1219.45 835)">before schedule</text></g></g></svg>