<svg width="2594" height="1316" xmlns="http://www.w3.org/2000/svg" xmlns:xlink="http://www.w3.org/1999/xlink" xml:space="preserve" overflow="hidden"><g transform="translate(-696 -595)"><g><text fill="#0070C0" fill-opacity="1" font-family="Arial,Arial_MSFontService,sans-serif" font-style="normal" font-variant="normal" font-weight="400" font-stretch="normal" font-size="55" text-anchor="start" direction="ltr" writing-mode="lr-tb" unicode-bidi="normal" text-decoration="none" transform="matrix(1 0 0 1 1421.63 1510)">(3)</text><text fill="#0070C0" fill-opacity="1" font-family="Arial,Arial_MSFontService,sans-serif" font-style="normal" font-variant="normal" font-weight="400" font-stretch="normal" font-size="83" text-anchor="start" direction="ltr" writing-mode="lr-tb" unicode-bidi="normal" text-decoration="none" transform="matrix(1 0 0 1 1511.57 1535)">Mover </text><text fill="#0070C0" fill-opacity="1" font-family="Arial,Arial_MSFontService,sans-serif" font-style="normal" font-variant="normal" font-weight="400" font-stretch="normal" font-size="83" text-anchor="start" direction="ltr" writing-mode="lr-tb" unicode-bidi="normal" text-decoration="none" transform="matrix(1 0 0 1 1759.1 1535)">Addr</text><text fill="#0070C0" fill-opacity="1" font-family="Arial,Arial_MSFontService,sans-serif" font-style="normal" font-variant="normal" font-weight="400" font-stretch="normal" font-size="83" text-anchor="start" direction="ltr" writing-mode="lr-tb" unicode-bidi="normal" text-decoration="none" transform="matrix(1 0 0 1 1928.7 1535)">. </text><text fill="#0070C0" fill-opacity="1" font-family="Arial,Arial_MSFontService,sans-serif" font-style="normal" font-variant="normal" font-weight="400" font-stretch="normal" font-size="83" text-anchor="start" direction="ltr" writing-mode="lr-tb" unicode-bidi="normal" text-decoration="none" transform="matrix(1 0 0 1 1421.63 1634)">&amp; ID</text><rect x="1196.5" y="1131.5" width="656" height="216" stroke="#385D8A" stroke-width="9.16667" stroke-linecap="butt" stroke-linejoin="round" stroke-miterlimit="10" stroke-opacity="1" fill="#D9D9D9" fill-opacity="1"/><text fill="#000000" fill-opacity="1" font-family="Arial,Arial_MSFontService,sans-serif" font-style="normal" font-variant="normal" font-weight="400" font-stretch="normal" font-size="55" text-anchor="start" direction="ltr" writing-mode="lr-tb" unicode-bidi="normal" text-decoration="none" transform="matrix(1 0 0 1 1359.58 1226)">Mover Server</text><text fill="#000000" fill-opacity="1" font-family="Arial,Arial_MSFontService,sans-serif" font-style="normal" font-variant="normal" font-weight="400" font-stretch="normal" font-size="55" text-anchor="start" direction="ltr" writing-mode="lr-tb" unicode-bidi="normal" text-decoration="none" transform="matrix(1 0 0 1 1315.47 1292)">(Allocated by LB)</text><rect x="1061.5" y="1667.5" width="656" height="216" stroke="#385D8A" stroke-width="9.16667" stroke-linecap="butt" stroke-linejoin="round" stroke-miterlimit="10" stroke-opacity="1" fill="#8EB4E3" fill-opacity="1"/><text fill="#000000" fill-opacity="1" font-family="Arial,Arial_MSFontService,sans-serif" font-style="normal" font-variant="normal" font-weight="400" font-stretch="normal" font-size="73" text-anchor="start" direction="ltr" writing-mode="lr-tb" unicode-bidi="normal" text-decoration="none" transform="matrix(1 0 0 1 1094.11 1758)">Master</text><text fill="#000000" fill-opacity="1" font-family="Arial,Arial_MSFontService,sans-serif" font-style="normal" font-variant="normal" font-weight="400" font-stretch="normal" font-size="73" text-anchor="start" direction="ltr" writing-mode="lr-tb" unicode-bidi="normal" text-decoration="none" transform="matrix(1 0 0 1 1094.11 1846)">Server</text><rect x="2268.5" y="1540.5" width="655" height="216" stroke="#385D8A" stroke-width="9.16667" stroke-linecap="butt" stroke-linejoin="round" stroke-miterlimit="10" stroke-opacity="1" fill="#D9D9D9" fill-opacity="1"/><text fill="#000000" fill-opacity="1" font-family="Arial,Arial_MSFontService,sans-serif" font-style="normal" font-variant="normal" font-weight="400" font-stretch="normal" font-size="55" text-anchor="start" direction="ltr" writing-mode="lr-tb" unicode-bidi="normal" text-decoration="none" transform="matrix(1 0 0 1 2430.65 1635)">Mover Server</text><text fill="#000000" fill-opacity="1" font-family="Arial,Arial_MSFontService,sans-serif" font-style="normal" font-variant="normal" font-weight="400" font-stretch="normal" font-size="55" text-anchor="start" direction="ltr" writing-mode="lr-tb" unicode-bidi="normal" text-decoration="none" transform="matrix(1 0 0 1 2490.24 1701)">(Source)</text><path d="M0-4.58333 217.844-4.58333C220.375-4.58333 222.427-2.53131 222.427 0L222.427 536.004C222.427 538.535 220.375 540.587 217.844 540.587L176.594 540.587 176.594 531.421 217.844 531.421 213.26 536.004 213.26 0 217.844 4.58333 0 4.58333ZM181.177 558.921 135.344 536.004 181.177 513.087Z" fill="#4F81BD" fill-rule="nonzero" fill-opacity="1" transform="matrix(-1 1.22465e-16 1.22465e-16 1 1196.84 1239.5)"/><path d="M1384.92 1667.11 1384.92 1433.97C1384.92 1431.44 1386.97 1429.39 1389.5 1429.39L1524.84 1429.39 1520.26 1433.97 1520.26 1388.75 1529.43 1388.75 1529.43 1433.97C1529.43 1436.5 1527.37 1438.55 1524.84 1438.55L1389.5 1438.55 1394.08 1433.97 1394.08 1667.11ZM1501.93 1393.33 1524.84 1347.5 1547.76 1393.33Z" fill="#4F81BD" fill-rule="nonzero" fill-opacity="1"/><path d="M1852.5 1234.92 2104.2 1234.92C2106.73 1234.92 2108.78 1236.97 2108.78 1239.5L2108.78 1648.55 2104.2 1643.96 2226.65 1643.96 2226.65 1653.13 2104.2 1653.13C2101.67 1653.13 2099.61 1651.08 2099.61 1648.55L2099.61 1239.5 2104.2 1244.08 1852.5 1244.08ZM2222.06 1625.63 2267.9 1648.55 2222.06 1671.46Z" fill="#4F81BD" fill-rule="nonzero" fill-opacity="1"/><text fill="#0070C0" fill-opacity="1" font-family="Arial,Arial_MSFontService,sans-serif" font-style="normal" font-variant="normal" font-weight="400" font-stretch="normal" font-size="55" text-anchor="start" direction="ltr" writing-mode="lr-tb" unicode-bidi="normal" text-decoration="none" transform="matrix(1 0 0 1 2131.89 1313)">(4)</text><text fill="#0070C0" fill-opacity="1" font-family="Arial,Arial_MSFontService,sans-serif" font-style="normal" font-variant="normal" font-weight="400" font-stretch="normal" font-size="83" text-anchor="start" direction="ltr" writing-mode="lr-tb" unicode-bidi="normal" text-decoration="none" transform="matrix(1 0 0 1 2221.84 1338)">ID</text><path d="M0-4.58333 460.903-4.58333C463.434-4.58333 465.486-2.53131 465.486 0L465.486 96.8523 460.903 92.269 583.559 92.269 583.559 101.436 460.903 101.436C458.372 101.436 456.32 99.3836 456.32 96.8523L456.32 0 460.903 4.58333 0 4.58333ZM578.976 73.9357 624.809 96.8523 578.976 119.769Z" fill="#4F81BD" fill-rule="nonzero" fill-opacity="1" transform="matrix(1 0 0 -1 1852.5 1028.35)"/><rect x="1196.5" y="920.5" width="656" height="216" stroke="#385D8A" stroke-width="9.16667" stroke-linecap="butt" stroke-linejoin="round" stroke-miterlimit="10" stroke-opacity="1" fill="#D9D9D9" fill-opacity="1"/><text fill="#000000" fill-opacity="1" font-family="Arial,Arial_MSFontService,sans-serif" font-style="normal" font-variant="normal" font-weight="400" font-stretch="normal" font-size="55" text-anchor="start" direction="ltr" writing-mode="lr-tb" unicode-bidi="normal" text-decoration="none" transform="matrix(1 0 0 1 1340.39 1015)">ftp, sftp</text><text fill="#000000" fill-opacity="1" font-family="Arial,Arial_MSFontService,sans-serif" font-style="normal" font-variant="normal" font-weight="400" font-stretch="normal" font-size="55" text-anchor="start" direction="ltr" writing-mode="lr-tb" unicode-bidi="normal" text-decoration="none" transform="matrix(1 0 0 1 1536.9 1015)">&amp; https </text><text fill="#000000" fill-opacity="1" font-family="Arial,Arial_MSFontService,sans-serif" font-style="normal" font-variant="normal" font-weight="400" font-stretch="normal" font-size="55" text-anchor="start" direction="ltr" writing-mode="lr-tb" unicode-bidi="normal" text-decoration="none" transform="matrix(1 0 0 1 1411.73 1081)">daemons</text><rect x="2477.5" y="823.5" width="656" height="216" stroke="#385D8A" stroke-width="9.16667" stroke-linecap="butt" stroke-linejoin="round" stroke-miterlimit="10" stroke-opacity="1" fill="#FCD5B5" fill-opacity="1"/><text fill="#000000" fill-opacity="1" font-family="Arial,Arial_MSFontService,sans-serif" font-style="normal" font-variant="normal" font-weight="400" font-stretch="normal" font-size="55" text-anchor="start" direction="ltr" writing-mode="lr-tb" unicode-bidi="normal" text-decoration="none" transform="matrix(1 0 0 1 2518.32 918)">ftp, sftp,</text><text fill="#000000" fill-opacity="1" font-family="Arial,Arial_MSFontService,sans-serif" font-style="normal" font-variant="normal" font-weight="400" font-stretch="normal" font-size="55" text-anchor="start" direction="ltr" writing-mode="lr-tb" unicode-bidi="normal" text-decoration="none" transform="matrix(1 0 0 1 2730.3 918)">scp,</text><text fill="#000000" fill-opacity="1" font-family="Arial,Arial_MSFontService,sans-serif" font-style="normal" font-variant="normal" font-weight="400" font-stretch="normal" font-size="55" text-anchor="start" direction="ltr" writing-mode="lr-tb" unicode-bidi="normal" text-decoration="none" transform="matrix(1 0 0 1 2846.6 918)">https</text><text fill="#000000" fill-opacity="1" font-family="Arial,Arial_MSFontService,sans-serif" font-style="normal" font-variant="normal" font-weight="400" font-stretch="normal" font-size="55" text-anchor="start" direction="ltr" writing-mode="lr-tb" unicode-bidi="normal" text-decoration="none" transform="matrix(1 0 0 1 2981.24 918)">&amp; s3 </text><text fill="#000000" fill-opacity="1" font-family="Arial,Arial_MSFontService,sans-serif" font-style="normal" font-variant="normal" font-weight="400" font-stretch="normal" font-size="55" text-anchor="start" direction="ltr" writing-mode="lr-tb" unicode-bidi="normal" text-decoration="none" transform="matrix(1 0 0 1 2727.16 984)">clients</text><path d="M2800.4 823.5 2800.4 741 2804.99 745.584 1524.5 745.584 1529.08 741 1529.08 879.103 1519.92 879.103 1519.92 741C1519.92 738.469 1521.97 736.417 1524.5 736.417L2804.99 736.417C2807.52 736.417 2809.57 738.469 2809.57 741L2809.57 823.5ZM1547.42 874.519 1524.5 920.353 1501.58 874.519Z" fill="#4F81BD" fill-rule="nonzero" fill-opacity="1"/><text fill="#0070C0" fill-opacity="1" font-family="Arial,Arial_MSFontService,sans-serif" font-style="normal" font-variant="normal" font-weight="400" font-stretch="normal" font-size="55" text-anchor="start" direction="ltr" writing-mode="lr-tb" unicode-bidi="normal" text-decoration="none" transform="matrix(1 0 0 1 1542.53 681)">(1)</text><text fill="#0070C0" fill-opacity="1" font-family="Arial,Arial_MSFontService,sans-serif" font-style="normal" font-variant="normal" font-weight="400" font-stretch="normal" font-size="83" text-anchor="start" direction="ltr" writing-mode="lr-tb" unicode-bidi="normal" text-decoration="none" transform="matrix(1 0 0 1 1632.47 706)">Sourc</text><text fill="#0070C0" fill-opacity="1" font-family="Arial,Arial_MSFontService,sans-serif" font-style="normal" font-variant="normal" font-weight="400" font-stretch="normal" font-size="83" text-anchor="start" direction="ltr" writing-mode="lr-tb" unicode-bidi="normal" text-decoration="none" transform="matrix(1 0 0 1 1847.89 706)">e</text><text fill="#0070C0" fill-opacity="1" font-family="Arial,Arial_MSFontService,sans-serif" font-style="normal" font-variant="normal" font-weight="400" font-stretch="normal" font-size="83" text-anchor="start" direction="ltr" writing-mode="lr-tb" unicode-bidi="normal" text-decoration="none" transform="matrix(1 0 0 1 1916.64 706)">Filename &amp; Directory</text><path d="M0-4.58333 403.961-4.58333C406.492-4.58333 408.544-2.53131 408.544 0L408.544 701.984 399.377 701.984 399.377 0 403.961 4.58333 0 4.58333ZM426.877 697.401 403.961 743.234 381.044 697.401Z" fill="#4F81BD" fill-rule="nonzero" fill-opacity="1" transform="matrix(-1.83697e-16 -1 -1 1.83697e-16 2595.73 1540.46)"/><text fill="#0070C0" fill-opacity="1" font-family="Arial,Arial_MSFontService,sans-serif" font-style="normal" font-variant="normal" font-weight="400" font-stretch="normal" font-size="55" text-anchor="start" direction="ltr" writing-mode="lr-tb" unicode-bidi="normal" text-decoration="none" transform="matrix(1 0 0 1 2614.55 1208)">(5)</text><text fill="#0070C0" fill-opacity="1" font-family="Arial,Arial_MSFontService,sans-serif" font-style="normal" font-variant="normal" font-weight="400" font-stretch="normal" font-size="83" text-anchor="start" direction="ltr" writing-mode="lr-tb" unicode-bidi="normal" text-decoration="none" transform="matrix(1 0 0 1 2704.5 1233)">F</text><text fill="#0070C0" fill-opacity="1" font-family="Arial,Arial_MSFontService,sans-serif" font-style="normal" font-variant="normal" font-weight="400" font-stretch="normal" font-size="83" text-anchor="start" direction="ltr" writing-mode="lr-tb" unicode-bidi="normal" text-decoration="none" transform="matrix(1 0 0 1 2754.91 1233)">ile </text><text fill="#0070C0" fill-opacity="1" font-family="Arial,Arial_MSFontService,sans-serif" font-style="normal" font-variant="normal" font-weight="400" font-stretch="normal" font-size="83" text-anchor="start" direction="ltr" writing-mode="lr-tb" unicode-bidi="normal" text-decoration="none" transform="matrix(1 0 0 1 2860.33 1233)">C</text><text fill="#0070C0" fill-opacity="1" font-family="Arial,Arial_MSFontService,sans-serif" font-style="normal" font-variant="normal" font-weight="400" font-stretch="normal" font-size="83" text-anchor="start" direction="ltr" writing-mode="lr-tb" unicode-bidi="normal" text-decoration="none" transform="matrix(1 0 0 1 2919.91 1233)">ontent</text><text fill="#0070C0" fill-opacity="1" font-family="Arial,Arial_MSFontService,sans-serif" font-style="normal" font-variant="normal" font-weight="400" font-stretch="normal" font-size="55" text-anchor="start" direction="ltr" writing-mode="lr-tb" unicode-bidi="normal" text-decoration="none" transform="matrix(1 0 0 1 1874.82 855)">(6)</text><text fill="#0070C0" fill-opacity="1" font-family="Arial,Arial_MSFontService,sans-serif" font-style="normal" font-variant="normal" font-weight="400" font-stretch="normal" font-size="83" text-anchor="start" direction="ltr" writing-mode="lr-tb" unicode-bidi="normal" text-decoration="none" transform="matrix(1 0 0 1 1964.77 880)">File</text><text fill="#0070C0" fill-opacity="1" font-family="Arial,Arial_MSFontService,sans-serif" font-style="normal" font-variant="normal" font-weight="400" font-stretch="normal" font-size="83" text-anchor="start" direction="ltr" writing-mode="lr-tb" unicode-bidi="normal" text-decoration="none" transform="matrix(1 0 0 1 1874.82 979)">Content</text><text fill="#0070C0" fill-opacity="1" font-family="Arial,Arial_MSFontService,sans-serif" font-style="normal" font-variant="normal" font-weight="400" font-stretch="normal" font-size="83" text-anchor="start" direction="ltr" writing-mode="lr-tb" unicode-bidi="normal" text-decoration="none" transform="matrix(1 0 0 1 748.225 1196)">Metadata</text><text fill="#0070C0" fill-opacity="1" font-family="Arial,Arial_MSFontService,sans-serif" font-style="normal" font-variant="normal" font-weight="400" font-stretch="normal" font-size="55" text-anchor="start" direction="ltr" writing-mode="lr-tb" unicode-bidi="normal" text-decoration="none" transform="matrix(1 0 0 1 1107.44 1171)">(2)</text><g><g><g><path d="M164.667 39C164.667 48.5729 137.505 56.3333 104 56.3333 70.4947 56.3333 43.3333 48.5729 43.3333 39 43.3333 29.4271 70.4947 21.6667 104 21.6667 137.505 21.6667 164.667 29.4271 164.667 39Z" fill="#000000" fill-rule="nonzero" fill-opacity="1" transform="matrix(1.23558 0 0 1 1456 1664)"/><path d="M147.333 82.3333C144.733 82.3333 143 80.6 143 78 143 75.4 144.733 73.6667 147.333 73.6667 149.933 73.6667 151.667 75.4 151.667 78 151.667 80.6 149.933 82.3333 147.333 82.3333ZM104 65C70.6333 65 43.3333 57.2 43.3333 47.6667L43.3333 82.3333C43.3333 91.8667 70.6333 99.6666 104 99.6666 137.367 99.6666 164.667 91.8667 164.667 82.3333L164.667 47.6667C164.667 57.2 137.367 65 104 65Z" fill="#000000" fill-rule="nonzero" fill-opacity="1" transform="matrix(1.23558 0 0 1 1456 1664)"/><path d="M147.333 125.667C144.733 125.667 143 123.933 143 121.333 143 118.733 144.733 117 147.333 117 149.933 117 151.667 118.733 151.667 121.333 151.667 123.933 149.933 125.667 147.333 125.667ZM104 108.333C70.6333 108.333 43.3333 100.533 43.3333 91L43.3333 125.667C43.3333 135.2 70.6333 143 104 143 137.367 143 164.667 135.2 164.667 125.667L164.667 91C164.667 100.533 137.367 108.333 104 108.333Z" fill="#000000" fill-rule="nonzero" fill-opacity="1" transform="matrix(1.23558 0 0 1 1456 1664)"/><path d="M147.333 169C144.733 169 143 167.267 143 164.667 143 162.067 144.733 160.333 147.333 160.333 149.933 160.333 151.667 162.067 151.667 164.667 151.667 167.267 149.933 169 147.333 169ZM104 151.667C70.6333 151.667 43.3333 143.867 43.3333 134.333L43.3333 169C43.3333 178.533 70.6333 186.333 104 186.333 137.367 186.333 164.667 178.533 164.667 169L164.667 134.333C164.667 143.867 137.367 151.667 104 151.667Z" fill="#000000" fill-rule="nonzero" fill-opacity="1" transform="matrix(1.23558 0 0 1 1456 1664)"/></g></g></g></g></g></svg>