<svg width="2429" height="1159" xmlns="http://www.w3.org/2000/svg" xmlns:xlink="http://www.w3.org/1999/xlink" xml:space="preserve" overflow="hidden"><g transform="translate(-994 -591)"><g><rect x="1475.5" y="817.5" width="655" height="216" stroke="#385D8A" stroke-width="9.16667" stroke-linecap="butt" stroke-linejoin="round" stroke-miterlimit="10" stroke-opacity="1" fill="#FCD5B5" fill-opacity="1"/><text fill="#000000" fill-opacity="1" font-family="Arial,Arial_MSFontService,sans-serif" font-style="normal" font-variant="normal" font-weight="400" font-stretch="normal" font-size="55" text-anchor="start" direction="ltr" writing-mode="lr-tb" unicode-bidi="normal" text-decoration="none" transform="matrix(1 0 0 1 1601.28 945)">ecpds command</text><rect x="1339.5" y="1444.5" width="656" height="217" stroke="#385D8A" stroke-width="9.16667" stroke-linecap="butt" stroke-linejoin="round" stroke-miterlimit="10" stroke-opacity="1" fill="#8EB4E3" fill-opacity="1"/><text fill="#000000" fill-opacity="1" font-family="Arial,Arial_MSFontService,sans-serif" font-style="normal" font-variant="normal" font-weight="400" font-stretch="normal" font-size="73" text-anchor="start" direction="ltr" writing-mode="lr-tb" unicode-bidi="normal" text-decoration="none" transform="matrix(1 0 0 1 1372.2 1535)">Master</text><text fill="#000000" fill-opacity="1" font-family="Arial,Arial_MSFontService,sans-serif" font-style="normal" font-variant="normal" font-weight="400" font-stretch="normal" font-size="73" text-anchor="start" direction="ltr" writing-mode="lr-tb" unicode-bidi="normal" text-decoration="none" transform="matrix(1 0 0 1 1372.2 1623)">Server</text><rect x="2546.5" y="1226.5" width="655" height="216" stroke="#385D8A" stroke-width="9.16667" stroke-linecap="butt" stroke-linejoin="round" stroke-miterlimit="10" stroke-opacity="1" fill="#D9D9D9" fill-opacity="1"/><text fill="#000000" fill-opacity="1" font-family="Arial,Arial_MSFontService,sans-serif" font-style="normal" font-variant="normal" font-weight="400" font-stretch="normal" font-size="55" text-anchor="start" direction="ltr" writing-mode="lr-tb" unicode-bidi="normal" text-decoration="none" transform="matrix(1 0 0 1 2708.74 1354)">Mover Server</text><path d="M0-4.58333 217.844-4.58333C220.375-4.58333 222.427-2.53131 222.427 0L222.427 627.279C222.427 629.81 220.375 631.862 217.844 631.862L176.594 631.862 176.594 622.696 217.844 622.696 213.26 627.279 213.26 0 217.844 4.58333 0 4.58333ZM181.177 650.196 135.344 627.279 181.177 604.362Z" fill="#4F81BD" fill-rule="nonzero" fill-opacity="1" transform="matrix(-1 1.22465e-16 1.22465e-16 1 1474.84 925.5)"/><path d="M1662.92 1444.38 1662.92 1147.66C1662.92 1145.13 1664.97 1143.08 1667.5 1143.08L1802.84 1143.08 1798.26 1147.66 1798.26 1074.75 1807.43 1074.75 1807.43 1147.66C1807.43 1150.2 1805.38 1152.25 1802.84 1152.25L1667.5 1152.25 1672.08 1147.66 1672.08 1444.38ZM1779.93 1079.33 1802.84 1033.5 1825.76 1079.33Z" fill="#4F81BD" fill-rule="nonzero" fill-opacity="1"/><path d="M2130.5 920.917 2338.2 920.917C2340.73 920.917 2342.78 922.969 2342.78 925.5L2342.78 1334.55 2338.2 1329.96 2504.65 1329.96 2504.65 1339.13 2338.2 1339.13C2335.67 1339.13 2333.61 1337.08 2333.61 1334.55L2333.61 925.5 2338.2 930.083 2130.5 930.083ZM2500.06 1311.63 2545.9 1334.55 2500.06 1357.46Z" fill="#4F81BD" fill-rule="nonzero" fill-opacity="1"/><text fill="#0070C0" fill-opacity="1" font-family="Arial,Arial_MSFontService,sans-serif" font-style="normal" font-variant="normal" font-weight="400" font-stretch="normal" font-size="83" text-anchor="start" direction="ltr" writing-mode="lr-tb" unicode-bidi="normal" text-decoration="none" transform="matrix(1 0 0 1 1046.48 892)">Metadata</text><text fill="#0070C0" fill-opacity="1" font-family="Arial,Arial_MSFontService,sans-serif" font-style="normal" font-variant="normal" font-weight="400" font-stretch="normal" font-size="55" text-anchor="start" direction="ltr" writing-mode="lr-tb" unicode-bidi="normal" text-decoration="none" transform="matrix(1 0 0 1 1390.23 867)">(1)</text><text fill="#0070C0" fill-opacity="1" font-family="Arial,Arial_MSFontService,sans-serif" font-style="normal" font-variant="normal" font-weight="400" font-stretch="normal" font-size="55" text-anchor="start" direction="ltr" writing-mode="lr-tb" unicode-bidi="normal" text-decoration="none" transform="matrix(1 0 0 1 1682.29 1391)">(2)</text><text fill="#0070C0" fill-opacity="1" font-family="Arial,Arial_MSFontService,sans-serif" font-style="normal" font-variant="normal" font-weight="400" font-stretch="normal" font-size="83" text-anchor="start" direction="ltr" writing-mode="lr-tb" unicode-bidi="normal" text-decoration="none" transform="matrix(1 0 0 1 1772.23 1416)">Mover </text><text fill="#0070C0" fill-opacity="1" font-family="Arial,Arial_MSFontService,sans-serif" font-style="normal" font-variant="normal" font-weight="400" font-stretch="normal" font-size="83" text-anchor="start" direction="ltr" writing-mode="lr-tb" unicode-bidi="normal" text-decoration="none" transform="matrix(1 0 0 1 2019.76 1416)">Addr</text><text fill="#0070C0" fill-opacity="1" font-family="Arial,Arial_MSFontService,sans-serif" font-style="normal" font-variant="normal" font-weight="400" font-stretch="normal" font-size="83" text-anchor="start" direction="ltr" writing-mode="lr-tb" unicode-bidi="normal" text-decoration="none" transform="matrix(1 0 0 1 2189.36 1416)">. &amp; ID</text><text fill="#0070C0" fill-opacity="1" font-family="Arial,Arial_MSFontService,sans-serif" font-style="normal" font-variant="normal" font-weight="400" font-stretch="normal" font-size="55" text-anchor="start" direction="ltr" writing-mode="lr-tb" unicode-bidi="normal" text-decoration="none" transform="matrix(1 0 0 1 2146.11 875)">(3)</text><text fill="#0070C0" fill-opacity="1" font-family="Arial,Arial_MSFontService,sans-serif" font-style="normal" font-variant="normal" font-weight="400" font-stretch="normal" font-size="83" text-anchor="start" direction="ltr" writing-mode="lr-tb" unicode-bidi="normal" text-decoration="none" transform="matrix(1 0 0 1 2236.06 900)">ID &amp; </text><text fill="#0070C0" fill-opacity="1" font-family="Arial,Arial_MSFontService,sans-serif" font-style="normal" font-variant="normal" font-weight="400" font-stretch="normal" font-size="83" text-anchor="start" direction="ltr" writing-mode="lr-tb" unicode-bidi="normal" text-decoration="none" transform="matrix(1 0 0 1 2419.39 900)">File Content</text><rect x="1475.5" y="598.5" width="655" height="217" stroke="#385D8A" stroke-width="9.16667" stroke-linecap="butt" stroke-linejoin="round" stroke-miterlimit="10" stroke-opacity="1" fill="#FCD5B5" fill-opacity="1"/><text fill="#000000" fill-opacity="1" font-family="Arial,Arial_MSFontService,sans-serif" font-style="normal" font-variant="normal" font-weight="400" font-stretch="normal" font-size="55" text-anchor="start" direction="ltr" writing-mode="lr-tb" unicode-bidi="normal" text-decoration="none" transform="matrix(1 0 0 1 1692.66 727)">Data File</text><path d="M2878.5 1442.5 2878.5 1743.23C2878.5 1745.76 2876.45 1747.82 2873.92 1747.82L1667.5 1747.82C1664.97 1747.82 1662.92 1745.76 1662.92 1743.23L1662.92 1701.98 1672.08 1701.98 1672.08 1743.23 1667.5 1738.65 2873.92 1738.65 2869.33 1743.23 2869.33 1442.5ZM1644.58 1706.57 1667.5 1660.73 1690.42 1706.57Z" fill="#4F81BD" fill-rule="nonzero" fill-opacity="1"/><text fill="#0070C0" fill-opacity="1" font-family="Arial,Arial_MSFontService,sans-serif" font-style="normal" font-variant="normal" font-weight="400" font-stretch="normal" font-size="83" text-anchor="start" direction="ltr" writing-mode="lr-tb" unicode-bidi="normal" text-decoration="none" transform="matrix(1 0 0 1 1399.73 1416)">Ack</text><text fill="#0070C0" fill-opacity="1" font-family="Arial,Arial_MSFontService,sans-serif" font-style="normal" font-variant="normal" font-weight="400" font-stretch="normal" font-size="83" text-anchor="start" direction="ltr" writing-mode="lr-tb" unicode-bidi="normal" text-decoration="none" transform="matrix(1 0 0 1 1537.23 1416)">. </text><text fill="#0070C0" fill-opacity="1" font-family="Arial,Arial_MSFontService,sans-serif" font-style="normal" font-variant="normal" font-weight="400" font-stretch="normal" font-size="55" text-anchor="start" direction="ltr" writing-mode="lr-tb" unicode-bidi="normal" text-decoration="none" transform="matrix(1 0 0 1 1583.06 1391)">(5)</text><text fill="#0070C0" fill-opacity="1" font-family="Arial,Arial_MSFontService,sans-serif" font-style="normal" font-variant="normal" font-weight="400" font-stretch="normal" font-size="83" text-anchor="start" direction="ltr" writing-mode="lr-tb" unicode-bidi="normal" text-decoration="none" transform="matrix(1 0 0 1 2609.48 1535)">Ack</text><text fill="#0070C0" fill-opacity="1" font-family="Arial,Arial_MSFontService,sans-serif" font-style="normal" font-variant="normal" font-weight="400" font-stretch="normal" font-size="83" text-anchor="start" direction="ltr" writing-mode="lr-tb" unicode-bidi="normal" text-decoration="none" transform="matrix(1 0 0 1 2746.98 1535)">. </text><text fill="#0070C0" fill-opacity="1" font-family="Arial,Arial_MSFontService,sans-serif" font-style="normal" font-variant="normal" font-weight="400" font-stretch="normal" font-size="55" text-anchor="start" direction="ltr" writing-mode="lr-tb" unicode-bidi="normal" text-decoration="none" transform="matrix(1 0 0 1 2792.82 1510)">(4)</text><g><g><g><path d="M165.458 39.1875C165.458 48.8065 138.166 56.6042 104.5 56.6042 70.8336 56.6042 43.5417 48.8065 43.5417 39.1875 43.5417 29.5685 70.8336 21.7708 104.5 21.7708 138.166 21.7708 165.458 29.5685 165.458 39.1875Z" fill="#000000" fill-rule="nonzero" fill-opacity="1" transform="matrix(1.22967 0 0 1 1734 1447)"/><path d="M148.042 82.7292C145.429 82.7292 143.688 80.9875 143.688 78.375 143.688 75.7625 145.429 74.0208 148.042 74.0208 150.654 74.0208 152.396 75.7625 152.396 78.375 152.396 80.9875 150.654 82.7292 148.042 82.7292ZM104.5 65.3125C70.9729 65.3125 43.5417 57.475 43.5417 47.8958L43.5417 82.7292C43.5417 92.3083 70.9729 100.146 104.5 100.146 138.027 100.146 165.458 92.3083 165.458 82.7292L165.458 47.8958C165.458 57.475 138.027 65.3125 104.5 65.3125Z" fill="#000000" fill-rule="nonzero" fill-opacity="1" transform="matrix(1.22967 0 0 1 1734 1447)"/><path d="M148.042 126.271C145.429 126.271 143.688 124.529 143.688 121.917 143.688 119.304 145.429 117.562 148.042 117.562 150.654 117.562 152.396 119.304 152.396 121.917 152.396 124.529 150.654 126.271 148.042 126.271ZM104.5 108.854C70.9729 108.854 43.5417 101.017 43.5417 91.4375L43.5417 126.271C43.5417 135.85 70.9729 143.688 104.5 143.688 138.027 143.688 165.458 135.85 165.458 126.271L165.458 91.4375C165.458 101.017 138.027 108.854 104.5 108.854Z" fill="#000000" fill-rule="nonzero" fill-opacity="1" transform="matrix(1.22967 0 0 1 1734 1447)"/><path d="M148.042 169.812C145.429 169.812 143.688 168.071 143.688 165.458 143.688 162.846 145.429 161.104 148.042 161.104 150.654 161.104 152.396 162.846 152.396 165.458 152.396 168.071 150.654 169.812 148.042 169.812ZM104.5 152.396C70.9729 152.396 43.5417 144.558 43.5417 134.979L43.5417 169.812C43.5417 179.392 70.9729 187.229 104.5 187.229 138.027 187.229 165.458 179.392 165.458 169.812L165.458 134.979C165.458 144.558 138.027 152.396 104.5 152.396Z" fill="#000000" fill-rule="nonzero" fill-opacity="1" transform="matrix(1.22967 0 0 1 1734 1447)"/></g></g></g></g></g></svg>