<svg width="2805" height="1842" xmlns="http://www.w3.org/2000/svg" xmlns:xlink="http://www.w3.org/1999/xlink" xml:space="preserve" overflow="hidden"><defs><clipPath id="clip0"><rect x="627" y="330" width="2805" height="1842"/></clipPath><clipPath id="clip1"><rect x="627" y="330" width="2805" height="1842"/></clipPath></defs><g clip-path="url(#clip0)" transform="translate(-627 -330)"><g clip-path="url(#clip1)"><path d="M1742.5 695C1742.5 597.522 1868.31 518.5 2023.5 518.5 2178.69 518.5 2304.5 597.522 2304.5 695 2304.5 792.478 2178.69 871.5 2023.5 871.5 1868.31 871.5 1742.5 792.478 1742.5 695Z" stroke="#000000" stroke-width="3.4375" stroke-linecap="butt" stroke-linejoin="round" stroke-miterlimit="10" stroke-opacity="1" fill="#4F81BD" fill-rule="evenodd" fill-opacity="1"/><text fill="#FFFFFF" fill-opacity="1" font-family="Arial,Arial_MSFontService,sans-serif" font-style="normal" font-variant="normal" font-weight="400" font-stretch="normal" font-size="83" text-anchor="start" direction="ltr" writing-mode="lr-tb" unicode-bidi="normal" text-decoration="none" transform="matrix(1 0 0 1 1864.79 725)">Fetching</text><path d="M1256.5 1311C1256.5 1214.63 1372.91 1136.5 1516.5 1136.5 1660.09 1136.5 1776.5 1214.63 1776.5 1311 1776.5 1407.37 1660.09 1485.5 1516.5 1485.5 1372.91 1485.5 1256.5 1407.37 1256.5 1311Z" stroke="#4A7EBB" stroke-width="3.4375" stroke-linecap="butt" stroke-linejoin="round" stroke-miterlimit="10" stroke-opacity="1" fill="#92D050" fill-rule="evenodd" fill-opacity="1"/><text fill="#000000" fill-opacity="1" font-family="Arial,Arial_MSFontService,sans-serif" font-style="normal" font-variant="normal" font-weight="400" font-stretch="normal" font-size="83" text-anchor="start" direction="ltr" writing-mode="lr-tb" unicode-bidi="normal" text-decoration="none" transform="matrix(1 0 0 1 1369.62 1341)">Queued</text><path d="M1914.5 1509C1914.5 1412.63 2079.04 1334.5 2282 1334.5 2484.96 1334.5 2649.5 1412.63 2649.5 1509 2649.5 1605.37 2484.96 1683.5 2282 1683.5 2079.04 1683.5 1914.5 1605.37 1914.5 1509Z" stroke="#4A7EBB" stroke-width="3.4375" stroke-linecap="butt" stroke-linejoin="round" stroke-miterlimit="10" stroke-opacity="1" fill="#92D050" fill-rule="evenodd" fill-opacity="1"/><text fill="#000000" fill-opacity="1" font-family="Arial,Arial_MSFontService,sans-serif" font-style="normal" font-variant="normal" font-weight="400" font-stretch="normal" font-size="83" text-anchor="start" direction="ltr" writing-mode="lr-tb" unicode-bidi="normal" text-decoration="none" transform="matrix(1 0 0 1 2060.62 1539)">Transferring</text><path d="M2175.5 1946.5C2175.5 1855.37 2283.18 1781.5 2416 1781.5 2548.82 1781.5 2656.5 1855.37 2656.5 1946.5 2656.5 2037.63 2548.82 2111.5 2416 2111.5 2283.18 2111.5 2175.5 2037.63 2175.5 1946.5Z" stroke="#4F81BD" stroke-width="3.4375" stroke-linecap="butt" stroke-linejoin="round" stroke-miterlimit="10" stroke-opacity="1" fill="#92D050" fill-rule="evenodd" fill-opacity="1"/><text fill="#000000" fill-opacity="1" font-family="Arial,Arial_MSFontService,sans-serif" font-style="normal" font-variant="normal" font-weight="400" font-stretch="normal" font-size="83" text-anchor="start" direction="ltr" writing-mode="lr-tb" unicode-bidi="normal" text-decoration="none" transform="matrix(1 0 0 1 2317.06 1976)">Done</text><path d="M0.347817-4.57012 6.68827-4.08756C6.90741-4.07089 7.12608-4.03829 7.34056-3.99034L13.6314-2.58375 20.4-0.145304 26.9417 3.14174 33.2128 7.19729 39.1736 11.9478 44.7848 17.3251 50.0061 23.265 54.7953 29.7058 59.1085 36.5877 62.9 43.852 66.122 51.4406C66.2186 51.6694 66.2966 51.9058 66.3549 52.1472L68.3588 60.4337 59.4489 62.5883 57.4451 54.3017 57.678 55.0083 54.7662 48.0793 51.3327 41.442 47.429 35.1615 43.1085 29.3024 38.4264 23.928 33.4398 19.0998 28.2077 14.8769 22.7899 11.3143 17.2459 8.46162 11.6312 6.36203 5.34035 4.95544 5.99263 5.05267-0.347817 4.57012ZM76.6987 54.7022 67.7197 84.1078 49.5826 59.2812Z" fill="#4F81BD" fill-rule="nonzero" fill-opacity="1" transform="matrix(1.83697e-16 1 1 -1.83697e-16 1060.5 821.5)"/><path d="M2753.5 1576.5C2753.5 1468.8 2904.6 1381.5 3091 1381.5 3277.4 1381.5 3428.5 1468.8 3428.5 1576.5 3428.5 1684.2 3277.4 1771.5 3091 1771.5 2904.6 1771.5 2753.5 1684.2 2753.5 1576.5Z" stroke="#4A7EBB" stroke-width="3.4375" stroke-linecap="butt" stroke-linejoin="round" stroke-miterlimit="10" stroke-opacity="1" fill="#B9CDE5" fill-rule="evenodd" fill-opacity="1"/><text fill="#000000" fill-opacity="1" font-family="Arial,Arial_MSFontService,sans-serif" font-style="normal" font-variant="normal" font-weight="400" font-stretch="normal" font-size="83" text-anchor="start" direction="ltr" writing-mode="lr-tb" unicode-bidi="normal" text-decoration="none" transform="matrix(1 0 0 1 2900.54 1607)">Requeued</text><path d="M632.5 696.5C632.5 598.745 744.877 519.5 883.5 519.5 1022.12 519.5 1134.5 598.745 1134.5 696.5 1134.5 794.254 1022.12 873.5 883.5 873.5 744.877 873.5 632.5 794.254 632.5 696.5Z" stroke="#000000" stroke-width="3.4375" stroke-linecap="butt" stroke-linejoin="round" stroke-miterlimit="10" stroke-opacity="1" fill="#4F81BD" fill-rule="evenodd" fill-opacity="1"/><text fill="#FFFFFF" fill-opacity="1" font-family="Arial,Arial_MSFontService,sans-serif" font-style="normal" font-variant="normal" font-weight="400" font-stretch="normal" font-size="83" text-anchor="start" direction="ltr" writing-mode="lr-tb" unicode-bidi="normal" text-decoration="none" transform="matrix(1 0 0 1 743.272 727)">Arriving</text><path d="M1201.5 490.5C1201.5 404.344 1306.04 334.5 1435 334.5 1563.96 334.5 1668.5 404.344 1668.5 490.5 1668.5 576.656 1563.96 646.5 1435 646.5 1306.04 646.5 1201.5 576.656 1201.5 490.5Z" stroke="#000000" stroke-width="3.4375" stroke-linecap="butt" stroke-linejoin="round" stroke-miterlimit="10" stroke-opacity="1" fill="#4F81BD" fill-rule="evenodd" fill-opacity="1"/><text fill="#FFFFFF" fill-opacity="1" font-family="Arial,Arial_MSFontService,sans-serif" font-style="normal" font-variant="normal" font-weight="400" font-stretch="normal" font-size="83" text-anchor="start" direction="ltr" writing-mode="lr-tb" unicode-bidi="normal" text-decoration="none" transform="matrix(1 0 0 1 1314.93 520)">Preset</text><path d="M1668.64 485.919 1683.3 486.376 1698.12 487.727 1712.7 489.91 1726.92 492.865 1740.68 496.535 1753.87 500.862 1766.37 505.791 1778.08 511.266 1788.88 517.237 1798.68 523.655 1807.35 530.477 1814.8 537.668C1815.08 537.948 1815.34 538.266 1815.54 538.613L1820.34 546.672 1812.46 551.36 1807.66 543.3 1808.41 544.246 1801.67 537.673 1793.65 531.317 1784.44 525.257 1774.19 519.567 1763 514.317 1751 509.571 1738.31 505.391 1725.05 501.839 1711.33 498.974 1697.28 496.855 1683.02 495.539 1668.36 495.081ZM1827.4 539.577 1825.06 570.234 1801.94 549.967Z" fill="#4F81BD" fill-rule="nonzero" fill-opacity="1"/><path d="M2027.65 871.579 2027.29 892.16 2026.23 912.856 2024.48 933.467 2022.08 953.954 2019.04 974.276 2015.38 994.395 2011.14 1014.27 2006.32 1033.86 2000.97 1053.13 1995.08 1072.03 1988.7 1090.53 1981.84 1108.59 1974.52 1126.17 1966.77 1143.23 1958.6 1159.72 1950.05 1175.62 1941.12 1190.87 1931.85 1205.45 1922.25 1219.3 1912.34 1232.4 1902.15 1244.69 1891.7 1256.15 1881 1266.73 1870.07 1276.38 1858.93 1285.08 1847.61 1292.77 1836.11 1299.42 1824.46 1304.97 1812.67 1309.38C1812.47 1309.45 1812.26 1309.51 1812.04 1309.56L1800.19 1312.14 1798.24 1303.18 1810.1 1300.6 1809.47 1300.79 1820.52 1296.69 1831.53 1291.47 1842.46 1285.18 1853.29 1277.85 1864 1269.51 1874.56 1260.2 1884.93 1249.97 1895.1 1238.84 1905.04 1226.86 1914.72 1214.08 1924.12 1200.52 1933.21 1186.24 1941.98 1171.27 1950.39 1155.66 1958.42 1139.43 1966.06 1122.65 1973.27 1105.34 1980.04 1087.54 1986.33 1069.31 1992.13 1050.67 1997.42 1031.67 2002.17 1012.35 2006.36 992.755 2009.97 972.919 2012.97 952.885 2015.35 932.693 2017.07 912.385 2018.12 892.001 2018.48 871.42ZM1805.58 1320.68 1776.5 1310.69 1801.94 1293.42Z" fill="#4F81BD" fill-rule="nonzero" fill-opacity="1"/><path d="M1144.5 889.5C1144.5 809.419 1270.53 744.5 1426 744.5 1581.47 744.5 1707.5 809.419 1707.5 889.5 1707.5 969.581 1581.47 1034.5 1426 1034.5 1270.53 1034.5 1144.5 969.581 1144.5 889.5Z" stroke="#4A7EBB" stroke-width="3.4375" stroke-linecap="butt" stroke-linejoin="round" stroke-miterlimit="10" stroke-opacity="1" fill="#92D050" fill-rule="evenodd" fill-opacity="1"/><text fill="#000000" fill-opacity="1" font-family="Arial,Arial_MSFontService,sans-serif" font-style="normal" font-variant="normal" font-weight="400" font-stretch="normal" font-size="83" text-anchor="start" direction="ltr" writing-mode="lr-tb" unicode-bidi="normal" text-decoration="none" transform="matrix(1 0 0 1 1269.76 919)">StandBy</text><path d="M0.202662-4.57885 7.56065-4.25318 15.2977-3.25544 22.9844-1.61067 30.6026 0.655324 38.1364 3.51671 45.5711 6.94809 52.8931 10.9248 60.0896 15.4228 67.1481 20.419 74.0564 25.8908 80.8023 31.8163 87.3734 38.174 93.7572 44.9428 99.941 52.1017 111.602 67.4343 122.369 84.1559 132.07 102.03 140.594 120.895 147.831 140.591 153.666 160.957 156.042 171.425 158.001 181.918 159.552 192.499 160.679 203.147 161.368 213.842 161.604 224.564 161.832 235.091 162.497 245.405 163.585 255.683 165.084 265.905 166.979 276.05 169.255 286.097 174.923 305.897 181.93 324.967 190.181 343.227 199.56 360.508 209.947 376.64 221.222 391.457 227.092 398.246 233.195 404.717 239.457 410.776 245.863 416.403 252.395 421.577 259.038 426.28 265.776 430.492 272.591 434.194 279.467 437.368 286.389 439.998 285.681 439.791 292.349 441.167 290.497 450.144 283.829 448.768C283.588 448.719 283.352 448.65 283.121 448.562L275.615 445.686 268.207 442.244 260.909 438.26 253.736 433.758 246.698 428.759 239.809 423.286 233.079 417.36 226.523 411.003 220.153 404.234 213.923 397.003 202.236 381.597 191.5 364.875 181.826 346.997 173.324 328.124 166.109 308.416 160.315 288.12 157.967 277.73 156.014 267.231 154.469 256.645 153.349 245.991 152.667 235.29 152.44 224.762 152.22 214.428 151.563 204.109 150.481 193.825 148.989 183.598 147.101 173.447 144.852 163.477 139.225 143.748 132.239 124.665 124.011 106.397 114.659 89.1132 104.303 72.98 93.0012 58.0906 87.0853 51.2287 80.9957 44.7582 74.7483 38.6994 68.3595 33.0722 61.8457 27.8964 55.2233 23.1911 48.5088 18.975 41.7186 15.2659 34.8685 12.0811 27.9738 9.43696 21.0486 7.34928 14.1055 5.83336 7.15533 4.90452-0.202662 4.57885ZM289.101 431.349 314.043 449.326 284.696 458.494Z" fill="#4F81BD" fill-rule="nonzero" fill-opacity="1" transform="matrix(1.83697e-16 1 1 -1.83697e-16 883.5 873.5)"/><path d="M1829.39 819.973 1828.71 826.462C1828.68 826.754 1828.63 827.043 1828.54 827.325L1826.58 833.763C1826.5 834.008 1826.41 834.246 1826.29 834.475L1823.13 840.811C1823.03 841.006 1822.92 841.193 1822.8 841.372L1818.51 847.556 1812.86 853.972 1806.27 860.036 1798.83 865.723 1790.64 871.001 1781.77 875.833 1772.31 880.177 1762.34 883.99 1751.94 887.223 1741.19 889.83 1730.94 891.247 1729.7 882.163 1739.04 880.92 1749.22 878.468 1759.07 875.424 1768.5 871.843 1777.4 867.778 1785.69 863.288 1793.28 858.431 1800.08 853.273 1806.01 847.883 1810.98 842.337 1815.26 836.153 1814.93 836.714 1818.09 830.378 1817.81 831.09 1819.77 824.652 1819.6 825.516 1820.27 819.027ZM1736.14 899.978 1707.5 888.801 1733.63 872.593Z" fill="#4F81BD" fill-rule="nonzero" fill-opacity="1"/><path d="M0.249117-4.57656 5.02835-4.31641 10.2448-3.50737 15.3502-2.19186 20.3083-0.411094 25.0849 1.79604 29.6468 4.39297 37.8452 10.5045C38.0484 10.657 38.2389 10.8265 38.414 11.0106L44.9441 17.8741 48.0544 22.0863 50.6045 26.3627 52.6846 30.823 54.2481 35.441 55.2441 40.1876 55.6174 45.028 55.9103 49.2734 56.6835 52.8907 57.9182 56.502 59.5948 60.076 61.6896 63.5751 64.1742 66.9592 70.3171 73.3578 69.7483 72.8517 77.4749 78.6525 76.2256 77.9877 81.6165 79.8584 78.6115 88.5185 73.2206 86.6479C72.7722 86.4923 72.3508 86.2681 71.9713 85.9831L64.2448 80.1824C64.0415 80.0297 63.8512 79.8605 63.676 79.6763L56.7586 72.3478 53.7972 68.2374 51.2685 63.9099 49.2189 59.3916 47.6995 54.7114 46.7654 49.9043 46.4725 45.6588 46.2601 42.0084 45.5488 38.3306 44.3582 34.657 42.7121 31.0251 40.6388 27.4749 38.3031 24.1926 31.7729 17.3291 32.3416 17.8351 25.087 12.3451 21.212 10.1044 17.1779 8.2045 13.0261 6.67528 8.79732 5.54428 4.53012 4.83671-0.249117 4.57656ZM79.6178 69.7031 102.09 90.6868 71.8197 96.0743Z" fill="#4F81BD" fill-rule="nonzero" fill-opacity="1" transform="matrix(1.83697e-16 1 1 -1.83697e-16 1426.5 1034.5)"/><path d="M1705.08 1434.16 1705.49 1441.88 1706.66 1449.07 1708.52 1456.18 1711.05 1463.14 1714.18 1469.89 1717.88 1476.37 1722.08 1482.51 1726.74 1488.24 1731.79 1493.5 1737.19 1498.24 1742.86 1502.38 1748.76 1505.88 1754.82 1508.67 1760.98 1510.7 1767.18 1511.94 1773.37 1512.33 1772.64 1512.34 1779.44 1511.72 1778.67 1511.86 1785.41 1510.07 1784.76 1510.3 1791.4 1507.41 1797.33 1503.79 1803.16 1499.24 1808.8 1493.84 1814.18 1487.66 1819.25 1480.76 1823.93 1473.23 1828.16 1465.16 1831.89 1456.61 1835.06 1447.69 1837.61 1438.45 1839.49 1429 1840.65 1419.41 1841.03 1409.76 1841.54 1399.71 1843.06 1389.33 1845.52 1379.14 1848.85 1369.21 1852.99 1359.63 1857.85 1350.46 1863.39 1341.77 1869.54 1333.65 1876.23 1326.17 1883.4 1319.4 1891.01 1313.43 1898.99 1308.32 1907.29 1304.18 1915.85 1301.09 1924.61 1299.14 1933.51 1298.43 1942.37 1298.9 1951.07 1300.33 1959.59 1302.66 1967.89 1305.81 1975.88 1309.71 1983.52 1314.3 1990.75 1319.52 1997.5 1325.31 2003.71 1331.6 2009.33 1338.34 2014.28 1345.48 2018.5 1352.96C2018.65 1353.23 2018.78 1353.52 2018.87 1353.82L2021.4 1361.76 2012.67 1364.54 2010.14 1356.6 2010.51 1357.45 2006.74 1350.69 2002.27 1344.19 1997.18 1338.03 1991.52 1332.26 1985.37 1326.94 1978.79 1322.15 1971.85 1317.94 1964.61 1314.37 1957.16 1311.5 1949.55 1309.37 1941.85 1308.05 1934.19 1307.57 1926.57 1308.09 1918.93 1309.72 1911.36 1312.39 1903.91 1316.06 1896.66 1320.64 1889.68 1326.08 1883.05 1332.29 1876.84 1339.19 1871.11 1346.71 1865.94 1354.77 1861.4 1363.27 1857.54 1372.15 1854.43 1381.31 1852.13 1390.68 1850.7 1400.17 1850.19 1410.14 1849.75 1420.52 1848.48 1430.8 1846.44 1440.9 1843.7 1450.76 1840.29 1460.29 1836.28 1469.42 1831.71 1478.09 1826.63 1486.2 1821.08 1493.69 1815.12 1500.48 1808.76 1506.49 1802.06 1511.64 1795.05 1515.82 1788.42 1518.7C1788.21 1518.8 1787.99 1518.87 1787.77 1518.93L1781.03 1520.72C1780.78 1520.79 1780.52 1520.83 1780.26 1520.85L1773.47 1521.47C1773.23 1521.49 1772.98 1521.49 1772.74 1521.47L1765.34 1520.92 1758.06 1519.39 1750.96 1516.98 1744.07 1513.75 1737.44 1509.77 1731.13 1505.11 1725.17 1499.84 1719.61 1494 1714.51 1487.67 1709.91 1480.9 1705.86 1473.74 1702.42 1466.25 1699.65 1458.48 1697.6 1450.51 1696.34 1442.37 1695.92 1434.65ZM2029.43 1355.65 2022.09 1385.5 2002.61 1361.71Z" fill="#4F81BD" fill-rule="nonzero" fill-opacity="1"/><path d="M0.384207-4.5672 4.96132-4.18216C5.20241-4.16188 5.44189-4.12247 5.67677-4.06442L10.2181-2.94207C10.4295-2.88981 10.6373-2.82244 10.8392-2.74067L15.3089-0.93016 20.1945 1.77102 24.8485 5.08793 29.2492 8.95654 33.3751 13.3202 37.2024 18.127 40.705 23.3283 43.8541 28.877 46.6188 34.7269 48.9663 40.8327 50.8618 47.149 52.2692 53.6307 53.1501 60.2323 53.465 66.9073 53.7454 73.1909 54.5286 79.0337 55.784 84.8026 57.4798 90.4456 59.5825 95.9098 62.0568 101.142 64.8658 106.09 67.9707 110.7 71.3308 114.92 74.9032 118.698 73.7646 117.817 79.1024 120.74 74.6989 128.78 69.361 125.856C68.9373 125.624 68.5531 125.327 68.2224 124.975L64.1444 120.61 60.3555 115.802 56.8841 110.598 53.7614 105.043 51.0201 99.1828 48.6948 93.063 46.822 86.7288 45.4398 80.2256 44.5879 73.5996 44.3074 67.3161 44.0613 61.4241 43.3072 55.5569 42.0768 49.7665 40.4038 44.1056 38.3234 38.6274 35.8724 33.3849 33.0898 28.4309 30.0161 23.8178 26.6943 19.5967 23.1698 15.8171 19.4904 12.5256 15.7063 9.76381 11.8674 7.56596 7.39769 5.75545 8.01877 5.95685 3.47746 4.8345 4.19291 4.95224-0.384207 4.5672ZM78.4042 110.345 97.7722 134.223 67.0485 135.391Z" fill="#4F81BD" fill-rule="nonzero" fill-opacity="1" transform="matrix(1.83697e-16 1 1 -1.83697e-16 2281.5 1683.5)"/><path d="M0.16811-4.58025 9.32625-4.24412 18.794-3.22608 28.2111-1.54999 37.5579 0.759976 46.8155 3.67971 55.9659 7.18532 64.9914 11.2532 73.8749 15.8601 82.5993 20.9831 91.1479 26.5998 99.5039 32.6878 107.65 39.2253 115.571 46.1905 123.248 53.5618 130.666 61.318 137.806 69.4379 151.13 86.6102 163.202 105.055 168.747 114.756 173.86 124.617 178.574 134.696 182.871 144.971 186.732 155.423 190.139 166.03 193.074 176.771 195.519 187.626 197.455 198.574 198.456 208.567 189.334 209.469 188.427 200.165 186.575 189.636 184.231 179.184 181.411 168.83 178.132 158.596 174.412 148.505 170.27 138.577 165.721 128.834 160.785 119.299 155.528 110.07 143.886 92.2268 130.92 75.4886 124.038 67.651 116.897 60.1715 109.514 53.0714 101.91 46.3719 94.1021 40.0938 86.1101 34.258 77.9528 28.8849 69.6492 23.9947 61.2184 19.6074 52.6792 15.7425 44.0501 12.4193 35.3493 9.65662 26.5946 7.47301 17.8027 5.88684 8.99003 4.91638-0.16811 4.58025ZM207.306 203.52 195.437 231.882 179.868 205.37Z" fill="#4F81BD" fill-rule="nonzero" fill-opacity="1" transform="matrix(1 0 0 -1 2656.5 1946.38)"/><path d="M2546.07 1632.33 2546.53 1640.05 2547.81 1647.2 2549.86 1654.27 2552.63 1661.2 2556.07 1667.94 2560.13 1674.4 2564.76 1680.53 2569.89 1686.27 2575.46 1691.54 2581.42 1696.29 2587.7 1700.46 2594.24 1703.98 2600.97 1706.8 2607.82 1708.86 2614.75 1710.12 2621.68 1710.52 2628.62 1710.12 2635.58 1709.01 2642.46 1707.23 2649.19 1704.82 2655.72 1701.83 2661.98 1698.31 2667.91 1694.3 2673.45 1689.86 2678.54 1685.04 2683.12 1679.9 2687.12 1674.49 2690.49 1668.87 2693.18 1663.11 2695.14 1657.25 2696.33 1651.36 2696.71 1645.48 2697 1639.1 2697.91 1632.26 2699.39 1625.54 2701.39 1619 2703.87 1612.69 2706.8 1606.64 2710.13 1600.91 2713.84 1595.54 2717.88 1590.59 2722.23 1586.1C2722.51 1585.8 2722.84 1585.54 2723.2 1585.33L2730.05 1581.33 2734.67 1589.25 2727.82 1593.25 2728.8 1592.49 2724.97 1596.4 2721.37 1600.77 2718.05 1605.54 2715.04 1610.65 2712.4 1616.06 2710.15 1621.7 2708.33 1627.53 2706.99 1633.49 2706.16 1639.52 2705.85 1646.12 2705.31 1653.22 2703.82 1660.2 2701.47 1667.02 2698.33 1673.62 2694.47 1679.96 2689.95 1686.01 2684.83 1691.71 2679.17 1697.03 2673.03 1701.91 2666.46 1706.31 2659.52 1710.18 2652.26 1713.46 2644.73 1716.11 2637 1718.07 2629.11 1719.28 2621.1 1719.67 2613.07 1719.13 2605.15 1717.63 2597.4 1715.24 2589.87 1712.04 2582.62 1708.09 2575.69 1703.45 2569.15 1698.19 2563.04 1692.37 2557.43 1686.04 2552.36 1679.26 2547.9 1672.09 2544.1 1664.58 2541.04 1656.79 2538.78 1648.77 2537.38 1640.59 2536.92 1632.87ZM2722.85 1574.35 2753.52 1576.5 2733.4 1599.75Z" fill="#4F81BD" fill-rule="nonzero" fill-opacity="1"/><path d="M2848.33 1438.76 2847.9 1431.03 2846.69 1423.86 2844.75 1416.77 2842.12 1409.82 2838.86 1403.07 2835.01 1396.6 2830.64 1390.47 2825.78 1384.73 2820.51 1379.47 2814.89 1374.73 2808.96 1370.57 2802.8 1367.07 2796.47 1364.26 2790.02 1362.22 2783.52 1360.97 2777.02 1360.57 2770.53 1361.01 2764.05 1362.23 2757.63 1364.17 2751.33 1366.81 2745.2 1370.08 2739.31 1373.95 2733.72 1378.36 2728.49 1383.26 2723.67 1388.58 2719.33 1394.26 2715.53 1400.26 2712.31 1406.51 2709.73 1412.94 2707.84 1419.5 2706.69 1426.12 2706.32 1432.76 2706.02 1439.83 2705.12 1447.31 2703.65 1454.65 2701.67 1461.8 2699.2 1468.71 2696.29 1475.33 2692.98 1481.62 2689.3 1487.5 2685.28 1492.94 2680.95 1497.88C2680.68 1498.18 2680.37 1498.45 2680.02 1498.68L2672.9 1503.35 2667.87 1495.69 2674.99 1491.01 2674.07 1491.82 2677.92 1487.47 2681.54 1482.62 2684.88 1477.32 2687.91 1471.64 2690.57 1465.62 2692.84 1459.33 2694.67 1452.83 2696.02 1446.19 2696.86 1439.45 2697.17 1432.2 2697.66 1424.52 2699.04 1416.93 2701.23 1409.51 2704.17 1402.29 2707.8 1395.33 2712.06 1388.69 2716.89 1382.41 2722.24 1376.55 2728.06 1371.15 2734.3 1366.28 2740.9 1361.99 2747.82 1358.34 2755.01 1355.39 2762.41 1353.21 2769.97 1351.86 2777.63 1351.43 2785.29 1351.98 2792.83 1353.49 2800.2 1355.89 2807.36 1359.11 2814.24 1363.08 2820.81 1367.73 2827.01 1373 2832.79 1378.83 2838.11 1385.16 2842.9 1391.94 2847.12 1399.1 2850.7 1406.6 2853.6 1414.37 2855.73 1422.37 2857.05 1430.52 2857.48 1438.24ZM2680.22 1510.16 2649.5 1508.96 2668.89 1485.11Z" fill="#4F81BD" fill-rule="nonzero" fill-opacity="1"/><path d="M2372.5 1134C2372.5 1043.15 2480.18 969.5 2613 969.5 2745.82 969.5 2853.5 1043.15 2853.5 1134 2853.5 1224.85 2745.82 1298.5 2613 1298.5 2480.18 1298.5 2372.5 1224.85 2372.5 1134Z" stroke="#4F81BD" stroke-width="3.4375" stroke-linecap="butt" stroke-linejoin="round" stroke-miterlimit="10" stroke-opacity="1" fill="#FF0000" fill-rule="evenodd" fill-opacity="1"/><text fill="#FFFFFF" fill-opacity="1" font-family="Arial,Arial_MSFontService,sans-serif" font-style="normal" font-variant="normal" font-weight="400" font-stretch="normal" font-size="83" text-anchor="start" direction="ltr" writing-mode="lr-tb" unicode-bidi="normal" text-decoration="none" transform="matrix(1 0 0 1 2500.23 1164)">Failed</text><path d="M1347.5 1796C1347.5 1705.15 1480.7 1631.5 1645 1631.5 1809.3 1631.5 1942.5 1705.15 1942.5 1796 1942.5 1886.85 1809.3 1960.5 1645 1960.5 1480.7 1960.5 1347.5 1886.85 1347.5 1796Z" stroke="#4F81BD" stroke-width="3.4375" stroke-linecap="butt" stroke-linejoin="round" stroke-miterlimit="10" stroke-opacity="1" fill="#FF0000" fill-rule="evenodd" fill-opacity="1"/><text fill="#FFFFFF" fill-opacity="1" font-family="Arial,Arial_MSFontService,sans-serif" font-style="normal" font-variant="normal" font-weight="400" font-stretch="normal" font-size="83" text-anchor="start" direction="ltr" writing-mode="lr-tb" unicode-bidi="normal" text-decoration="none" transform="matrix(1 0 0 1 1490.84 1826)">Stopped</text><path d="M2541.5 805C2541.5 727.404 2700.44 664.5 2896.5 664.5 3092.56 664.5 3251.5 727.404 3251.5 805 3251.5 882.596 3092.56 945.5 2896.5 945.5 2700.44 945.5 2541.5 882.596 2541.5 805Z" stroke="#4A7EBB" stroke-width="3.4375" stroke-linecap="butt" stroke-linejoin="round" stroke-miterlimit="10" stroke-opacity="1" fill="#FF0000" fill-rule="evenodd" fill-opacity="1"/><text fill="#FFFFFF" fill-opacity="1" font-family="Arial,Arial_MSFontService,sans-serif" font-style="normal" font-variant="normal" font-weight="400" font-stretch="normal" font-size="83" text-anchor="start" direction="ltr" writing-mode="lr-tb" unicode-bidi="normal" text-decoration="none" transform="matrix(1 0 0 1 2696.83 835)">Interrupted</text><path d="M1256.92 1315.06 1249.2 1315.77 1249.97 1315.63 1242.31 1317.7 1242.97 1317.47 1235.42 1320.81 1228.6 1325.04 1221.92 1330.34 1215.46 1336.63 1209.29 1343.84 1203.49 1351.86 1198.14 1360.62 1193.3 1370.01 1189.04 1379.94 1185.42 1390.32 1182.5 1401.06 1180.35 1412.05 1179.02 1423.21 1178.58 1434.43 1178.77 1439.9 1179.31 1445.39 1181.43 1456.48 1184.81 1467.28 1189.4 1477.87 1195.1 1488.15 1201.82 1498.02 1209.48 1507.38 1217.98 1516.14 1227.22 1524.2 1237.11 1531.46 1247.55 1537.85 1258.43 1543.26 1269.66 1547.6 1281.14 1550.8 1292.77 1552.77 1304.46 1553.42 1316.64 1554.11 1329.23 1556.19 1341.59 1559.56 1353.62 1564.11 1365.24 1569.75 1376.35 1576.4 1386.85 1583.95 1396.67 1592.32 1405.71 1601.43 1413.87 1611.19 1421.06 1621.51 1427.18 1632.31 1432.14 1643.52C1432.24 1643.75 1432.32 1643.99 1432.39 1644.24L1435.17 1655.25 1426.29 1657.5 1423.5 1646.49 1423.75 1647.21 1419.2 1636.82 1413.53 1626.74 1406.83 1617.06 1399.19 1607.88 1390.72 1599.29 1381.5 1591.39 1371.63 1584.26 1361.22 1577.99 1350.36 1572.68 1339.16 1568.4 1327.72 1565.23 1316.12 1563.26 1303.92 1562.57 1291.23 1561.8 1278.67 1559.63 1266.34 1556.15 1254.34 1551.46 1242.75 1545.66 1231.67 1538.84 1221.19 1531.1 1211.39 1522.51 1202.38 1513.17 1194.24 1503.17 1187.07 1492.58 1180.98 1481.5 1176.06 1470 1172.42 1458.18 1170.18 1446.27 1169.61 1440.19 1169.42 1434.06 1169.92 1422.11 1171.36 1410.28 1173.66 1398.65 1176.76 1387.3 1180.62 1376.32 1185.16 1365.8 1190.32 1355.82 1196.07 1346.48 1202.34 1337.86 1209.08 1330.05 1216.25 1323.14 1223.81 1317.23 1231.71 1312.43 1239.26 1309.09C1239.47 1308.99 1239.69 1308.92 1239.92 1308.85L1247.58 1306.79C1247.83 1306.72 1248.09 1306.67 1248.36 1306.65L1256.08 1305.94ZM1443.58 1649.66 1434.38 1679 1416.43 1654.04Z" fill="#4F81BD" fill-rule="nonzero" fill-opacity="1"/><path d="M1860.08 1912.07 1860.31 1918.05 1860.95 1923.69 1862.01 1929.33 1863.48 1934.98 1865.36 1940.64 1867.65 1946.31 1870.33 1951.98 1873.41 1957.65 1876.88 1963.32 1880.74 1968.98 1884.98 1974.63 1889.6 1980.26 1900 1991.53 1911.76 2002.6 1924.89 2013.53 1939.34 2024.29 1955.05 2034.83 1971.96 2045.14 1990.01 2055.18 2009.15 2064.93 2029.31 2074.37 2050.45 2083.47 2072.49 2092.2 2095.4 2100.53 2119.09 2108.46 2143.53 2115.94 2168.65 2122.96 2194.39 2129.49 2220.7 2135.51 2247.52 2141 2274.79 2145.93 2302.46 2150.28 2330.47 2154.02 2358.76 2157.13 2387.27 2159.6 2415.96 2161.38 2444.75 2162.47 2473.59 2162.84 2502.41 2162.27 2531.13 2160.58 2559.75 2157.8 2588.2 2153.99 2616.44 2149.16 2644.39 2143.36 2672.01 2136.62 2699.23 2128.98 2726.01 2120.48 2752.27 2111.15 2777.98 2101.02 2803.06 2090.14 2827.46 2078.54 2851.13 2066.26 2874.01 2053.33 2896.03 2039.79 2917.15 2025.68 2937.31 2011.04 2956.45 1995.9 2974.5 1980.3 2991.43 1964.28 3007.16 1947.87 3021.65 1931.13 3034.83 1914.07 3046.66 1896.75 3057.08 1879.21 3061.7 1870.43 3065.99 1861.55 3069.9 1852.62 3073.42 1843.67 3076.56 1834.69 3079.29 1825.68 3081.62 1816.66 3083.54 1807.62 3085.04 1798.56 3085.37 1794.01 3094.51 1794.7 3094.09 1800.07 3092.51 1809.52 3090.5 1818.95 3088.06 1828.35 3085.21 1837.71 3081.95 1847.03 3078.29 1856.31 3074.24 1865.53 3069.81 1874.71 3064.96 1883.89 3054.23 1901.93 3042.08 1919.68 3028.58 1937.12 3013.78 1954.22 2997.73 1970.94 2980.5 1987.24 2962.13 2003.09 2942.7 2018.46 2922.25 2033.3 2900.83 2047.6 2878.52 2061.31 2855.35 2074.4 2831.4 2086.82 2806.71 2098.55 2781.34 2109.55 2755.34 2119.79 2728.78 2129.22 2701.71 2137.81 2674.18 2145.53 2646.25 2152.34 2617.98 2158.2 2589.42 2163.07 2560.63 2166.93 2531.67 2169.73 2502.59 2171.43 2473.48 2172.01 2444.4 2171.63 2415.38 2170.53 2386.48 2168.73 2357.76 2166.25 2329.25 2163.11 2301.04 2159.33 2273.16 2154.95 2245.68 2149.98 2218.65 2144.45 2192.13 2138.38 2166.18 2131.79 2140.84 2124.71 2116.19 2117.15 2092.26 2109.15 2069.12 2100.72 2046.82 2091.89 2025.43 2082.67 2004.98 2073.1 1985.55 2063.19 1967.18 2052.96 1949.94 2042.44 1933.86 2031.64 1919.02 2020.58 1905.47 2009.27 1893.26 1997.74 1882.51 1986.07 1877.65 1980.13 1873.17 1974.14 1869.06 1968.1 1865.35 1962.02 1862.04 1955.89 1859.14 1949.73 1856.66 1943.52 1854.61 1937.28 1853 1931.01 1851.84 1924.71 1851.14 1918.39 1850.92 1912.41ZM3075.9 1797.95 3091.57 1771.5 3103.33 1799.91Z" fill="#4F81BD" fill-rule="nonzero" fill-opacity="1"/><path d="M0.403795-4.56551 3.19441-4.3187C3.45049-4.29605 3.70406-4.25192 3.95275-4.18674L6.73791-3.45669C6.96163-3.39804 7.18009-3.32274 7.39242-3.23107L10.1667-2.03337 13.4608-0.108975 16.6231 2.26586 19.6661 5.05396 22.6039 8.229 25.4479 11.7715 30.8203 19.8012 35.9578 29.2425 40.7657 39.8712 45.2263 51.5791 49.3108 64.2542 52.9843 77.7811 56.2083 92.0424 58.9426 106.919 61.1453 122.291 62.7738 138.037 63.2397 147.135 54.0847 147.598 53.6556 138.978 52.071 123.589 49.9265 108.574 47.2667 94.0611 44.1372 80.1803 40.5847 67.0617 36.6581 54.837 32.4099 43.6405 27.8982 33.6095 23.1927 24.8852 18.2859 17.4929 15.854 14.4312 13.4396 11.7814 11.065 9.55527 8.75504 7.75763 6.53338 6.3825 3.75912 5.1848 4.41364 5.41042 1.62848 4.68037 2.38682 4.81233-0.403795 4.56551ZM72.2238 142.252 59.5523 170.266 44.7445 143.321Z" fill="#4F81BD" fill-rule="nonzero" fill-opacity="1" transform="matrix(-1 1.22465e-16 1.22465e-16 1 1915.05 1509.5)"/><path d="M2536.92 1384.95 2537.13 1380.89 2537.77 1376.42 2540.17 1367.99C2540.24 1367.75 2540.33 1367.51 2540.44 1367.28L2543.97 1359.96C2544.08 1359.74 2544.2 1359.52 2544.34 1359.32L2548.92 1352.76C2549.06 1352.56 2549.22 1352.36 2549.4 1352.18L2554.81 1346.64 2558.22 1343.92 2561.67 1341.7 2565.29 1339.88 2569.05 1338.5 2572.94 1337.61 2576.93 1337.27 2580.28 1337.02 2582.96 1336.39 2585.67 1335.38 2588.36 1334.01 2591.03 1332.29 2593.62 1330.23 2598.58 1325.09 2597.75 1326.25 2601.76 1318.22 2609.96 1322.31 2605.96 1330.34C2605.75 1330.77 2605.47 1331.16 2605.14 1331.5L2599.27 1337.45 2595.95 1340.02 2592.44 1342.22 2588.75 1344.01 2584.92 1345.34 2580.96 1346.16 2577.61 1346.41 2574.9 1346.57 2572.14 1347.13 2569.36 1348.09 2566.59 1349.43 2563.87 1351.14 2561.37 1353.04 2555.96 1358.59 2556.44 1358.01 2551.86 1364.57 2552.23 1363.93 2548.7 1371.26 2548.98 1370.54 2546.84 1377.77 2546.28 1381.35 2546.08 1385.41ZM2591.36 1320.31 2613.03 1298.5 2617.48 1328.92Z" fill="#4F81BD" fill-rule="nonzero" fill-opacity="1"/><path d="M0.332581-4.57125 3.3998-4.3481 7.0945-3.59714 10.7115-2.35295 14.2326-0.654684 17.6516 1.4612 20.97 3.96404 27.2119 9.92649 33.2444 17.316 38.9203 25.8922 44.2331 35.5493 49.1609 46.1844 53.6715 57.6944 57.727 69.9745 61.2857 82.9186 64.3035 96.4195 66.7348 110.369 68.5327 124.659 69.6497 139.181 70.037 153.825 70.4125 168.238 71.4954 182.308 73.2389 196.163 75.5958 209.685 78.5179 222.758 81.9561 235.265 85.8602 247.089 90.1783 258.111 94.8563 268.212 99.8363 277.271 105.054 285.165 104.383 284.362 114 293.494 107.689 300.141 98.0711 291.01C97.8172 290.769 97.5918 290.5 97.3992 290.208L91.7988 281.678 86.5355 272.058 81.6413 261.45 77.1544 249.959 73.1163 237.691 69.5712 224.754 66.5647 211.255 64.1435 197.304 62.3554 183.008 61.249 168.477 60.8734 154.063 60.5097 139.88 59.4374 125.8 57.7037 111.94 55.3568 98.4157 52.4459 85.3448 49.0212 72.8445 45.1346 61.0333 40.8401 50.0305 36.1956 39.9569 31.2651 30.9347 26.1223 23.0868 20.8568 16.5326 15.4171 11.2575 12.7809 9.22674 10.1853 7.57013 7.64383 6.28517 5.16237 5.36359 2.73463 4.79441-0.332581 4.57125ZM113.474 282.564 130.91 307.888 100.189 306.643Z" fill="#4F81BD" fill-rule="nonzero" fill-opacity="1" transform="matrix(1.83697e-16 1 1 -1.83697e-16 2783.5 1250.5)"/><path d="M2276.92 1334.23 2277.29 1309.4 2278.41 1284.49 2280.24 1259.68 2282.77 1235.01 2285.97 1210.54 2289.81 1186.32 2294.27 1162.39 2299.33 1138.8 2304.96 1115.6 2311.14 1092.84 2317.85 1070.56 2325.07 1048.81 2332.76 1027.65 2340.91 1007.11 2349.49 987.249 2358.48 968.112 2367.86 949.747 2377.6 932.202 2387.69 915.523 2398.1 899.759 2408.81 884.957 2419.8 871.166 2431.04 858.433 2442.53 846.807 2454.23 836.337 2466.14 827.073 2478.23 819.067 2490.5 812.374 2502.91 807.051C2503.13 806.958 2503.35 806.882 2503.58 806.824L2517.3 803.338 2519.56 812.222 2505.84 815.708 2506.51 815.481 2494.88 820.425 2483.29 826.715 2471.76 834.312 2460.34 843.172 2449.04 853.252 2437.91 864.504 2426.96 876.88 2416.23 890.332 2405.75 904.811 2395.54 920.268 2385.62 936.653 2376.02 953.918 2366.78 972.012 2357.9 990.886 2349.43 1010.49 2341.37 1030.78 2333.77 1051.7 2326.63 1073.2 2319.99 1095.24 2313.87 1117.77 2308.29 1140.72 2303.28 1164.07 2298.86 1187.76 2295.06 1211.73 2291.89 1235.95 2289.39 1260.35 2287.57 1284.9 2286.46 1309.54 2286.08 1334.37ZM2511.93 794.828 2541.11 804.5 2515.86 822.045Z" fill="#4F81BD" fill-rule="nonzero" fill-opacity="1"/><path d="M0.124416-4.58164 11.691-4.26755 23.4782-3.32541 35.2115-1.77626 46.8682 0.358861 58.4255 3.05903 69.8612 6.30345 81.1529 10.0715 92.2784 14.3425 103.216 19.0963 113.943 24.3126 124.437 29.9712 134.677 36.0523 144.641 42.536 154.305 49.4025 172.577 64.146 181.286 72.1038 189.533 80.3068 197.371 88.7957 204.776 97.5515 211.726 106.555 218.197 115.787 224.167 125.23 229.612 134.863 234.51 144.669 238.835 154.628 242.565 164.722 245.675 174.93 248.139 185.234 249.934 195.614 251.034 206.048 251.414 216.517 251.772 226.67 252.808 236.489 254.503 246.282 256.836 256.031 259.787 265.716 263.337 275.319 267.464 284.818 272.147 294.194 277.366 303.425 283.099 312.492 289.325 321.373 296.021 330.047 303.165 338.494 310.735 346.692 318.709 354.622 327.063 362.263 344.897 376.652 354.183 383.243 363.832 389.523 373.748 395.411 383.907 400.888 394.285 405.935 404.861 410.532 415.611 414.659 426.511 418.296 437.539 421.425 448.671 424.026 459.886 426.08 471.287 427.284 470.314 436.399 458.23 435.096 446.582 432.952 435.033 430.243 423.606 426.99 412.322 423.215 401.204 418.938 390.274 414.178 379.553 408.955 369.065 403.291 358.83 397.204 348.872 390.714 339.138 383.784 320.874 369.025 312.242 361.119 303.998 352.908 296.164 344.41 288.762 335.645 281.816 326.631 275.349 317.387 269.384 307.932 263.944 298.285 259.054 288.465 254.736 278.49 251.017 268.381 247.919 258.156 245.469 247.836 243.691 237.441 242.611 226.993 242.253 216.839 241.917 207.001 240.9 197.168 239.223 187.36 236.904 177.595 233.965 167.893 230.425 158.275 226.307 148.76 221.63 139.37 216.417 130.125 210.688 121.046 204.467 112.153 197.775 103.468 190.634 95.0116 183.067 86.804 175.097 78.866 166.819 71.2778 148.994 56.8735 139.638 50.2174 129.994 43.9324 120.084 38.0382 109.931 32.5548 99.5586 27.5019 88.9899 22.899 78.2478 18.7656 67.3555 15.121 56.336 11.9844 45.2123 9.37472 34.007 7.31092 22.7428 5.81171 11.4421 4.89574-0.124416 4.58164ZM467.135 417.819 493.667 433.356 465.318 445.259Z" fill="#4F81BD" fill-rule="nonzero" fill-opacity="1" transform="matrix(1.83697e-16 1 1 -1.83697e-16 2896.5 945.5)"/></g></g></svg>